NewsreaderDisplay-ExtraLight.ufo
<glyph name="exclam" format="2">
	<unicode hex="0021"/>
	<advance width="476"/>
	<outline>
		<contour>
			<point x="288" y="1411" type="line" smooth="yes"/>
			<point x="288" y="1434"/>
			<point x="263" y="1446"/>
			<point x="239" y="1446" type="curve" smooth="yes"/>
			<point x="214" y="1446"/>
			<point x="189" y="1434"/>
			<point x="189" y="1411" type="curve" smooth="yes"/>
			<point x="189" y="1381" type="line" smooth="yes"/>
			<point x="189" y="1350"/>
			<point x="222" y="717"/>
			<point x="225" y="396" type="curve"/>
			<point x="249" y="396" type="line"/>
			<point x="252" y="717"/>
			<point x="288" y="1353"/>
			<point x="288" y="1381" type="curve" smooth="yes"/>
		</contour>
		<contour>
			<point x="239" y="155" type="curve" smooth="yes"/>
			<point x="191" y="155"/>
			<point x="154" y="117"/>
			<point x="154" y="70" type="curve" smooth="yes"/>
			<point x="154" y="23"/>
			<point x="191" y="-14"/>
			<point x="239" y="-14" type="curve" smooth="yes"/>
			<point x="287" y="-14"/>
			<point x="324" y="23"/>
			<point x="324" y="70" type="curve" smooth="yes"/>
			<point x="324" y="117"/>
			<point x="287" y="155"/>
		</contour>
	</outline>
</glyph>
<glyph name="quotesingle" format="2">
	<unicode hex="0027"/>
	<advance width="295"/>
	<outline>
		<contour>
			<point x="138" y="1006" type="line"/>
			<point x="155" y="1006" type="line"/>
			<point x="192" y="1387" type="line"/>
			<point x="192" y="1430" type="line"/>
			<point x="104" y="1430" type="line"/>
			<point x="104" y="1387" type="line"/>
		</contour>
	</outline>
</glyph>
<glyph name="parenleft" format="2">
	<unicode hex="0028"/>
	<advance width="502"/>
	<outline>
		<contour>
			<point x="165" y="611" type="curve" smooth="yes"/>
			<point x="165" y="864"/>
			<point x="237" y="1109"/>
			<point x="443" y="1437" type="curve"/>
			<point x="423" y="1450" type="line"/>
			<point x="189" y="1110"/>
			<point x="86" y="912"/>
			<point x="86" y="611" type="curve" smooth="yes"/>
			<point x="86" y="310"/>
			<point x="189" y="112"/>
			<point x="423" y="-228" type="curve"/>
			<point x="443" y="-215" type="line"/>
			<point x="237" y="113"/>
			<point x="165" y="358"/>
		</contour>
	</outline>
</glyph>
<glyph name="parenright" format="2">
	<unicode hex="0029"/>
	<advance width="502"/>
	<outline>
		<contour>
			<point x="337" y="611" type="curve" smooth="yes"/>
			<point x="337" y="358"/>
			<point x="265" y="113"/>
			<point x="59" y="-215" type="curve"/>
			<point x="79" y="-228" type="line"/>
			<point x="313" y="112"/>
			<point x="416" y="310"/>
			<point x="416" y="611" type="curve" smooth="yes"/>
			<point x="416" y="912"/>
			<point x="313" y="1110"/>
			<point x="79" y="1450" type="curve"/>
			<point x="59" y="1437" type="line"/>
			<point x="265" y="1109"/>
			<point x="337" y="864"/>
		</contour>
	</outline>
</glyph>
<glyph name="asterisk" format="2">
	<unicode hex="002A"/>
	<advance width="745"/>
	<outline>
		<contour>
			<point x="498" y="911" type="line"/>
			<point x="422" y="1142" type="line"/>
			<point x="666" y="1182" type="line"/>
			<point x="665" y="1199" type="line"/>
			<point x="418" y="1200" type="line"/>
			<point x="461" y="1443" type="line"/>
			<point x="443" y="1448" type="line"/>
			<point x="362" y="1213" type="line"/>
			<point x="145" y="1326" type="line"/>
			<point x="136" y="1312" type="line"/>
			<point x="331" y="1165" type="line"/>
			<point x="160" y="992" type="line"/>
			<point x="171" y="980" type="line"/>
			<point x="368" y="1121" type="line"/>
			<point x="482" y="904" type="line"/>
		</contour>
	</outline>
</glyph>
<glyph name="plus" format="2">
	<unicode hex="002B"/>
	<advance width="1150"/>
	<outline>
		<contour>
			<point x="553" y="923" type="line"/>
			<point x="553" y="101" type="line"/>
			<point x="597" y="101" type="line"/>
			<point x="597" y="923" type="line"/>
		</contour>
		<contour>
			<point x="986" y="534" type="line"/>
			<point x="164" y="534" type="line"/>
			<point x="164" y="490" type="line"/>
			<point x="986" y="490" type="line"/>
		</contour>
	</outline>
</glyph>
<glyph name="comma" format="2">
	<unicode hex="002C"/>
	<advance width="331"/>
	<outline>
		<contour>
			<point x="47" y="-267" type="curve"/>
			<point x="64" y="-281" type="line"/>
			<point x="189" y="-166"/>
			<point x="247" y="-65"/>
			<point x="247" y="43" type="curve" smooth="yes"/>
			<point x="247" y="122"/>
			<point x="209" y="155"/>
			<point x="159" y="155" type="curve" smooth="yes"/>
			<point x="108" y="155"/>
			<point x="80" y="124"/>
			<point x="80" y="78" type="curve" smooth="yes"/>
			<point x="80" y="39"/>
			<point x="190" y="46"/>
			<point x="190" y="-23" type="curve" smooth="yes"/>
			<point x="190" y="-107"/>
			<point x="137" y="-178"/>
		</contour>
	</outline>
</glyph>
<glyph name="hyphen" format="2">
	<unicode hex="002D"/>
	<advance width="556"/>
	<outline>
		<contour>
			<point x="98" y="548" type="line"/>
			<point x="98" y="476" type="line"/>
			<point x="458" y="476" type="line"/>
			<point x="458" y="548" type="line"/>
		</contour>
	</outline>
</glyph>
<glyph name="period" format="2">
  <advance width="376.0"/>
  <unicode hex="002E"/>
  <outline>
    <contour>
      <point x="188.0" y="155.0" type="curve" smooth="yes"/>
      <point x="140.0" y="155.0"/>
      <point x="103.0" y="117.0"/>
      <point x="103.0" y="70.0" type="curve" smooth="yes"/>
      <point x="103.0" y="23.0"/>
      <point x="140.0" y="-14.0"/>
      <point x="188.0" y="-14.0" type="curve" smooth="yes"/>
      <point x="236.0" y="-14.0"/>
      <point x="273.0" y="23.0"/>
      <point x="273.0" y="70.0" type="curve" smooth="yes"/>
      <point x="273.0" y="117.0"/>
      <point x="236.0" y="155.0"/>
    </contour>
  </outline>
</glyph>
<glyph name="slash" format="2">
	<unicode hex="002F"/>
	<advance width="776"/>
	<outline>
		<contour>
			<point x="59" y="0" type="line"/>
			<point x="122" y="0" type="line"/>
			<point x="719" y="1430" type="line"/>
			<point x="656" y="1430" type="line"/>
		</contour>
	</outline>
</glyph>
<glyph name="zero" format="2">
	<unicode hex="0030"/>
	<advance width="1200"/>
	<outline>
		<contour>
			<point x="603" y="7" type="curve" smooth="yes"/>
			<point x="347" y="7"/>
			<point x="192" y="281"/>
			<point x="192" y="747" type="curve" smooth="yes"/>
			<point x="192" y="1173"/>
			<point x="344" y="1423"/>
			<point x="597" y="1423" type="curve" smooth="yes"/>
			<point x="853" y="1423"/>
			<point x="1008" y="1149"/>
			<point x="1008" y="683" type="curve" smooth="yes"/>
			<point x="1008" y="257"/>
			<point x="856" y="7"/>
		</contour>
		<contour>
			<point x="600" y="1450" type="curve" smooth="yes"/>
			<point x="303" y="1450"/>
			<point x="106" y="1152"/>
			<point x="106" y="713" type="curve" smooth="yes"/>
			<point x="106" y="275"/>
			<point x="306" y="-20"/>
			<point x="600" y="-20" type="curve" smooth="yes"/>
			<point x="897" y="-20"/>
			<point x="1095" y="278"/>
			<point x="1095" y="717" type="curve" smooth="yes"/>
			<point x="1095" y="1155"/>
			<point x="894" y="1450"/>
		</contour>
	</outline>
</glyph>
<glyph name="one" format="2">
	<unicode hex="0031"/>
	<advance width="1200"/>
	<outline>
		<contour>
			<point x="638" y="42" type="line"/>
			<point x="329" y="12" type="line"/>
			<point x="329" y="0" type="line"/>
			<point x="1007" y="0" type="line"/>
			<point x="1007" y="12" type="line"/>
			<point x="717" y="42" type="line"/>
			<point x="717" y="1449" type="line"/>
			<point x="700" y="1449" type="line"/>
			<point x="244" y="1188" type="line"/>
			<point x="249" y="1175" type="line"/>
			<point x="664" y="1351" type="line"/>
			<point x="638" y="1362" type="line"/>
		</contour>
	</outline>
</glyph>
<glyph name="colon" format="2">
	<unicode hex="003A"/>
	<advance width="424"/>
	<outline>
		<contour>
			<point x="212" y="155" type="curve" smooth="yes"/>
			<point x="164" y="155"/>
			<point x="127" y="117"/>
			<point x="127" y="70" type="curve" smooth="yes"/>
			<point x="127" y="23"/>
			<point x="164" y="-14"/>
			<point x="212" y="-14" type="curve" smooth="yes"/>
			<point x="260" y="-14"/>
			<point x="297" y="23"/>
			<point x="297" y="70" type="curve" smooth="yes"/>
			<point x="297" y="117"/>
			<point x="260" y="155"/>
		</contour>
		<contour>
			<point x="212" y="1038" type="curve" smooth="yes"/>
			<point x="164" y="1038"/>
			<point x="127" y="1000"/>
			<point x="127" y="953" type="curve" smooth="yes"/>
			<point x="127" y="906"/>
			<point x="164" y="869"/>
			<point x="212" y="869" type="curve" smooth="yes"/>
			<point x="260" y="869"/>
			<point x="297" y="906"/>
			<point x="297" y="953" type="curve" smooth="yes"/>
			<point x="297" y="1000"/>
			<point x="260" y="1038"/>
		</contour>
	</outline>
</glyph>
<glyph name="semicolon" format="2">
	<unicode hex="003B"/>
	<advance width="462"/>
	<outline>
		<contour>
			<point x="123" y="-267" type="curve"/>
			<point x="140" y="-281" type="line"/>
			<point x="265" y="-166"/>
			<point x="323" y="-65"/>
			<point x="323" y="43" type="curve" smooth="yes"/>
			<point x="323" y="122"/>
			<point x="285" y="155"/>
			<point x="235" y="155" type="curve" smooth="yes"/>
			<point x="184" y="155"/>
			<point x="156" y="124"/>
			<point x="156" y="78" type="curve" smooth="yes"/>
			<point x="156" y="39"/>
			<point x="266" y="46"/>
			<point x="266" y="-23" type="curve" smooth="yes"/>
			<point x="266" y="-107"/>
			<point x="213" y="-178"/>
		</contour>
		<contour>
			<point x="232" y="1038" type="curve" smooth="yes"/>
			<point x="184" y="1038"/>
			<point x="147" y="1000"/>
			<point x="147" y="953" type="curve" smooth="yes"/>
			<point x="147" y="906"/>
			<point x="184" y="869"/>
			<point x="232" y="869" type="curve" smooth="yes"/>
			<point x="280" y="869"/>
			<point x="317" y="906"/>
			<point x="317" y="953" type="curve" smooth="yes"/>
			<point x="317" y="1000"/>
			<point x="280" y="1038"/>
		</contour>
	</outline>
</glyph>
<glyph name="less" format="2">
	<unicode hex="003C"/>
	<advance width="1150"/>
	<outline>
		<contour>
			<point x="173" y="503" type="line"/>
			<point x="979" y="858" type="line"/>
			<point x="979" y="909" type="line"/>
			<point x="143" y="536" type="line"/>
			<point x="143" y="488" type="line"/>
			<point x="979" y="115" type="line"/>
			<point x="979" y="166" type="line"/>
			<point x="173" y="527" type="line"/>
		</contour>
	</outline>
</glyph>
<glyph name="greater" format="2">
	<unicode hex="003E"/>
	<advance width="1150"/>
	<outline>
		<contour>
			<point x="977" y="503" type="line"/>
			<point x="977" y="527" type="line"/>
			<point x="171" y="166" type="line"/>
			<point x="171" y="115" type="line"/>
			<point x="1007" y="488" type="line"/>
			<point x="1007" y="536" type="line"/>
			<point x="171" y="909" type="line"/>
			<point x="171" y="858" type="line"/>
		</contour>
	</outline>
</glyph>
<glyph name="question" format="2">
	<unicode hex="003F"/>
	<advance width="889"/>
	<outline>
		<contour>
			<point x="311" y="1450" type="curve" smooth="yes"/>
			<point x="135" y="1450"/>
			<point x="57" y="1397"/>
			<point x="57" y="1347" type="curve" smooth="yes"/>
			<point x="57" y="1316"/>
			<point x="81" y="1297"/>
			<point x="110" y="1297" type="curve" smooth="yes"/>
			<point x="120" y="1297"/>
			<point x="188" y="1387"/>
			<point x="367" y="1387" type="curve" smooth="yes"/>
			<point x="594" y="1387"/>
			<point x="746" y="1276"/>
			<point x="746" y="1049" type="curve" smooth="yes"/>
			<point x="746" y="863"/>
			<point x="633" y="741"/>
			<point x="316" y="763" type="curve"/>
			<point x="358" y="396" type="line"/>
			<point x="378" y="396" type="line"/>
			<point x="378" y="750" type="line"/>
			<point x="351" y="689" type="line"/>
			<point x="697" y="677"/>
			<point x="806" y="821"/>
			<point x="806" y="1014" type="curve" smooth="yes"/>
			<point x="806" y="1291"/>
			<point x="528" y="1450"/>
		</contour>
		<contour>
			<point x="374" y="155" type="curve" smooth="yes"/>
			<point x="326" y="155"/>
			<point x="289" y="117"/>
			<point x="289" y="70" type="curve" smooth="yes"/>
			<point x="289" y="23"/>
			<point x="326" y="-14"/>
			<point x="374" y="-14" type="curve" smooth="yes"/>
			<point x="422" y="-14"/>
			<point x="459" y="23"/>
			<point x="459" y="70" type="curve" smooth="yes"/>
			<point x="459" y="117"/>
			<point x="422" y="155"/>
		</contour>
	</outline>
</glyph>
<glyph name="at" format="2">
	<unicode hex="0040"/>
	<advance width="1757"/>
	<outline>
		<contour>
			<point x="1261" y="247" type="curve" smooth="yes"/>
			<point x="1525" y="247"/>
			<point x="1705" y="505"/>
			<point x="1705" y="820" type="curve" smooth="yes"/>
			<point x="1705" y="1175"/>
			<point x="1407" y="1450"/>
			<point x="985" y="1450" type="curve" smooth="yes"/>
			<point x="482" y="1450"/>
			<point x="82" y="1048"/>
			<point x="82" y="532" type="curve" smooth="yes"/>
			<point x="82" y="43"/>
			<point x="440" y="-218"/>
			<point x="899" y="-218" type="curve" smooth="yes"/>
			<point x="1104" y="-218"/>
			<point x="1350" y="-144"/>
			<point x="1513" y="-24" type="curve"/>
			<point x="1506" y="-7" type="line"/>
			<point x="1324" y="-132"/>
			<point x="1084" y="-185"/>
			<point x="924" y="-185" type="curve" smooth="yes"/>
			<point x="470" y="-185"/>
			<point x="152" y="73"/>
			<point x="152" y="538" type="curve" smooth="yes"/>
			<point x="152" y="1057"/>
			<point x="494" y="1420"/>
			<point x="984" y="1420" type="curve" smooth="yes"/>
			<point x="1359" y="1420"/>
			<point x="1652" y="1148"/>
			<point x="1652" y="789" type="curve" smooth="yes"/>
			<point x="1652" y="467"/>
			<point x="1473" y="268"/>
			<point x="1270" y="268" type="curve" smooth="yes"/>
			<point x="1181" y="268"/>
			<point x="1120" y="316"/>
			<point x="1120" y="430" type="curve" smooth="yes"/>
			<point x="1120" y="479"/>
			<point x="1131" y="541"/>
			<point x="1157" y="617" type="curve" smooth="yes"/>
			<point x="1300" y="1039" type="line"/>
			<point x="1229" y="1039" type="line"/>
			<point x="1203" y="964" type="line"/>
			<point x="1090" y="624" type="line"/>
			<point x="901" y="354"/>
			<point x="801" y="293"/>
			<point x="718" y="293" type="curve" smooth="yes"/>
			<point x="643" y="293"/>
			<point x="611" y="343"/>
			<point x="611" y="434" type="curve" smooth="yes"/>
			<point x="611" y="651"/>
			<point x="827" y="1031"/>
			<point x="1047" y="1031" type="curve" smooth="yes"/>
			<point x="1105" y="1031"/>
			<point x="1157" y="1014"/>
			<point x="1204" y="949" type="curve"/>
			<point x="1214" y="959" type="line"/>
			<point x="1170" y="1026"/>
			<point x="1118" y="1055"/>
			<point x="1043" y="1055" type="curve" smooth="yes"/>
			<point x="804" y="1055"/>
			<point x="533" y="692"/>
			<point x="533" y="432" type="curve" smooth="yes"/>
			<point x="533" y="325"/>
			<point x="575" y="247"/>
			<point x="701" y="247" type="curve" smooth="yes"/>
			<point x="794" y="247"/>
			<point x="912" y="334"/>
			<point x="1093" y="604" type="curve"/>
			<point x="1085" y="604" type="line"/>
			<point x="1067" y="534" type="line" smooth="yes"/>
			<point x="1059" y="502"/>
			<point x="1055" y="471"/>
			<point x="1055" y="443" type="curve" smooth="yes"/>
			<point x="1055" y="324"/>
			<point x="1127" y="247"/>
		</contour>
	</outline>
</glyph>
<glyph name="A" format="2">
	<unicode hex="0041"/>
	<advance width="1421"/>
	<outline>
		<contour>
			<point x="394" y="590" type="line"/>
			<point x="1003" y="590" type="line"/>
			<point x="1003" y="620" type="line"/>
			<point x="394" y="620" type="line"/>
		</contour>
		<contour>
			<point x="1262" y="40" type="line"/>
			<point x="709" y="1450" type="line"/>
			<point x="686" y="1450" type="line"/>
			<point x="168" y="40" type="line"/>
			<point x="-16" y="12" type="line"/>
			<point x="-16" y="0" type="line"/>
			<point x="385" y="0" type="line"/>
			<point x="385" y="12" type="line"/>
			<point x="202" y="40" type="line"/>
			<point x="681" y="1349" type="line"/>
			<point x="668" y="1349" type="line"/>
			<point x="1181" y="40" type="line"/>
			<point x="997" y="12" type="line"/>
			<point x="997" y="0" type="line"/>
			<point x="1445" y="0" type="line"/>
			<point x="1445" y="12" type="line"/>
		</contour>
	</outline>
	<anchor name="UCtop" x="694" y="1430"/>
	<anchor name="bottom" x="714" y="0"/>
	<anchor name="right" x="1345" y="0"/>
</glyph>
<glyph name="B" format="2">
	<unicode hex="0042"/>
	<advance width="1190"/>
	<outline>
		<contour>
			<point x="269" y="1400" type="line"/>
			<point x="487" y="1400" type="line" smooth="yes"/>
			<point x="816" y="1400"/>
			<point x="927" y="1282"/>
			<point x="927" y="1087" type="curve" smooth="yes"/>
			<point x="927" y="895"/>
			<point x="816" y="776"/>
			<point x="531" y="776" type="curve" smooth="yes"/>
			<point x="269" y="776" type="line"/>
			<point x="266" y="746" type="line"/>
			<point x="565" y="746" type="line" smooth="yes"/>
			<point x="892" y="746"/>
			<point x="1019" y="609"/>
			<point x="1019" y="388" type="curve" smooth="yes"/>
			<point x="1019" y="166"/>
			<point x="892" y="30"/>
			<point x="521" y="30" type="curve" smooth="yes"/>
			<point x="265" y="30" type="line"/>
			<point x="295" y="0" type="line"/>
			<point x="588" y="0" type="line" smooth="yes"/>
			<point x="963" y="0"/>
			<point x="1101" y="171"/>
			<point x="1101" y="391" type="curve" smooth="yes"/>
			<point x="1101" y="595"/>
			<point x="968" y="744"/>
			<point x="668" y="770" type="curve"/>
			<point x="667" y="762" type="line"/>
			<point x="918" y="807"/>
			<point x="1007" y="939"/>
			<point x="1007" y="1093" type="curve" smooth="yes"/>
			<point x="1007" y="1283"/>
			<point x="885" y="1430"/>
			<point x="554" y="1430" type="curve" smooth="yes"/>
			<point x="295" y="1430" type="line"/>
		</contour>
		<contour>
			<point x="60" y="0" type="line"/>
			<point x="325" y="0" type="line"/>
			<point x="325" y="1430" type="line"/>
			<point x="61" y="1430" type="line"/>
			<point x="61" y="1418" type="line"/>
			<point x="244" y="1390" type="line"/>
			<point x="244" y="40" type="line"/>
			<point x="60" y="12" type="line"/>
		</contour>
	</outline>
	<anchor name="UCtop" x="591" y="1430"/>
	<anchor name="bottom" x="611" y="0"/>
</glyph>
<glyph name="C" format="2">
	<unicode hex="0043"/>
	<advance width="1407"/>
	<outline>
		<contour>
			<point x="868" y="5" type="curve" smooth="yes"/>
			<point x="495" y="5"/>
			<point x="186" y="265"/>
			<point x="186" y="741" type="curve" smooth="yes"/>
			<point x="186" y="1181"/>
			<point x="442" y="1418"/>
			<point x="814" y="1418" type="curve" smooth="yes"/>
			<point x="957" y="1418"/>
			<point x="1094" y="1380"/>
			<point x="1242" y="1283" type="curve"/>
			<point x="1155" y="1363" type="line"/>
			<point x="1300" y="1019" type="line"/>
			<point x="1318" y="1023" type="line"/>
			<point x="1230" y="1479" type="line"/>
			<point x="1225" y="1479" type="line"/>
			<point x="1175" y="1377" type="line"/>
			<point x="1234" y="1374" type="line"/>
			<point x="1115" y="1426"/>
			<point x="992" y="1450"/>
			<point x="866" y="1450" type="curve" smooth="yes"/>
			<point x="398" y="1450"/>
			<point x="98" y="1163"/>
			<point x="98" y="715" type="curve" smooth="yes"/>
			<point x="98" y="243"/>
			<point x="434" y="-20"/>
			<point x="871" y="-20" type="curve" smooth="yes"/>
			<point x="1015" y="-20"/>
			<point x="1167" y="11"/>
			<point x="1270" y="55" type="curve"/>
			<point x="1337" y="346" type="line"/>
			<point x="1320" y="346" type="line"/>
			<point x="1177" y="44" type="line"/>
			<point x="1223" y="97" type="line"/>
			<point x="1122" y="37"/>
			<point x="990" y="5"/>
		</contour>
	</outline>
	<anchor name="UCtop" x="803" y="1430"/>
	<anchor name="bottom" x="797" y="0"/>
	<anchor name="right" x="1271" y="0"/>
</glyph>
<glyph name="D" format="2">
	<unicode hex="0044"/>
	<advance width="1488"/>
	<outline>
		<contour>
			<point x="1301" y="732" type="curve" smooth="yes"/>
			<point x="1301" y="234"/>
			<point x="1006" y="30"/>
			<point x="541" y="30" type="curve" smooth="yes"/>
			<point x="247" y="30" type="line"/>
			<point x="267" y="0" type="line"/>
			<point x="573" y="0" type="line" smooth="yes"/>
			<point x="1037" y="0"/>
			<point x="1388" y="248"/>
			<point x="1388" y="734" type="curve" smooth="yes"/>
			<point x="1388" y="1179"/>
			<point x="1103" y="1430"/>
			<point x="564" y="1430" type="curve" smooth="yes"/>
			<point x="267" y="1430" type="line"/>
			<point x="247" y="1400" type="line"/>
			<point x="509" y="1400" type="line" smooth="yes"/>
			<point x="1011" y="1400"/>
			<point x="1301" y="1176"/>
		</contour>
		<contour>
			<point x="60" y="0" type="line"/>
			<point x="325" y="0" type="line"/>
			<point x="325" y="1430" type="line"/>
			<point x="60" y="1430" type="line"/>
			<point x="60" y="1418" type="line"/>
			<point x="244" y="1390" type="line"/>
			<point x="244" y="40" type="line"/>
			<point x="60" y="12" type="line"/>
		</contour>
	</outline>
	<anchor name="UCtop" x="761" y="1430"/>
	<anchor name="bottom" x="761" y="0"/>
</glyph>
<glyph name="E" format="2">
	<unicode hex="0045"/>
	<advance width="1248"/>
	<outline>
		<contour>
			<point x="876" y="1034" type="line"/>
			<point x="866" y="1034" type="line"/>
			<point x="783" y="773" type="line"/>
			<point x="302" y="761" type="line"/>
			<point x="302" y="736" type="line"/>
			<point x="783" y="726" type="line"/>
			<point x="866" y="463" type="line"/>
			<point x="876" y="463" type="line"/>
			<point x="841" y="748" type="line"/>
		</contour>
		<contour>
			<point x="1134" y="1077" type="line"/>
			<point x="1053" y="1473" type="line"/>
			<point x="1049" y="1473" type="line"/>
			<point x="991" y="1430" type="line"/>
			<point x="246" y="1430" type="line"/>
			<point x="246" y="1400" type="line"/>
			<point x="1030" y="1400" type="line"/>
			<point x="978" y="1415" type="line"/>
			<point x="1120" y="1072" type="line"/>
		</contour>
		<contour>
			<point x="1018" y="17" type="line"/>
			<point x="1061" y="30" type="line"/>
			<point x="246" y="30" type="line"/>
			<point x="246" y="0" type="line"/>
			<point x="1022" y="0" type="line"/>
			<point x="1091" y="-49" type="line"/>
			<point x="1097" y="-49" type="line"/>
			<point x="1201" y="371" type="line"/>
			<point x="1189" y="375" type="line"/>
		</contour>
		<contour>
			<point x="60" y="0" type="line"/>
			<point x="325" y="0" type="line"/>
			<point x="325" y="1430" type="line"/>
			<point x="60" y="1430" type="line"/>
			<point x="60" y="1418" type="line"/>
			<point x="244" y="1390" type="line"/>
			<point x="244" y="40" type="line"/>
			<point x="60" y="12" type="line"/>
		</contour>
	</outline>
	<anchor name="UCtop" x="631" y="1430"/>
	<anchor name="right" x="1081" y="0"/>
	<anchor name="bottom" x="661" y="0"/>
</glyph>
<glyph name="F" format="2">
	<unicode hex="0046"/>
	<advance width="1106"/>
	<outline>
		<contour>
			<point x="846" y="1003" type="line"/>
			<point x="836" y="1003" type="line"/>
			<point x="753" y="742" type="line"/>
			<point x="302" y="730" type="line"/>
			<point x="302" y="705" type="line"/>
			<point x="753" y="695" type="line"/>
			<point x="836" y="432" type="line"/>
			<point x="846" y="432" type="line"/>
			<point x="811" y="717" type="line"/>
		</contour>
		<contour>
			<point x="989" y="1473" type="line"/>
			<point x="931" y="1430" type="line"/>
			<point x="246" y="1430" type="line"/>
			<point x="246" y="1400" type="line"/>
			<point x="970" y="1400" type="line"/>
			<point x="918" y="1415" type="line"/>
			<point x="1060" y="1072" type="line"/>
			<point x="1074" y="1077" type="line"/>
			<point x="993" y="1473" type="line"/>
		</contour>
		<contour>
			<point x="325" y="1430" type="line"/>
			<point x="61" y="1430" type="line"/>
			<point x="61" y="1418" type="line"/>
			<point x="244" y="1390" type="line"/>
			<point x="244" y="40" type="line"/>
			<point x="60" y="12" type="line"/>
			<point x="60" y="0" type="line"/>
			<point x="508" y="0" type="line"/>
			<point x="508" y="12" type="line"/>
			<point x="325" y="40" type="line"/>
		</contour>
	</outline>
	<anchor name="UCtop" x="557" y="1430"/>
	<anchor name="bottom" x="285" y="0"/>
</glyph>
<glyph name="G" format="2">
	<unicode hex="0047"/>
	<advance width="1505"/>
	<outline>
		<contour>
			<point x="1285" y="93" type="line"/>
			<point x="1285" y="599" type="line"/>
			<point x="1438" y="627" type="line"/>
			<point x="1438" y="639" type="line"/>
			<point x="991" y="639" type="line"/>
			<point x="991" y="627" type="line"/>
			<point x="1205" y="599" type="line"/>
			<point x="1205" y="44" type="line"/>
			<point x="1250" y="104" type="line"/>
			<point x="1152" y="36"/>
			<point x="1001" y="6"/>
			<point x="868" y="5" type="curve" smooth="yes"/>
			<point x="495" y="4"/>
			<point x="186" y="265"/>
			<point x="186" y="741" type="curve" smooth="yes"/>
			<point x="186" y="1181"/>
			<point x="437" y="1418"/>
			<point x="801" y="1418" type="curve" smooth="yes"/>
			<point x="944" y="1418"/>
			<point x="1081" y="1380"/>
			<point x="1229" y="1283" type="curve"/>
			<point x="1142" y="1363" type="line"/>
			<point x="1287" y="1019" type="line"/>
			<point x="1305" y="1023" type="line"/>
			<point x="1217" y="1479" type="line"/>
			<point x="1212" y="1479" type="line"/>
			<point x="1162" y="1377" type="line"/>
			<point x="1221" y="1374" type="line"/>
			<point x="1102" y="1426"/>
			<point x="979" y="1450"/>
			<point x="853" y="1450" type="curve" smooth="yes"/>
			<point x="393" y="1450"/>
			<point x="98" y="1163"/>
			<point x="98" y="715" type="curve" smooth="yes"/>
			<point x="98" y="243"/>
			<point x="434" y="-20"/>
			<point x="871" y="-20" type="curve" smooth="yes"/>
			<point x="1049" y="-20"/>
			<point x="1283" y="28"/>
			<point x="1411" y="88" type="curve"/>
			<point x="1411" y="93" type="line"/>
		</contour>
	</outline>
	<anchor name="UCtop" x="798" y="1430"/>
	<anchor name="bottom" x="798" y="0"/>
</glyph>
<glyph name="H" format="2">
	<unicode hex="0048"/>
	<advance width="1529"/>
	<outline>
		<contour>
			<point x="325" y="40" type="line"/>
			<point x="325" y="1390" type="line"/>
			<point x="508" y="1418" type="line"/>
			<point x="508" y="1430" type="line"/>
			<point x="60" y="1430" type="line"/>
			<point x="60" y="1418" type="line"/>
			<point x="244" y="1390" type="line"/>
			<point x="244" y="40" type="line"/>
			<point x="60" y="12" type="line"/>
			<point x="60" y="0" type="line"/>
			<point x="508" y="0" type="line"/>
			<point x="508" y="12" type="line"/>
		</contour>
		<contour>
			<point x="1286" y="40" type="line"/>
			<point x="1286" y="1390" type="line"/>
			<point x="1469" y="1418" type="line"/>
			<point x="1469" y="1430" type="line"/>
			<point x="1021" y="1430" type="line"/>
			<point x="1021" y="1418" type="line"/>
			<point x="1205" y="1390" type="line"/>
			<point x="1205" y="40" type="line"/>
			<point x="1021" y="12" type="line"/>
			<point x="1021" y="0" type="line"/>
			<point x="1469" y="0" type="line"/>
			<point x="1469" y="12" type="line"/>
		</contour>
		<contour>
			<point x="261" y="728" type="line"/>
			<point x="1268" y="728" type="line"/>
			<point x="1268" y="758" type="line"/>
			<point x="261" y="758" type="line"/>
		</contour>
	</outline>
	<anchor name="UCtop" x="765" y="1430"/>
	<anchor name="bottom" x="765" y="0"/>
</glyph>
<glyph name="I" format="2">
	<unicode hex="0049"/>
	<advance width="568"/>
	<outline>
		<contour>
			<point x="508" y="12" type="line"/>
			<point x="325" y="40" type="line"/>
			<point x="325" y="1390" type="line"/>
			<point x="509" y="1418" type="line"/>
			<point x="509" y="1430" type="line"/>
			<point x="61" y="1430" type="line"/>
			<point x="61" y="1418" type="line"/>
			<point x="244" y="1390" type="line"/>
			<point x="244" y="40" type="line"/>
			<point x="60" y="12" type="line"/>
			<point x="60" y="0" type="line"/>
			<point x="508" y="0" type="line"/>
		</contour>
	</outline>
	<anchor name="UCtop" x="285" y="1430"/>
	<anchor name="right" x="405" y="0"/>
	<anchor name="bottom" x="285" y="0"/>
</glyph>
<glyph name="J" format="2">
	<unicode hex="004A"/>
	<advance width="659"/>
	<outline>
		<contour>
			<point x="433" y="417" type="curve" smooth="yes"/>
			<point x="433" y="1390" type="line"/>
			<point x="617" y="1418" type="line"/>
			<point x="617" y="1430" type="line"/>
			<point x="169" y="1430" type="line"/>
			<point x="169" y="1418" type="line"/>
			<point x="352" y="1390" type="line"/>
			<point x="352" y="266" type="line" smooth="yes"/>
			<point x="352" y="104"/>
			<point x="263" y="37"/>
			<point x="167" y="37" type="curve" smooth="yes"/>
			<point x="119" y="37"/>
			<point x="74" y="69"/>
			<point x="45" y="69" type="curve" smooth="yes"/>
			<point x="29" y="69"/>
			<point x="11" y="53"/>
			<point x="11" y="30" type="curve" smooth="yes"/>
			<point x="11" y="2"/>
			<point x="37" y="-16"/>
			<point x="82" y="-16" type="curve" smooth="yes"/>
			<point x="270" y="-16"/>
			<point x="433" y="129"/>
		</contour>
	</outline>
	<anchor name="UCtop" x="393" y="1430"/>
	<anchor name="bottom" x="314" y="0"/>
</glyph>
<glyph name="K" format="2">
	<unicode hex="004B"/>
	<advance width="1375"/>
	<outline>
		<contour>
			<point x="1209" y="40" type="line"/>
			<point x="520" y="778" type="line"/>
			<point x="481" y="728" type="line"/>
			<point x="1115" y="1391" type="line"/>
			<point x="1299" y="1416" type="line"/>
			<point x="1299" y="1430" type="line"/>
			<point x="888" y="1430" type="line"/>
			<point x="888" y="1416" type="line"/>
			<point x="1071" y="1391" type="line"/>
			<point x="476" y="763" type="line"/>
			<point x="302" y="763" type="line"/>
			<point x="302" y="733" type="line"/>
			<point x="463" y="733" type="line"/>
			<point x="1109" y="40" type="line"/>
			<point x="925" y="12" type="line"/>
			<point x="925" y="0" type="line"/>
			<point x="1392" y="0" type="line"/>
			<point x="1392" y="12" type="line"/>
		</contour>
		<contour>
			<point x="325" y="1390" type="line"/>
			<point x="508" y="1418" type="line"/>
			<point x="508" y="1430" type="line"/>
			<point x="61" y="1430" type="line"/>
			<point x="61" y="1418" type="line"/>
			<point x="244" y="1390" type="line"/>
			<point x="244" y="40" type="line"/>
			<point x="60" y="12" type="line"/>
			<point x="60" y="0" type="line"/>
			<point x="508" y="0" type="line"/>
			<point x="508" y="12" type="line"/>
			<point x="325" y="40" type="line"/>
		</contour>
	</outline>
	<anchor name="UCtop" x="676" y="1430"/>
	<anchor name="bottom" x="706" y="0"/>
</glyph>
<glyph name="L" format="2">
	<unicode hex="004C"/>
	<advance width="1164"/>
	<outline>
		<contour>
			<point x="1036" y="-49" type="line"/>
			<point x="1140" y="371" type="line"/>
			<point x="1128" y="375" type="line"/>
			<point x="957" y="17" type="line"/>
			<point x="1000" y="30" type="line"/>
			<point x="246" y="30" type="line"/>
			<point x="246" y="0" type="line"/>
			<point x="961" y="0" type="line"/>
			<point x="1030" y="-49" type="line"/>
		</contour>
		<contour>
			<point x="325" y="1390" type="line"/>
			<point x="509" y="1418" type="line"/>
			<point x="509" y="1430" type="line"/>
			<point x="60" y="1430" type="line"/>
			<point x="60" y="1418" type="line"/>
			<point x="244" y="1390" type="line"/>
			<point x="244" y="40" type="line"/>
			<point x="60" y="12" type="line"/>
			<point x="60" y="0" type="line"/>
			<point x="325" y="0" type="line"/>
		</contour>
	</outline>
	<anchor name="UCtop" x="285" y="1430"/>
	<anchor name="right" x="480" y="1430"/>
	<anchor name="bottom" x="605" y="0"/>
	<anchor name="mid" x="885" y="773"/>
</glyph>
<glyph name="M" format="2">
	<unicode hex="004D"/>
	<advance width="1905"/>
	<outline>
		<contour>
			<point x="1696" y="40" type="line"/>
			<point x="1598" y="1386" type="line"/>
			<point x="1800" y="1415" type="line"/>
			<point x="1800" y="1430" type="line"/>
			<point x="1520" y="1430" type="line"/>
			<point x="932" y="67" type="line"/>
			<point x="956" y="67" type="line"/>
			<point x="385" y="1430" type="line"/>
			<point x="118" y="1430" type="line"/>
			<point x="118" y="1417" type="line"/>
			<point x="303" y="1384" type="line"/>
			<point x="209" y="40" type="line"/>
			<point x="26" y="12" type="line"/>
			<point x="26" y="0" type="line"/>
			<point x="423" y="0" type="line"/>
			<point x="423" y="12" type="line"/>
			<point x="240" y="40" type="line"/>
			<point x="332" y="1398" type="line"/>
			<point x="318" y="1396" type="line"/>
			<point x="909" y="-20" type="line"/>
			<point x="928" y="-20" type="line"/>
			<point x="1536" y="1393" type="line"/>
			<point x="1522" y="1395" type="line"/>
			<point x="1615" y="40" type="line"/>
			<point x="1431" y="12" type="line"/>
			<point x="1431" y="0" type="line"/>
			<point x="1879" y="0" type="line"/>
			<point x="1879" y="12" type="line"/>
		</contour>
	</outline>
	<anchor name="UCtop" x="953" y="1430"/>
	<anchor name="bottom" x="923" y="0"/>
</glyph>
<glyph name="N" format="2">
	<unicode hex="004E"/>
	<advance width="1536"/>
	<outline>
		<contour>
			<point x="247" y="40" type="line"/>
			<point x="63" y="12" type="line"/>
			<point x="63" y="0" type="line"/>
			<point x="460" y="0" type="line"/>
			<point x="460" y="12" type="line"/>
			<point x="277" y="40" type="line"/>
			<point x="277" y="1387" type="line"/>
			<point x="263" y="1389" type="line"/>
			<point x="1282" y="-20" type="line"/>
			<point x="1300" y="-20" type="line"/>
			<point x="1300" y="1390" type="line"/>
			<point x="1484" y="1418" type="line"/>
			<point x="1484" y="1430" type="line"/>
			<point x="1087" y="1430" type="line"/>
			<point x="1087" y="1418" type="line"/>
			<point x="1270" y="1390" type="line"/>
			<point x="1270" y="44" type="line"/>
			<point x="1285" y="107" type="line"/>
			<point x="330" y="1430" type="line"/>
			<point x="51" y="1430" type="line"/>
			<point x="51" y="1418" type="line"/>
			<point x="247" y="1390" type="line"/>
		</contour>
	</outline>
	<anchor name="UCtop" x="798" y="1430"/>
	<anchor name="bottom" x="798" y="0"/>
</glyph>
<glyph name="O" format="2">
	<unicode hex="004F"/>
	<advance width="1564"/>
	<outline>
		<contour>
			<point x="770" y="1450" type="curve" smooth="yes"/>
			<point x="382" y="1450"/>
			<point x="98" y="1140"/>
			<point x="98" y="714" type="curve" smooth="yes"/>
			<point x="98" y="290"/>
			<point x="397" y="-20"/>
			<point x="794" y="-20" type="curve" smooth="yes"/>
			<point x="1182" y="-20"/>
			<point x="1466" y="290"/>
			<point x="1466" y="716" type="curve" smooth="yes"/>
			<point x="1466" y="1140"/>
			<point x="1167" y="1450"/>
		</contour>
		<contour>
			<point x="790" y="10" type="curve" smooth="yes"/>
			<point x="438" y="10"/>
			<point x="185" y="282"/>
			<point x="185" y="727" type="curve" smooth="yes"/>
			<point x="185" y="1130"/>
			<point x="402" y="1420"/>
			<point x="774" y="1420" type="curve" smooth="yes"/>
			<point x="1126" y="1420"/>
			<point x="1379" y="1148"/>
			<point x="1379" y="703" type="curve" smooth="yes"/>
			<point x="1379" y="300"/>
			<point x="1162" y="10"/>
		</contour>
	</outline>
	<anchor name="UCtop" x="782" y="1430"/>
	<anchor name="bottom" x="782" y="0"/>
	<anchor name="right" x="942" y="0"/>
	<anchor name="horn" x="1116" y="1430"/>
</glyph>
<glyph name="P" format="2">
	<unicode hex="0050"/>
	<advance width="1161"/>
	<outline>
		<contour>
			<point x="1028" y="1047" type="curve" smooth="yes"/>
			<point x="1028" y="828"/>
			<point x="901" y="694"/>
			<point x="531" y="694" type="curve" smooth="yes"/>
			<point x="274" y="694" type="line"/>
			<point x="274" y="664" type="line"/>
			<point x="604" y="664" type="line" smooth="yes"/>
			<point x="974" y="664"/>
			<point x="1110" y="832"/>
			<point x="1110" y="1047" type="curve" smooth="yes"/>
			<point x="1110" y="1262"/>
			<point x="973" y="1430"/>
			<point x="603" y="1430" type="curve" smooth="yes"/>
			<point x="285" y="1430" type="line"/>
			<point x="274" y="1400" type="line"/>
			<point x="531" y="1400" type="line" smooth="yes"/>
			<point x="901" y="1400"/>
			<point x="1028" y="1266"/>
		</contour>
		<contour>
			<point x="325" y="1430" type="line"/>
			<point x="61" y="1430" type="line"/>
			<point x="61" y="1418" type="line"/>
			<point x="244" y="1390" type="line"/>
			<point x="244" y="40" type="line"/>
			<point x="60" y="12" type="line"/>
			<point x="60" y="0" type="line"/>
			<point x="508" y="0" type="line"/>
			<point x="508" y="12" type="line"/>
			<point x="325" y="40" type="line"/>
		</contour>
	</outline>
	<anchor name="UCtop" x="635" y="1430"/>
	<anchor name="bottom" x="285" y="0"/>
</glyph>
<glyph name="Q" format="2">
	<unicode hex="0051"/>
	<advance width="1564"/>
	<outline>
		<contour>
			<point x="1144" y="-352" type="line" smooth="yes"/>
			<point x="1276" y="-432"/>
			<point x="1349" y="-465"/>
			<point x="1462" y="-465" type="curve" smooth="yes"/>
			<point x="1517" y="-465"/>
			<point x="1588" y="-456"/>
			<point x="1650" y="-439" type="curve"/>
			<point x="1650" y="-424" type="line"/>
			<point x="1485" y="-444"/>
			<point x="1407" y="-416"/>
			<point x="1226" y="-312" type="curve" smooth="yes"/>
			<point x="651" y="20" type="line"/>
			<point x="660" y="-5" type="line"/>
			<point x="1119" y="-90"/>
			<point x="1466" y="244"/>
			<point x="1466" y="716" type="curve" smooth="yes"/>
			<point x="1466" y="1140"/>
			<point x="1167" y="1450"/>
			<point x="770" y="1450" type="curve" smooth="yes"/>
			<point x="382" y="1450"/>
			<point x="98" y="1140"/>
			<point x="98" y="714" type="curve" smooth="yes"/>
			<point x="98" y="416"/>
			<point x="240" y="194"/>
			<point x="458" y="62" type="curve" smooth="yes"/>
		</contour>
		<contour>
			<point x="790" y="9" type="curve" smooth="yes"/>
			<point x="438" y="9"/>
			<point x="185" y="281"/>
			<point x="185" y="727" type="curve" smooth="yes"/>
			<point x="185" y="1130"/>
			<point x="401" y="1422"/>
			<point x="773" y="1422" type="curve" smooth="yes"/>
			<point x="1125" y="1422"/>
			<point x="1378" y="1149"/>
			<point x="1378" y="703" type="curve" smooth="yes"/>
			<point x="1378" y="300"/>
			<point x="1163" y="9"/>
		</contour>
	</outline>
	<anchor name="bottom" x="782" y="-445"/>
	<anchor name="UCtop" x="782" y="1430"/>
</glyph>
<glyph name="R" format="2">
	<unicode hex="0052"/>
	<advance width="1235"/>
	<outline>
		<contour>
			<point x="558" y="753" type="curve" smooth="yes"/>
			<point x="280" y="753" type="line"/>
			<point x="280" y="723" type="line"/>
			<point x="615" y="723" type="line" smooth="yes"/>
			<point x="715" y="723"/>
			<point x="759" y="689"/>
			<point x="840" y="512" type="curve" smooth="yes"/>
			<point x="981" y="204" type="line" smooth="yes"/>
			<point x="1074" y="1"/>
			<point x="1089" y="-13"/>
			<point x="1278" y="0" type="curve"/>
			<point x="1278" y="18" type="line"/>
			<point x="1164.0001008157" y="17.0000008843"/>
			<point x="1143.2089978016" y="40.363226198"/>
			<point x="1074" y="189" type="curve" smooth="yes"/>
			<point x="925" y="509" type="line" smooth="yes"/>
			<point x="842" y="688"/>
			<point x="784" y="742"/>
			<point x="609" y="742" type="curve"/>
			<point x="609" y="738" type="line"/>
			<point x="855" y="762"/>
			<point x="993" y="900"/>
			<point x="993" y="1084" type="curve" smooth="yes"/>
			<point x="993" y="1278"/>
			<point x="863" y="1430"/>
			<point x="511" y="1430" type="curve" smooth="yes"/>
			<point x="280" y="1430" type="line"/>
			<point x="280" y="1400" type="line"/>
			<point x="420" y="1400" type="line" smooth="yes"/>
			<point x="783" y="1400"/>
			<point x="905" y="1280"/>
			<point x="905" y="1082" type="curve" smooth="yes"/>
			<point x="905" y="864"/>
			<point x="761" y="753"/>
		</contour>
		<contour>
			<point x="325" y="1430" type="line"/>
			<point x="61" y="1430" type="line"/>
			<point x="61" y="1418" type="line"/>
			<point x="244" y="1390" type="line"/>
			<point x="244" y="40" type="line"/>
			<point x="60" y="12" type="line"/>
			<point x="60" y="0" type="line"/>
			<point x="508" y="0" type="line"/>
			<point x="508" y="12" type="line"/>
			<point x="325" y="40" type="line"/>
		</contour>
	</outline>
	<anchor name="UCtop" x="579" y="1430"/>
	<anchor name="bottom" x="719" y="0"/>
</glyph>
<glyph name="S" format="2">
	<unicode hex="0053"/>
	<advance width="1038"/>
	<outline>
		<contour>
			<point x="790" y="1382" type="line"/>
			<point x="692" y="1432"/>
			<point x="613" y="1450"/>
			<point x="515" y="1450" type="curve" smooth="yes"/>
			<point x="282" y="1450"/>
			<point x="139" y="1317"/>
			<point x="139" y="1126" type="curve" smooth="yes"/>
			<point x="139" y="954"/>
			<point x="213" y="833"/>
			<point x="510" y="723" type="curve" smooth="yes"/>
			<point x="807" y="613"/>
			<point x="883" y="511"/>
			<point x="883" y="353" type="curve" smooth="yes"/>
			<point x="883" y="132"/>
			<point x="702" y="6"/>
			<point x="474" y="6" type="curve" smooth="yes"/>
			<point x="356" y="6"/>
			<point x="254" y="33"/>
			<point x="181" y="80" type="curve"/>
			<point x="256" y="9" type="line"/>
			<point x="102" y="382" type="line"/>
			<point x="83" y="382" type="line"/>
			<point x="158" y="39" type="line"/>
			<point x="257" y="-1"/>
			<point x="350" y="-20"/>
			<point x="473" y="-20" type="curve" smooth="yes"/>
			<point x="746" y="-20"/>
			<point x="943" y="141"/>
			<point x="943" y="388" type="curve" smooth="yes"/>
			<point x="943" y="563"/>
			<point x="865" y="690"/>
			<point x="572" y="795" type="curve" smooth="yes"/>
			<point x="279" y="900"/>
			<point x="198" y="998"/>
			<point x="198" y="1154" type="curve" smooth="yes"/>
			<point x="198" y="1316"/>
			<point x="307" y="1425"/>
			<point x="495" y="1425" type="curve" smooth="yes"/>
			<point x="612" y="1425"/>
			<point x="710" y="1384"/>
			<point x="832" y="1251" type="curve"/>
			<point x="754" y="1351" type="line"/>
			<point x="879" y="1030" type="line"/>
			<point x="895" y="1032" type="line"/>
			<point x="825" y="1479" type="line"/>
			<point x="820" y="1479" type="line"/>
			<point x="774" y="1382" type="line"/>
		</contour>
	</outline>
	<anchor name="UCtop" x="498" y="1430"/>
	<anchor name="bottom" x="531" y="0"/>
</glyph>
<glyph name="T" format="2">
	<unicode hex="0054"/>
	<advance width="1318"/>
	<outline>
		<contour>
			<point x="618" y="1416" type="line"/>
			<point x="618" y="40" type="line"/>
			<point x="434" y="12" type="line"/>
			<point x="434" y="0" type="line"/>
			<point x="882" y="0" type="line"/>
			<point x="882" y="12" type="line"/>
			<point x="699" y="40" type="line"/>
			<point x="699" y="1416" type="line"/>
		</contour>
		<contour>
			<point x="1190" y="1400" type="line"/>
			<point x="1147" y="1419" type="line"/>
			<point x="1258" y="1048" type="line"/>
			<point x="1276" y="1051" type="line"/>
			<point x="1226" y="1498" type="line"/>
			<point x="1220" y="1498" type="line"/>
			<point x="1146" y="1422" type="line"/>
			<point x="1164" y="1430" type="line"/>
			<point x="154" y="1430" type="line"/>
			<point x="172" y="1422" type="line"/>
			<point x="98" y="1498" type="line"/>
			<point x="92" y="1498" type="line"/>
			<point x="42" y="1051" type="line"/>
			<point x="60" y="1048" type="line"/>
			<point x="171" y="1419" type="line"/>
			<point x="128" y="1400" type="line"/>
		</contour>
	</outline>
	<anchor name="UCtop" x="659" y="1430"/>
	<anchor name="bottom" x="659" y="0"/>
</glyph>
<glyph name="U" format="2">
  <advance width="1507.0"/>
  <unicode hex="0055"/>
  <anchor x="790.0" y="1430.0" name="UCtop"/>
  <anchor x="938.0" y="0" name="right"/>
  <anchor x="790.0" y="0" name="bottom"/>
  <anchor x="1358.0" y="1428.0" name="horn"/>
  <outline>
    <contour>
      <point x="1258.0" y="549.0" type="line" smooth="yes"/>
      <point x="1258.0" y="197.0"/>
      <point x="1094.0" y="27.0"/>
      <point x="774.0" y="27.0" type="curve" smooth="yes"/>
      <point x="458.0" y="27.0"/>
      <point x="298.0" y="229.0"/>
      <point x="298.0" y="583.0" type="curve" smooth="yes"/>
      <point x="298.0" y="1390.0" type="line"/>
      <point x="481.0" y="1418.0" type="line"/>
      <point x="481.0" y="1430.0" type="line"/>
      <point x="33.0" y="1430.0" type="line"/>
      <point x="33.0" y="1418.0" type="line"/>
      <point x="217.0" y="1390.0" type="line"/>
      <point x="217.0" y="578.0" type="line" smooth="yes"/>
      <point x="217.0" y="172.0"/>
      <point x="411.0" y="-21.0"/>
      <point x="757.0" y="-21.0" type="curve" smooth="yes"/>
      <point x="1087.0" y="-21.0"/>
      <point x="1288.0" y="156.0"/>
      <point x="1288.0" y="549.0" type="curve" smooth="yes"/>
      <point x="1288.0" y="1390.0" type="line"/>
      <point x="1471.0" y="1418.0" type="line"/>
      <point x="1471.0" y="1430.0" type="line"/>
      <point x="1072.0" y="1430.0" type="line"/>
      <point x="1072.0" y="1418.0" type="line"/>
      <point x="1258.0" y="1390.0" type="line"/>
    </contour>
  </outline>
</glyph>
<glyph name="V" format="2">
	<unicode hex="0056"/>
	<advance width="1399"/>
	<outline>
		<contour>
			<point x="162" y="1386" type="line"/>
			<point x="698" y="-21" type="line"/>
			<point x="720" y="-21" type="line"/>
			<point x="1229" y="1386" type="line"/>
			<point x="1414" y="1414" type="line"/>
			<point x="1414" y="1430" type="line"/>
			<point x="1010" y="1430" type="line"/>
			<point x="1010" y="1414" type="line"/>
			<point x="1194" y="1386" type="line"/>
			<point x="724" y="80" type="line"/>
			<point x="735" y="80" type="line"/>
			<point x="243" y="1386" type="line"/>
			<point x="427" y="1414" type="line"/>
			<point x="427" y="1430" type="line"/>
			<point x="-22" y="1430" type="line"/>
			<point x="-22" y="1414" type="line"/>
		</contour>
	</outline>
	<anchor name="UCtop" x="742" y="1430"/>
	<anchor name="bottom" x="716" y="0"/>
</glyph>
<glyph name="W" format="2">
	<unicode hex="0057"/>
	<advance width="1980"/>
	<outline>
		<contour>
			<point x="1004" y="1350" type="line"/>
			<point x="982" y="1350" type="line"/>
			<point x="1453" y="-20" type="line"/>
			<point x="1475" y="-20" type="line"/>
			<point x="1808" y="1387" type="line"/>
			<point x="1993" y="1415" type="line"/>
			<point x="1993" y="1430" type="line"/>
			<point x="1588" y="1430" type="line"/>
			<point x="1588" y="1415" type="line"/>
			<point x="1772" y="1387" type="line"/>
			<point x="1473" y="97" type="line"/>
			<point x="1491" y="97" type="line"/>
			<point x="1027" y="1451" type="line"/>
			<point x="1006" y="1451" type="line"/>
			<point x="530" y="93" type="line"/>
			<point x="548" y="93" type="line"/>
			<point x="250" y="1387" type="line"/>
			<point x="433" y="1415" type="line"/>
			<point x="433" y="1430" type="line"/>
			<point x="-12" y="1430" type="line"/>
			<point x="-12" y="1415" type="line"/>
			<point x="172" y="1387" type="line"/>
			<point x="502" y="-20" type="line"/>
			<point x="524" y="-20" type="line"/>
		</contour>
	</outline>
	<anchor name="UCtop" x="1000" y="1430"/>
	<anchor name="bottom" x="990" y="0"/>
</glyph>
<glyph name="X" format="2">
	<unicode hex="0058"/>
	<advance width="1421"/>
	<outline>
		<contour>
			<point x="713" y="728" type="line"/>
			<point x="724" y="728" type="line"/>
			<point x="1213" y="1386" type="line"/>
			<point x="1387" y="1418" type="line"/>
			<point x="1387" y="1430" type="line"/>
			<point x="992" y="1430" type="line"/>
			<point x="992" y="1418" type="line"/>
			<point x="1175" y="1386" type="line"/>
			<point x="709" y="760" type="line"/>
			<point x="698" y="760" type="line"/>
			<point x="167" y="44" type="line"/>
			<point x="-7" y="12" type="line"/>
			<point x="-7" y="0" type="line"/>
			<point x="389" y="0" type="line"/>
			<point x="389" y="12" type="line"/>
			<point x="205" y="44" type="line"/>
		</contour>
		<contour>
			<point x="1165" y="44" type="line"/>
			<point x="981" y="12" type="line"/>
			<point x="981" y="0" type="line"/>
			<point x="1425" y="0" type="line"/>
			<point x="1425" y="12" type="line"/>
			<point x="1252" y="44" type="line"/>
			<point x="740" y="764" type="line"/>
			<point x="731" y="775" type="line"/>
			<point x="297" y="1386" type="line"/>
			<point x="481" y="1418" type="line"/>
			<point x="481" y="1430" type="line"/>
			<point x="37" y="1430" type="line"/>
			<point x="37" y="1418" type="line"/>
			<point x="210" y="1386" type="line"/>
			<point x="681" y="723" type="line"/>
			<point x="691" y="711" type="line"/>
		</contour>
	</outline>
	<anchor name="UCtop" x="739" y="1430"/>
	<anchor name="bottom" x="709" y="0"/>
</glyph>
<glyph name="Y" format="2">
	<unicode hex="0059"/>
	<advance width="1385"/>
	<outline>
		<contour>
			<point x="169" y="1390" type="line"/>
			<point x="673" y="622" type="line"/>
			<point x="673" y="40" type="line"/>
			<point x="489" y="12" type="line"/>
			<point x="489" y="0" type="line"/>
			<point x="937" y="0" type="line"/>
			<point x="937" y="12" type="line"/>
			<point x="754" y="40" type="line"/>
			<point x="754" y="624" type="line"/>
			<point x="1193" y="1390" type="line"/>
			<point x="1378" y="1418" type="line"/>
			<point x="1378" y="1430" type="line"/>
			<point x="976" y="1430" type="line"/>
			<point x="976" y="1418" type="line"/>
			<point x="1160" y="1390" type="line"/>
			<point x="735" y="644" type="line"/>
			<point x="751" y="645" type="line"/>
			<point x="268" y="1390" type="line"/>
			<point x="451" y="1418" type="line"/>
			<point x="451" y="1430" type="line"/>
			<point x="-15" y="1430" type="line"/>
			<point x="-15" y="1418" type="line"/>
		</contour>
	</outline>
	<anchor name="UCtop" x="721" y="1430"/>
	<anchor name="bottom" x="714" y="0"/>
</glyph>
<glyph name="Z" format="2">
	<unicode hex="005A"/>
	<advance width="1230"/>
	<outline>
		<contour>
			<point x="1095" y="1430" type="line"/>
			<point x="221" y="1430" type="line"/>
			<point x="150" y="1486" type="line"/>
			<point x="144" y="1486" type="line"/>
			<point x="64" y="1053" type="line"/>
			<point x="81" y="1050" type="line"/>
			<point x="225" y="1400" type="line"/>
			<point x="1043" y="1400" type="line"/>
			<point x="1002" y="1406" type="line"/>
			<point x="114" y="16" type="line"/>
			<point x="114" y="0" type="line"/>
			<point x="1038" y="0" type="line"/>
			<point x="1106" y="-41" type="line"/>
			<point x="1114" y="-41" type="line"/>
			<point x="1189" y="354" type="line"/>
			<point x="1172" y="358" type="line"/>
			<point x="1031" y="30" type="line"/>
			<point x="191" y="30" type="line"/>
			<point x="202" y="22" type="line"/>
			<point x="1095" y="1414" type="line"/>
		</contour>
	</outline>
	<anchor name="UCtop" x="637" y="1430"/>
	<anchor name="bottom" x="610" y="0"/>
</glyph>
<glyph name="bracketleft" format="2">
	<unicode hex="005B"/>
	<advance width="519"/>
	<outline>
		<contour>
			<point x="195" y="-208" type="line"/>
			<point x="492" y="-208" type="line"/>
			<point x="492" y="-188" type="line"/>
			<point x="264" y="-168" type="line"/>
			<point x="264" y="1425" type="line"/>
			<point x="492" y="1445" type="line"/>
			<point x="492" y="1465" type="line"/>
			<point x="195" y="1465" type="line"/>
		</contour>
	</outline>
</glyph>
<glyph name="backslash" format="2">
	<unicode hex="005C"/>
	<advance width="775"/>
	<outline>
		<contour>
			<point x="716" y="0" type="line"/>
			<point x="119" y="1430" type="line"/>
			<point x="57" y="1430" type="line"/>
			<point x="654" y="0" type="line"/>
		</contour>
	</outline>
</glyph>
<glyph name="bracketright" format="2">
	<unicode hex="005D"/>
	<advance width="519"/>
	<outline>
		<contour>
			<point x="324" y="1463" type="line"/>
			<point x="27" y="1463" type="line"/>
			<point x="27" y="1443" type="line"/>
			<point x="255" y="1423" type="line"/>
			<point x="255" y="-168" type="line"/>
			<point x="27" y="-188" type="line"/>
			<point x="27" y="-208" type="line"/>
			<point x="324" y="-208" type="line"/>
		</contour>
	</outline>
</glyph>
<glyph name="asciicircum" format="2">
	<unicode hex="005E"/>
	<advance width="1150"/>
	<outline>
		<contour>
			<point x="563" y="1398" type="line"/>
			<point x="906" y="662" type="line"/>
			<point x="954" y="662" type="line"/>
			<point x="592" y="1430" type="line"/>
			<point x="556" y="1430" type="line"/>
			<point x="196" y="662" type="line"/>
			<point x="244" y="662" type="line"/>
			<point x="583" y="1398" type="line"/>
		</contour>
	</outline>
</glyph>
<glyph name="a" format="2">
	<unicode hex="0061"/>
	<advance width="986"/>
	<outline>
		<contour>
			<point x="730" y="661" type="line"/>
			<point x="155" y="487"/>
			<point x="91" y="408"/>
			<point x="91" y="245" type="curve" smooth="yes"/>
			<point x="91" y="73"/>
			<point x="198" y="-20"/>
			<point x="377" y="-20" type="curve" smooth="yes"/>
			<point x="531" y="-20"/>
			<point x="667" y="73"/>
			<point x="703" y="269" type="curve"/>
			<point x="695" y="263" type="line"/>
			<point x="680" y="30"/>
			<point x="733" y="-18"/>
			<point x="838" y="-18" type="curve" smooth="yes"/>
			<point x="900" y="-18"/>
			<point x="947" y="15"/>
			<point x="998" y="60" type="curve"/>
			<point x="998" y="74" type="line"/>
			<point x="943" y="43"/>
			<point x="920" y="38"/>
			<point x="875" y="38" type="curve" smooth="yes"/>
			<point x="821" y="38"/>
			<point x="772" y="64"/>
			<point x="772" y="160" type="curve" smooth="yes"/>
			<point x="772" y="745" type="line" smooth="yes"/>
			<point x="772" y="924"/>
			<point x="710" y="1041"/>
			<point x="481" y="1041" type="curve" smooth="yes"/>
			<point x="343" y="1041"/>
			<point x="89" y="935"/>
			<point x="89" y="844" type="curve" smooth="yes"/>
			<point x="89" y="820"/>
			<point x="106" y="806"/>
			<point x="138" y="806" type="curve" smooth="yes"/>
			<point x="161" y="806"/>
			<point x="187" y="815"/>
			<point x="200" y="830" type="curve" smooth="yes"/>
			<point x="213" y="845"/>
			<point x="227" y="899"/>
			<point x="237" y="969" type="curve"/>
			<point x="172" y="933" type="line"/>
			<point x="275" y="977"/>
			<point x="358" y="998"/>
			<point x="448" y="998" type="curve" smooth="yes"/>
			<point x="626" y="998"/>
			<point x="695" y="899"/>
			<point x="695" y="735" type="curve" smooth="yes"/>
			<point x="695" y="301" type="line" smooth="yes"/>
			<point x="695" y="138"/>
			<point x="553" y="33"/>
			<point x="394" y="33" type="curve" smooth="yes"/>
			<point x="258" y="33"/>
			<point x="173" y="120"/>
			<point x="173" y="251" type="curve" smooth="yes"/>
			<point x="173" y="385"/>
			<point x="220" y="478"/>
			<point x="730" y="637" type="curve"/>
		</contour>
	</outline>
	<anchor name="top" x="430" y="1024"/>
	<anchor name="right" x="998" y="0"/>
	<anchor name="bottom" x="463" y="0"/>
</glyph>
<glyph name="b" format="2">
	<unicode hex="0062"/>
	<advance width="1097"/>
	<outline>
		<contour>
			<point x="165" y="132" type="line"/>
			<point x="243" y="26"/>
			<point x="365" y="-20"/>
			<point x="508" y="-20" type="curve" smooth="yes"/>
			<point x="779" y="-20"/>
			<point x="1018" y="195"/>
			<point x="1018" y="565" type="curve" smooth="yes"/>
			<point x="1018" y="864"/>
			<point x="860" y="1044"/>
			<point x="600" y="1044" type="curve" smooth="yes"/>
			<point x="508" y="1044"/>
			<point x="400" y="1005"/>
			<point x="161" y="843" type="curve"/>
			<point x="173" y="841" type="line"/>
			<point x="377" y="952"/>
			<point x="460" y="976"/>
			<point x="564" y="976" type="curve" smooth="yes"/>
			<point x="787" y="976"/>
			<point x="937" y="806"/>
			<point x="937" y="520" type="curve" smooth="yes"/>
			<point x="937" y="224"/>
			<point x="774" y="5"/>
			<point x="511" y="5" type="curve" smooth="yes"/>
			<point x="314" y="5"/>
			<point x="229" y="133"/>
			<point x="229" y="249" type="curve" smooth="yes"/>
			<point x="229" y="1377" type="line"/>
			<point x="229" y="1484" type="line"/>
			<point x="221" y="1484" type="line"/>
			<point x="-42" y="1436" type="line"/>
			<point x="-42" y="1421" type="line"/>
			<point x="36" y="1403.3092783505"/>
			<point x="126" y="1382.8969072165"/>
			<point x="152" y="1377" type="curve"/>
			<point x="152" y="176" type="line"/>
			<point x="118" y="-39" type="line"/>
			<point x="127" y="-39" type="line"/>
			<point x="222" y="131" type="line"/>
		</contour>
	</outline>
	<anchor name="UCtop" x="588" y="1430"/>
	<anchor name="bottom" x="558" y="0"/>
</glyph>
<glyph name="c" format="2">
	<unicode hex="0063"/>
	<advance width="934"/>
	<outline>
		<contour>
			<point x="583" y="1044" type="curve" smooth="yes"/>
			<point x="266" y="1044"/>
			<point x="80" y="811"/>
			<point x="80" y="478" type="curve" smooth="yes"/>
			<point x="80" y="153"/>
			<point x="252" y="-20"/>
			<point x="517" y="-20" type="curve" smooth="yes"/>
			<point x="661" y="-20"/>
			<point x="747" y="37"/>
			<point x="900" y="222" type="curve"/>
			<point x="890" y="231" type="line"/>
			<point x="754" y="88"/>
			<point x="663" y="48"/>
			<point x="536" y="48" type="curve" smooth="yes"/>
			<point x="292" y="48"/>
			<point x="152" y="230"/>
			<point x="152" y="529" type="curve" smooth="yes"/>
			<point x="152" y="830"/>
			<point x="289" y="1007"/>
			<point x="526" y="1007" type="curve" smooth="yes"/>
			<point x="684" y="1007"/>
			<point x="775" y="857"/>
			<point x="802" y="857" type="curve" smooth="yes"/>
			<point x="831" y="857"/>
			<point x="854" y="884"/>
			<point x="854" y="913" type="curve" smooth="yes"/>
			<point x="854" y="978"/>
			<point x="762" y="1044"/>
		</contour>
	</outline>
	<anchor name="top" x="513" y="1024"/>
	<anchor name="right" x="743" y="0"/>
	<anchor name="bottom" x="530" y="0"/>
</glyph>
<glyph name="d" format="2">
	<unicode hex="0064"/>
	<advance width="1131"/>
	<outline>
		<contour>
			<point x="868" y="886" type="curve" smooth="yes"/>
			<point x="868" y="146" type="line"/>
			<point x="868" y="-31" type="line"/>
			<point x="877" y="-31" type="line"/>
			<point x="1140" y="23" type="line"/>
			<point x="1140" y="34" type="line"/>
			<point x="1098" y="38.9538461538"/>
			<point x="969" y="54.1692307692"/>
			<point x="945" y="57" type="curve"/>
			<point x="945" y="1383" type="line"/>
			<point x="957" y="1484" type="line"/>
			<point x="949" y="1484" type="line"/>
			<point x="674" y="1436" type="line"/>
			<point x="674" y="1421" type="line"/>
			<point x="731" y="1408.0721649485"/>
			<point x="844" y="1382.4432989691"/>
			<point x="868" y="1377" type="curve"/>
			<point x="868" y="990" type="line"/>
			<point x="911" y="990" type="line"/>
			<point x="838" y="1026"/>
			<point x="731" y="1044"/>
			<point x="637" y="1044" type="curve" smooth="yes"/>
			<point x="327" y="1044"/>
			<point x="79" y="839"/>
			<point x="79" y="481" type="curve" smooth="yes"/>
			<point x="79" y="153"/>
			<point x="252" y="-20"/>
			<point x="522" y="-20" type="curve" smooth="yes"/>
			<point x="614" y="-20"/>
			<point x="720" y="1"/>
			<point x="936" y="201" type="curve"/>
			<point x="924" y="203" type="line"/>
			<point x="792" y="81"/>
			<point x="666" y="47"/>
			<point x="552" y="47" type="curve" smooth="yes"/>
			<point x="286" y="47"/>
			<point x="160" y="241"/>
			<point x="160" y="516" type="curve" smooth="yes"/>
			<point x="160" y="810"/>
			<point x="338" y="1019"/>
			<point x="622" y="1019" type="curve" smooth="yes"/>
			<point x="770" y="1019"/>
			<point x="868" y="957"/>
		</contour>
	</outline>
	<anchor name="UCtop" x="521" y="1430"/>
	<anchor name="right" x="945" y="1430"/>
	<anchor name="bottom" x="609" y="0"/>
	<anchor name="center" x="820" y="1211"/>
</glyph>
<glyph name="e" format="2">
	<unicode hex="0065"/>
	<advance width="967"/>
	<outline>
		<contour>
			<point x="542" y="1044" type="curve" smooth="yes"/>
			<point x="248" y="1044"/>
			<point x="80" y="794"/>
			<point x="80" y="503" type="curve" smooth="yes"/>
			<point x="80" y="153"/>
			<point x="254" y="-20"/>
			<point x="529" y="-20" type="curve" smooth="yes"/>
			<point x="679" y="-20"/>
			<point x="776" y="40"/>
			<point x="919" y="222" type="curve"/>
			<point x="908" y="231" type="line"/>
			<point x="777" y="88"/>
			<point x="687" y="48"/>
			<point x="548" y="48" type="curve" smooth="yes"/>
			<point x="295" y="48"/>
			<point x="152" y="226"/>
			<point x="152" y="564" type="curve" smooth="yes"/>
			<point x="152" y="833"/>
			<point x="259" y="1011"/>
			<point x="522" y="1011" type="curve" smooth="yes"/>
			<point x="686" y="1011"/>
			<point x="783" y="903"/>
			<point x="805" y="700" type="curve"/>
			<point x="822" y="715" type="line"/>
			<point x="140" y="715" type="line"/>
			<point x="140" y="691" type="line"/>
			<point x="885" y="691" type="line"/>
			<point x="876" y="890"/>
			<point x="758" y="1044"/>
		</contour>
	</outline>
	<anchor name="top" x="509" y="1024"/>
	<anchor name="right" x="919" y="0"/>
	<anchor name="bottom" x="529" y="0"/>
</glyph>
<glyph name="f" format="2">
	<unicode hex="0066"/>
	<advance width="681"/>
	<outline>
		<contour>
			<point x="294" y="968" type="line"/>
			<point x="673" y="968" type="line"/>
			<point x="683" y="1024" type="line"/>
			<point x="264" y="1024" type="line"/>
			<point x="257" y="1028" type="line"/>
			<point x="12" y="998" type="line"/>
			<point x="12" y="984" type="line"/>
			<point x="246" y="964" type="line"/>
		</contour>
		<contour>
			<point x="309" y="28" type="line"/>
			<point x="309" y="1113" type="line" smooth="yes"/>
			<point x="309" y="1325"/>
			<point x="409" y="1450"/>
			<point x="574" y="1450" type="curve" smooth="yes"/>
			<point x="702" y="1450"/>
			<point x="775" y="1347"/>
			<point x="783" y="1347" type="curve" smooth="yes"/>
			<point x="818" y="1347"/>
			<point x="836" y="1374"/>
			<point x="836" y="1400" type="curve" smooth="yes"/>
			<point x="836" y="1455"/>
			<point x="758" y="1484"/>
			<point x="651" y="1484" type="curve" smooth="yes"/>
			<point x="426" y="1484"/>
			<point x="232" y="1346"/>
			<point x="232" y="1042" type="curve" smooth="yes"/>
			<point x="232" y="28" type="line"/>
			<point x="83" y="10" type="line"/>
			<point x="83" y="0" type="line"/>
			<point x="474" y="0" type="line"/>
			<point x="474" y="10" type="line"/>
		</contour>
	</outline>
	<anchor name="UCtop" x="554" y="1430"/>
	<anchor name="bottom" x="271" y="0"/>
</glyph>
<glyph name="g" format="2">
	<unicode hex="0067"/>
	<advance width="920"/>
	<outline>
		<contour>
			<point x="408" y="-465" type="curve" smooth="yes"/>
			<point x="733" y="-465"/>
			<point x="946" y="-343"/>
			<point x="946" y="-159" type="curve" smooth="yes"/>
			<point x="946" y="-35"/>
			<point x="852" y="46"/>
			<point x="545" y="81" type="curve" smooth="yes"/>
			<point x="238" y="116"/>
			<point x="192" y="163"/>
			<point x="192" y="241" type="curve" smooth="yes"/>
			<point x="192" y="298"/>
			<point x="231" y="347"/>
			<point x="357" y="374" type="curve"/>
			<point x="348" y="386" type="line"/>
			<point x="197" y="350"/>
			<point x="127" y="291"/>
			<point x="127" y="205" type="curve" smooth="yes"/>
			<point x="127" y="110"/>
			<point x="199" y="41"/>
			<point x="495" y="9" type="curve" smooth="yes"/>
			<point x="791" y="-23"/>
			<point x="882" y="-87"/>
			<point x="882" y="-185" type="curve" smooth="yes"/>
			<point x="882" y="-342"/>
			<point x="696" y="-440"/>
			<point x="410" y="-440" type="curve" smooth="yes"/>
			<point x="185" y="-440"/>
			<point x="71" y="-359"/>
			<point x="71" y="-225" type="curve" smooth="yes"/>
			<point x="71" y="-102"/>
			<point x="170" y="-21"/>
			<point x="417" y="23" type="curve"/>
			<point x="460" y="53" type="line"/>
			<point x="377" y="33" type="line"/>
			<point x="138" y="-14"/>
			<point x="-1" y="-108"/>
			<point x="-1" y="-245" type="curve" smooth="yes"/>
			<point x="-1" y="-382"/>
			<point x="156" y="-465"/>
		</contour>
		<contour>
			<point x="432" y="364" type="curve" smooth="yes"/>
			<point x="629" y="364"/>
			<point x="775" y="510"/>
			<point x="775" y="718" type="curve" smooth="yes"/>
			<point x="775" y="912"/>
			<point x="618" y="1044"/>
			<point x="420" y="1044" type="curve" smooth="yes"/>
			<point x="223" y="1044"/>
			<point x="77" y="898"/>
			<point x="77" y="690" type="curve" smooth="yes"/>
			<point x="77" y="496"/>
			<point x="234" y="364"/>
		</contour>
		<contour>
			<point x="438" y="383" type="curve" smooth="yes"/>
			<point x="274" y="383"/>
			<point x="160" y="506"/>
			<point x="160" y="705" type="curve" smooth="yes"/>
			<point x="160" y="923"/>
			<point x="277" y="1025"/>
			<point x="414" y="1025" type="curve" smooth="yes"/>
			<point x="578" y="1025"/>
			<point x="692" y="902"/>
			<point x="692" y="703" type="curve" smooth="yes"/>
			<point x="692" y="485"/>
			<point x="573" y="383"/>
		</contour>
		<contour>
			<point x="501" y="1021" type="line"/>
			<point x="776" y="1009"/>
			<point x="787" y="961"/>
			<point x="843" y="961" type="curve" smooth="yes"/>
			<point x="886" y="961"/>
			<point x="912" y="988"/>
			<point x="912" y="1031" type="curve" smooth="yes"/>
			<point x="912" y="1050"/>
			<point x="904" y="1059"/>
			<point x="886" y="1059" type="curve" smooth="yes"/>
			<point x="821" y="1059"/>
			<point x="745" y="1011"/>
			<point x="472" y="1041" type="curve"/>
		</contour>
	</outline>
	<anchor name="top" x="423" y="1024"/>
	<anchor name="bottom" x="455" y="-445"/>
</glyph>
<glyph name="h" format="2">
  <advance width="1109.0"/>
  <unicode hex="0068"/>
  <anchor x="552.0" y="1430.0" name="UCtop"/>
  <anchor x="550.0" y="0" name="bottom"/>
  <anchor x="302.0" y="1211" name="center"/>
  <outline>
    <contour>
      <point x="711.0" y="10.0" type="line"/>
      <point x="711.0" y="0.0" type="line"/>
      <point x="1080.0" y="0.0" type="line"/>
      <point x="1080.0" y="10.0" type="line"/>
      <point x="934.0" y="28.0" type="line"/>
      <point x="934.0" y="715.0" type="line" smooth="yes"/>
      <point x="934.0" y="955.0"/>
      <point x="856.0" y="1044.0"/>
      <point x="645.0" y="1044.0" type="curve" smooth="yes"/>
      <point x="527.0" y="1044.0"/>
      <point x="432.0" y="1016.0"/>
      <point x="239.0" y="890.0" type="curve"/>
      <point x="239.0" y="875.0" type="line"/>
      <point x="334.0" y="938.0"/>
      <point x="479.0" y="982.0"/>
      <point x="607.0" y="982.0" type="curve" smooth="yes"/>
      <point x="792.0" y="982.0"/>
      <point x="857.0" y="916.0"/>
      <point x="857.0" y="679.0" type="curve" smooth="yes"/>
      <point x="857.0" y="28.0" type="line"/>
    </contour>
    <contour>
      <point x="399.0" y="0.0" type="line"/>
      <point x="399.0" y="10.0" type="line"/>
      <point x="254.0" y="28.0" type="line"/>
      <point x="254.0" y="1377.0" type="line"/>
      <point x="254.0" y="1484.0" type="line"/>
      <point x="246.0" y="1484.0" type="line"/>
      <point x="-17.0" y="1436.0" type="line"/>
      <point x="-17.0" y="1421.0" type="line"/>
      <point x="61.0" y="1403.3092783505156"/>
      <point x="151.0" y="1382.8969072164948"/>
      <point x="177.0" y="1377.0" type="curve"/>
      <point x="177.0" y="28.0" type="line"/>
      <point x="28.0" y="10.0" type="line"/>
      <point x="28.0" y="0.0" type="line"/>
    </contour>
  </outline>
</glyph>
<glyph name="i" format="2">
	<unicode hex="0069"/>
	<advance width="454"/>
	<outline>
		<contour>
			<point x="228" y="1334" type="curve" smooth="yes"/>
			<point x="275" y="1334"/>
			<point x="303" y="1370"/>
			<point x="303" y="1409" type="curve" smooth="yes"/>
			<point x="303" y="1448"/>
			<point x="275" y="1484"/>
			<point x="228" y="1484" type="curve" smooth="yes"/>
			<point x="181" y="1484"/>
			<point x="153" y="1448"/>
			<point x="153" y="1409" type="curve" smooth="yes"/>
			<point x="153" y="1370"/>
			<point x="181" y="1334"/>
		</contour>
		<contour>
			<point x="275" y="1055" type="line"/>
			<point x="267" y="1055" type="line"/>
			<point x="34" y="1027" type="line"/>
			<point x="34" y="1012" type="line"/>
			<point x="95" y="999.3536585366"/>
			<point x="176" y="982.5609756098"/>
			<point x="198" y="978" type="curve"/>
			<point x="198" y="28" type="line"/>
			<point x="49" y="10" type="line"/>
			<point x="49" y="0" type="line"/>
			<point x="420" y="0" type="line"/>
			<point x="420" y="10" type="line"/>
			<point x="275" y="28" type="line"/>
			<point x="275" y="984" type="line"/>
		</contour>
	</outline>
	<anchor name="top" x="237" y="1430"/>
	<anchor name="bottom" x="237" y="0"/>
	<anchor name="right" x="365" y="0"/>
</glyph>
<glyph name="j" format="2">
	<unicode hex="006A"/>
	<advance width="415"/>
	<outline>
		<contour>
			<point x="220" y="1334" type="curve" smooth="yes"/>
			<point x="267" y="1334"/>
			<point x="295" y="1370"/>
			<point x="295" y="1409" type="curve" smooth="yes"/>
			<point x="295" y="1448"/>
			<point x="267" y="1484"/>
			<point x="220" y="1484" type="curve" smooth="yes"/>
			<point x="173" y="1484"/>
			<point x="145" y="1448"/>
			<point x="145" y="1409" type="curve" smooth="yes"/>
			<point x="145" y="1370"/>
			<point x="173" y="1334"/>
		</contour>
		<contour>
			<point x="190" y="978" type="curve"/>
			<point x="190" y="-109" type="line" smooth="yes"/>
			<point x="190" y="-232"/>
			<point x="178" y="-261"/>
			<point x="13" y="-454" type="curve"/>
			<point x="25" y="-465" type="line"/>
			<point x="261" y="-229"/>
			<point x="267" y="-193"/>
			<point x="267" y="-85" type="curve" smooth="yes"/>
			<point x="267" y="984" type="line"/>
			<point x="267" y="1055" type="line"/>
			<point x="259" y="1055" type="line"/>
			<point x="26" y="1027" type="line"/>
			<point x="26" y="1012" type="line"/>
			<point x="87" y="999.3536585366"/>
			<point x="168" y="982.5609756098"/>
		</contour>
	</outline>
	<anchor name="top" x="229" y="1430"/>
	<anchor name="bottom" x="181" y="-445"/>
</glyph>
<glyph name="k" format="2">
  <advance width="1060.0"/>
  <unicode hex="006B"/>
  <anchor x="536.0" y="1430.0" name="UCtop"/>
  <anchor x="532.0" y="0" name="bottom"/>
  <outline>
    <contour>
      <point x="310.0" y="568.0" type="line"/>
      <point x="873.0" y="996.0" type="line"/>
      <point x="1016.0" y="1014.0" type="line"/>
      <point x="1016.0" y="1024.0" type="line"/>
      <point x="679.0" y="1024.0" type="line"/>
      <point x="679.0" y="1014.0" type="line"/>
      <point x="830.0" y="996.0" type="line"/>
      <point x="267.0" y="567.0" type="line"/>
      <point x="214.0" y="567.0" type="line"/>
      <point x="214.0" y="538.0" type="line"/>
      <point x="268.0" y="538.0" type="line"/>
      <point x="849.0" y="26.0" type="line"/>
      <point x="716.0" y="10.0" type="line"/>
      <point x="716.0" y="0.0" type="line"/>
      <point x="1080.0" y="0.0" type="line"/>
      <point x="1080.0" y="10.0" type="line"/>
      <point x="958.0" y="26.0" type="line"/>
      <point x="319.0" y="593.0" type="line"/>
    </contour>
    <contour>
      <point x="254.0" y="28.0" type="line"/>
      <point x="254.0" y="1377.0" type="line"/>
      <point x="254.0" y="1484.0" type="line"/>
      <point x="246.0" y="1484.0" type="line"/>
      <point x="-17.0" y="1436.0" type="line"/>
      <point x="-17.0" y="1421.0" type="line"/>
      <point x="61.0" y="1403.3092783505156"/>
      <point x="151.0" y="1382.8969072164948"/>
      <point x="177.0" y="1377.0" type="curve"/>
      <point x="177.0" y="28.0" type="line"/>
      <point x="28.0" y="10.0" type="line"/>
      <point x="28.0" y="0.0" type="line"/>
      <point x="399.0" y="0.0" type="line"/>
      <point x="399.0" y="10.0" type="line"/>
    </contour>
  </outline>
</glyph>
<glyph name="l" format="2">
	<unicode hex="006C"/>
	<advance width="437"/>
	<outline>
		<contour>
			<point x="258" y="28" type="line"/>
			<point x="258" y="1377" type="line"/>
			<point x="258" y="1484" type="line"/>
			<point x="250" y="1484" type="line"/>
			<point x="-13" y="1436" type="line"/>
			<point x="-13" y="1421" type="line"/>
			<point x="65" y="1403.3092783505"/>
			<point x="155" y="1382.8969072165"/>
			<point x="181" y="1377" type="curve"/>
			<point x="181" y="28" type="line"/>
			<point x="32" y="10" type="line"/>
			<point x="32" y="0" type="line"/>
			<point x="403" y="0" type="line"/>
			<point x="403" y="10" type="line"/>
		</contour>
	</outline>
	<anchor name="UCtop" x="220" y="1430"/>
	<anchor name="right" x="258" y="1430"/>
	<anchor name="bottom" x="220" y="0"/>
	<anchor name="mid" x="553" y="582"/>
</glyph>
<glyph name="m" format="2">
	<unicode hex="006D"/>
	<advance width="1694"/>
	<outline>
		<contour>
			<point x="271" y="903" type="line"/>
			<point x="271" y="1055" type="line"/>
			<point x="263" y="1055" type="line"/>
			<point x="30" y="1027" type="line"/>
			<point x="30" y="1012" type="line"/>
			<point x="121" y="993.1341463415"/>
			<point x="172" y="982.5609756098"/>
			<point x="194" y="978" type="curve"/>
			<point x="194" y="28" type="line"/>
			<point x="45" y="10" type="line"/>
			<point x="45" y="0" type="line"/>
			<point x="416" y="0" type="line"/>
			<point x="416" y="10" type="line"/>
			<point x="271" y="28" type="line"/>
		</contour>
		<contour>
			<point x="895" y="772" type="line" smooth="yes"/>
			<point x="895" y="957"/>
			<point x="828" y="1044"/>
			<point x="629" y="1044" type="curve" smooth="yes"/>
			<point x="521" y="1044"/>
			<point x="433" y="1015"/>
			<point x="256" y="899" type="curve"/>
			<point x="256" y="885" type="line"/>
			<point x="342" y="942"/>
			<point x="475" y="982"/>
			<point x="590" y="982" type="curve" smooth="yes"/>
			<point x="764" y="982"/>
			<point x="818" y="915"/>
			<point x="818" y="737" type="curve" smooth="yes"/>
			<point x="818" y="28" type="line"/>
			<point x="672" y="10" type="line"/>
			<point x="672" y="0" type="line"/>
			<point x="1041" y="0" type="line"/>
			<point x="1041" y="10" type="line"/>
			<point x="895" y="28" type="line"/>
		</contour>
		<contour>
			<point x="1519" y="740" type="line" smooth="yes"/>
			<point x="1519" y="969"/>
			<point x="1444" y="1044"/>
			<point x="1243" y="1044" type="curve" smooth="yes"/>
			<point x="1130" y="1044"/>
			<point x="1039" y="1014"/>
			<point x="855" y="894" type="curve"/>
			<point x="860" y="881" type="line"/>
			<point x="948" y="941"/>
			<point x="1087" y="982"/>
			<point x="1206" y="982" type="curve" smooth="yes"/>
			<point x="1381" y="982"/>
			<point x="1442" y="930"/>
			<point x="1442" y="707" type="curve" smooth="yes"/>
			<point x="1442" y="28" type="line"/>
			<point x="1296" y="10" type="line"/>
			<point x="1296" y="0" type="line"/>
			<point x="1665" y="0" type="line"/>
			<point x="1665" y="10" type="line"/>
			<point x="1519" y="28" type="line"/>
		</contour>
	</outline>
	<anchor name="top" x="857" y="1024"/>
	<anchor name="bottom" x="857" y="0"/>
</glyph>
<glyph name="n" format="2">
	<unicode hex="006E"/>
	<advance width="1126"/>
	<outline>
		<contour>
			<point x="271" y="887" type="line"/>
			<point x="271" y="1055" type="line"/>
			<point x="263" y="1055" type="line"/>
			<point x="30" y="1027" type="line"/>
			<point x="30" y="1012" type="line"/>
			<point x="121" y="993.1341463415"/>
			<point x="172" y="982.5609756098"/>
			<point x="194" y="978" type="curve"/>
			<point x="194" y="28" type="line"/>
			<point x="45" y="10" type="line"/>
			<point x="45" y="0" type="line"/>
			<point x="416" y="0" type="line"/>
			<point x="416" y="10" type="line"/>
			<point x="271" y="28" type="line"/>
		</contour>
		<contour>
			<point x="728" y="10" type="line"/>
			<point x="728" y="0" type="line"/>
			<point x="1097" y="0" type="line"/>
			<point x="1097" y="10" type="line"/>
			<point x="951" y="28" type="line"/>
			<point x="951" y="715" type="line" smooth="yes"/>
			<point x="951" y="955"/>
			<point x="873" y="1044"/>
			<point x="662" y="1044" type="curve" smooth="yes"/>
			<point x="544" y="1044"/>
			<point x="449" y="1016"/>
			<point x="256" y="890" type="curve"/>
			<point x="256" y="875" type="line"/>
			<point x="351" y="938"/>
			<point x="496" y="982"/>
			<point x="624" y="982" type="curve" smooth="yes"/>
			<point x="809" y="982"/>
			<point x="874" y="916"/>
			<point x="874" y="679" type="curve" smooth="yes"/>
			<point x="874" y="28" type="line"/>
		</contour>
	</outline>
	<anchor name="top" x="574" y="1024"/>
	<anchor name="bottom" x="574" y="0"/>
</glyph>
<glyph name="o" format="2">
	<unicode hex="006F"/>
	<advance width="1112"/>
	<outline>
		<contour>
			<point x="556" y="4" type="curve" smooth="yes"/>
			<point x="323.2276214834" y="4"/>
			<point x="162" y="207"/>
			<point x="162" y="503" type="curve" smooth="yes"/>
			<point x="162" y="809"/>
			<point x="322.2199488491" y="1020"/>
			<point x="556" y="1020" type="curve" smooth="yes"/>
			<point x="788.7723785166" y="1020"/>
			<point x="950" y="817"/>
			<point x="950" y="521" type="curve" smooth="yes"/>
			<point x="950" y="215"/>
			<point x="789.7800511509" y="4"/>
		</contour>
		<contour>
			<point x="554" y="-20" type="curve" smooth="yes"/>
			<point x="825" y="-20"/>
			<point x="1034" y="186"/>
			<point x="1034" y="521" type="curve" smooth="yes"/>
			<point x="1034" y="846"/>
			<point x="813" y="1044"/>
			<point x="558" y="1044" type="curve" smooth="yes"/>
			<point x="287" y="1044"/>
			<point x="78" y="838"/>
			<point x="78" y="503" type="curve" smooth="yes"/>
			<point x="78" y="178"/>
			<point x="299" y="-20"/>
		</contour>
	</outline>
	<anchor name="top" x="556" y="1024"/>
	<anchor name="bottom" x="556" y="0"/>
	<anchor name="horn" x="754" y="1024"/>
	<anchor name="right" x="717" y="0"/>
</glyph>
<glyph name="p" format="2">
  <advance width="1133.0"/>
  <unicode hex="0070"/>
  <anchor x="589.0" y="1024.0" name="top"/>
  <anchor x="227.0" y="-445" name="bottom"/>
  <outline>
    <contour>
      <point x="973.0" y="520.0" type="curve" smooth="yes"/>
      <point x="973.0" y="224.0"/>
      <point x="810.0" y="5.0"/>
      <point x="547.0" y="5.0" type="curve" smooth="yes"/>
      <point x="350.0" y="5.0"/>
      <point x="265.0" y="133.0"/>
      <point x="265.0" y="249.0" type="curve"/>
      <point x="265.0" y="887.0" type="line"/>
      <point x="265.0" y="1055.0" type="line"/>
      <point x="257.0" y="1055.0" type="line"/>
      <point x="24.0" y="1027.0" type="line"/>
      <point x="24.0" y="1012.0" type="line"/>
      <point x="98.0" y="996.6585365853658"/>
      <point x="162.0" y="983.390243902439"/>
      <point x="188.0" y="978.0" type="curve"/>
      <point x="188.0" y="-417.0" type="line"/>
      <point x="39.0" y="-435.0" type="line"/>
      <point x="39.0" y="-445.0" type="line"/>
      <point x="410.0" y="-445.0" type="line"/>
      <point x="410.0" y="-435.0" type="line"/>
      <point x="265.0" y="-417.0" type="line"/>
      <point x="265.0" y="132.0" type="line"/>
      <point x="201.0" y="132.0" type="line"/>
      <point x="279.0" y="26.0"/>
      <point x="401.0" y="-20.0"/>
      <point x="544.0" y="-20.0" type="curve" smooth="yes"/>
      <point x="815.0" y="-20.0"/>
      <point x="1054.0" y="195.0"/>
      <point x="1054.0" y="565.0" type="curve" smooth="yes"/>
      <point x="1054.0" y="864.0"/>
      <point x="896.0" y="1044.0"/>
      <point x="636.0" y="1044.0" type="curve" smooth="yes"/>
      <point x="544.0" y="1044.0"/>
      <point x="436.0" y="1005.0"/>
      <point x="197.0" y="843.0" type="curve"/>
      <point x="209.0" y="841.0" type="line"/>
      <point x="413.0" y="952.0"/>
      <point x="496.0" y="976.0"/>
      <point x="600.0" y="976.0" type="curve" smooth="yes"/>
      <point x="823.0" y="976.0"/>
      <point x="973.0" y="806.0"/>
    </contour>
  </outline>
</glyph>
<glyph name="q" format="2">
	<unicode hex="0071"/>
	<advance width="1095"/>
	<outline>
		<contour>
			<point x="160" y="489" type="curve" smooth="yes"/>
			<point x="160" y="810"/>
			<point x="338" y="1019"/>
			<point x="622" y="1019" type="curve" smooth="yes"/>
			<point x="780" y="1019"/>
			<point x="868" y="965"/>
			<point x="868" y="873" type="curve" smooth="yes"/>
			<point x="868" y="-417" type="line"/>
			<point x="703" y="-435" type="line"/>
			<point x="703" y="-445" type="line"/>
			<point x="1094" y="-445" type="line"/>
			<point x="1094" y="-435" type="line"/>
			<point x="945" y="-417" type="line"/>
			<point x="945" y="886" type="line"/>
			<point x="979" y="1063" type="line"/>
			<point x="970" y="1063" type="line"/>
			<point x="867" y="947" type="line"/>
			<point x="932" y="990" type="line"/>
			<point x="857" y="1026"/>
			<point x="747" y="1044"/>
			<point x="643" y="1044" type="curve" smooth="yes"/>
			<point x="333" y="1044"/>
			<point x="79" y="829"/>
			<point x="79" y="471" type="curve" smooth="yes"/>
			<point x="79" y="143"/>
			<point x="252" y="-20"/>
			<point x="522" y="-20" type="curve" smooth="yes"/>
			<point x="614" y="-20"/>
			<point x="720" y="1"/>
			<point x="936" y="201" type="curve"/>
			<point x="924" y="203" type="line"/>
			<point x="792" y="81"/>
			<point x="666" y="47"/>
			<point x="552" y="47" type="curve" smooth="yes"/>
			<point x="286" y="47"/>
			<point x="160" y="241"/>
		</contour>
	</outline>
	<anchor name="top" x="570" y="1024"/>
	<anchor name="bottom" x="907" y="-445"/>
</glyph>
<glyph name="r" format="2">
	<unicode hex="0072"/>
	<advance width="675"/>
	<outline>
		<contour>
			<point x="609" y="1042" type="curve" smooth="yes"/>
			<point x="545" y="1042"/>
			<point x="482" y="1015"/>
			<point x="252" y="817" type="curve"/>
			<point x="252" y="803" type="line"/>
			<point x="387" y="916"/>
			<point x="431" y="937"/>
			<point x="507" y="937" type="curve" smooth="yes"/>
			<point x="557" y="937"/>
			<point x="565" y="925"/>
			<point x="601" y="925" type="curve" smooth="yes"/>
			<point x="638" y="925"/>
			<point x="664" y="949"/>
			<point x="664" y="987" type="curve" smooth="yes"/>
			<point x="664" y="1020"/>
			<point x="645" y="1042"/>
		</contour>
		<contour>
			<point x="271" y="825" type="line"/>
			<point x="271" y="1055" type="line"/>
			<point x="263" y="1055" type="line"/>
			<point x="30" y="1027" type="line"/>
			<point x="30" y="1012" type="line"/>
			<point x="104" y="996.6585365854"/>
			<point x="168" y="983.3902439024"/>
			<point x="194" y="978" type="curve"/>
			<point x="194" y="28" type="line"/>
			<point x="45" y="10" type="line"/>
			<point x="45" y="0" type="line"/>
			<point x="436" y="0" type="line"/>
			<point x="436" y="10" type="line"/>
			<point x="271" y="28" type="line"/>
		</contour>
	</outline>
	<anchor name="top" x="355" y="1024"/>
	<anchor name="bottom" x="233" y="0"/>
</glyph>
<glyph name="s" format="2">
	<unicode hex="0073"/>
	<advance width="786"/>
	<outline>
		<contour>
			<point x="427" y="1044" type="curve" smooth="yes"/>
			<point x="253" y="1044"/>
			<point x="113" y="942"/>
			<point x="113" y="783" type="curve" smooth="yes"/>
			<point x="113" y="658"/>
			<point x="168" y="577"/>
			<point x="380" y="503" type="curve" smooth="yes"/>
			<point x="592" y="429"/>
			<point x="645" y="367"/>
			<point x="645" y="245" type="curve" smooth="yes"/>
			<point x="645" y="111"/>
			<point x="548" y="8"/>
			<point x="390" y="8" type="curve" smooth="yes"/>
			<point x="295" y="8"/>
			<point x="218" y="39"/>
			<point x="178" y="79" type="curve"/>
			<point x="198" y="44" type="line"/>
			<point x="81" y="306" type="line"/>
			<point x="68" y="306" type="line"/>
			<point x="129" y="29" type="line"/>
			<point x="196" y="-5"/>
			<point x="274" y="-20"/>
			<point x="362" y="-20" type="curve" smooth="yes"/>
			<point x="567" y="-20"/>
			<point x="703" y="112"/>
			<point x="703" y="274" type="curve" smooth="yes"/>
			<point x="703" y="412"/>
			<point x="643" y="496"/>
			<point x="426" y="570" type="curve" smooth="yes"/>
			<point x="209" y="644"/>
			<point x="168" y="708"/>
			<point x="168" y="809" type="curve" smooth="yes"/>
			<point x="168" y="930"/>
			<point x="253" y="1019"/>
			<point x="417" y="1019" type="curve" smooth="yes"/>
			<point x="475" y="1019"/>
			<point x="529" y="996"/>
			<point x="576" y="951" type="curve"/>
			<point x="561" y="973" type="line"/>
			<point x="659" y="732" type="line"/>
			<point x="673" y="732" type="line"/>
			<point x="641" y="977" type="line"/>
			<point x="570" y="1023"/>
			<point x="504" y="1044"/>
		</contour>
	</outline>
	<anchor name="top" x="385" y="1024"/>
	<anchor name="bottom" x="405" y="0"/>
</glyph>
<glyph name="t" format="2">
	<unicode hex="0074"/>
	<advance width="632"/>
	<outline>
		<contour>
			<point x="251" y="220" type="curve" smooth="yes"/>
			<point x="251" y="987" type="line"/>
			<point x="251" y="1119" type="line"/>
			<point x="247" y="1119" type="line"/>
			<point x="115" y="1057"/>
			<point x="164" y="1080"/>
			<point x="38" y="1022" type="curve"/>
			<point x="38" y="1011" type="line"/>
			<point x="174" y="953" type="line"/>
			<point x="174" y="201" type="line" smooth="yes"/>
			<point x="174" y="62"/>
			<point x="261" y="-12"/>
			<point x="365" y="-12" type="curve" smooth="yes"/>
			<point x="445" y="-12"/>
			<point x="482" y="-3"/>
			<point x="647" y="69" type="curve"/>
			<point x="647" y="79" type="line"/>
			<point x="553" y="56"/>
			<point x="501" y="47"/>
			<point x="428" y="47" type="curve" smooth="yes"/>
			<point x="305" y="47"/>
			<point x="251" y="108"/>
		</contour>
		<contour>
			<point x="230" y="968" type="line"/>
			<point x="609" y="968" type="line"/>
			<point x="619" y="1024" type="line"/>
			<point x="230" y="1024" type="line"/>
		</contour>
	</outline>
	<anchor name="right" x="237" y="1505"/>
	<anchor name="bottom" x="372" y="0"/>
</glyph>
<glyph name="u" format="2">
	<unicode hex="0075"/>
	<advance width="1099"/>
	<outline>
		<contour>
			<point x="265" y="331" type="curve" smooth="yes"/>
			<point x="265" y="976" type="line"/>
			<point x="273" y="1044" type="line"/>
			<point x="-18" y="1024" type="line"/>
			<point x="-18" y="1008" type="line"/>
			<point x="188" y="970" type="line"/>
			<point x="188" y="295" type="line" smooth="yes"/>
			<point x="188" y="65"/>
			<point x="263" y="-20"/>
			<point x="465" y="-20" type="curve" smooth="yes"/>
			<point x="577" y="-20"/>
			<point x="668" y="7"/>
			<point x="853" y="127" type="curve"/>
			<point x="853" y="144" type="line"/>
			<point x="762" y="84"/>
			<point x="624" y="42"/>
			<point x="503" y="42" type="curve" smooth="yes"/>
			<point x="327" y="42"/>
			<point x="265" y="105"/>
		</contour>
		<contour>
			<point x="838" y="-31" type="line"/>
			<point x="847" y="-31" type="line"/>
			<point x="1110" y="23" type="line"/>
			<point x="1110" y="34" type="line"/>
			<point x="1068" y="38.9538461538"/>
			<point x="939" y="54.1692307692"/>
			<point x="915" y="57" type="curve"/>
			<point x="915" y="976" type="line"/>
			<point x="926" y="1044" type="line"/>
			<point x="633" y="1024" type="line"/>
			<point x="633" y="1008" type="line"/>
			<point x="838" y="970" type="line"/>
			<point x="838" y="126" type="line"/>
		</contour>
	</outline>
	<anchor name="top" x="531" y="1024"/>
	<anchor name="right" x="922" y="0"/>
	<anchor name="bottom" x="546" y="0"/>
	<anchor name="horn" x="915" y="1024"/>
</glyph>
<glyph name="v" format="2">
	<unicode hex="0076"/>
	<advance width="1122"/>
	<outline>
		<contour>
			<point x="969" y="997" type="line"/>
			<point x="1112" y="1014" type="line"/>
			<point x="1112" y="1024" type="line"/>
			<point x="794" y="1024" type="line"/>
			<point x="794" y="1014" type="line"/>
			<point x="935" y="996" type="line"/>
			<point x="575" y="22" type="line"/>
			<point x="607" y="75" type="line"/>
			<point x="205" y="997" type="line"/>
			<point x="353" y="1014" type="line"/>
			<point x="353" y="1024" type="line"/>
			<point x="-18" y="1024" type="line"/>
			<point x="-18" y="1014" type="line"/>
			<point x="123" y="996" type="line"/>
			<point x="575" y="-26" type="line"/>
			<point x="580" y="-26" type="line"/>
		</contour>
	</outline>
	<anchor name="top" x="571" y="1024"/>
	<anchor name="bottom" x="567" y="0"/>
</glyph>
<glyph name="w" format="2">
	<unicode hex="0077"/>
	<advance width="1595"/>
	<outline>
		<contour>
			<point x="1413" y="996" type="line"/>
			<point x="1154" y="22" type="line"/>
			<point x="1185" y="113" type="line"/>
			<point x="822" y="1044" type="line"/>
			<point x="817" y="1044" type="line"/>
			<point x="452" y="22" type="line"/>
			<point x="488" y="102" type="line"/>
			<point x="212" y="997" type="line"/>
			<point x="360" y="1014" type="line"/>
			<point x="360" y="1024" type="line"/>
			<point x="-10" y="1024" type="line"/>
			<point x="-10" y="1014" type="line"/>
			<point x="131" y="996" type="line"/>
			<point x="452" y="-26" type="line"/>
			<point x="457" y="-26" type="line"/>
			<point x="800" y="911" type="line"/>
			<point x="778" y="931" type="line"/>
			<point x="1157" y="-26" type="line"/>
			<point x="1162" y="-26" type="line"/>
			<point x="1447" y="997" type="line"/>
			<point x="1590" y="1014" type="line"/>
			<point x="1590" y="1024" type="line"/>
			<point x="1272" y="1024" type="line"/>
			<point x="1272" y="1014" type="line"/>
		</contour>
	</outline>
	<anchor name="top" x="820" y="1024"/>
	<anchor name="bottom" x="802" y="0"/>
</glyph>
<glyph name="x" format="2">
	<unicode hex="0078"/>
	<advance width="1066"/>
	<outline>
		<contour>
			<point x="930" y="28" type="line"/>
			<point x="560" y="558" type="line"/>
			<point x="555" y="565" type="line"/>
			<point x="253" y="997" type="line"/>
			<point x="401" y="1014" type="line"/>
			<point x="401" y="1024" type="line"/>
			<point x="20" y="1024" type="line"/>
			<point x="20" y="1014" type="line"/>
			<point x="161" y="996" type="line"/>
			<point x="505" y="504" type="line"/>
			<point x="510" y="497" type="line"/>
			<point x="838" y="27" type="line"/>
			<point x="690" y="10" type="line"/>
			<point x="690" y="0" type="line"/>
			<point x="1071" y="0" type="line"/>
			<point x="1071" y="10" type="line"/>
		</contour>
		<contour>
			<point x="527" y="510" type="line"/>
			<point x="550" y="531" type="line"/>
			<point x="899" y="997" type="line"/>
			<point x="1037" y="1014" type="line"/>
			<point x="1037" y="1024" type="line"/>
			<point x="721" y="1024" type="line"/>
			<point x="721" y="1014" type="line"/>
			<point x="862" y="996" type="line"/>
			<point x="533" y="545" type="line"/>
			<point x="511" y="525" type="line"/>
			<point x="139" y="27" type="line"/>
			<point x="1" y="10" type="line"/>
			<point x="1" y="0" type="line"/>
			<point x="317" y="0" type="line"/>
			<point x="317" y="10" type="line"/>
			<point x="176" y="28" type="line"/>
		</contour>
	</outline>
	<anchor name="top" x="546" y="1024"/>
	<anchor name="bottom" x="536" y="0"/>
</glyph>
<glyph name="y" format="2">
	<unicode hex="0079"/>
	<advance width="1122"/>
	<outline>
		<contour>
			<point x="635" y="76" type="line"/>
			<point x="212" y="997" type="line"/>
			<point x="360" y="1014" type="line"/>
			<point x="360" y="1024" type="line"/>
			<point x="-11" y="1024" type="line"/>
			<point x="-11" y="1014" type="line"/>
			<point x="130" y="996" type="line"/>
			<point x="605" y="-15" type="line"/>
		</contour>
		<contour>
			<point x="276" y="-465" type="curve" smooth="yes"/>
			<point x="397" y="-465"/>
			<point x="470" y="-402"/>
			<point x="537" y="-217" type="curve" smooth="yes"/>
			<point x="976" y="997" type="line"/>
			<point x="1119" y="1014" type="line"/>
			<point x="1119" y="1024" type="line"/>
			<point x="801" y="1024" type="line"/>
			<point x="801" y="1014" type="line"/>
			<point x="942" y="996" type="line"/>
			<point x="610" y="46" type="line"/>
			<point x="597" y="17" type="line"/>
			<point x="523" y="-183" type="line" smooth="yes"/>
			<point x="468" y="-331"/>
			<point x="397" y="-383"/>
			<point x="324" y="-383" type="curve" smooth="yes"/>
			<point x="269" y="-383"/>
			<point x="247" y="-358"/>
			<point x="226" y="-358" type="curve" smooth="yes"/>
			<point x="204" y="-358"/>
			<point x="186" y="-378"/>
			<point x="186" y="-405" type="curve" smooth="yes"/>
			<point x="186" y="-448"/>
			<point x="225" y="-465"/>
		</contour>
	</outline>
	<anchor name="top" x="574" y="1024"/>
	<anchor name="bottom" x="730" y="-164"/>
</glyph>
<glyph name="z" format="2">
	<unicode hex="007A"/>
	<advance width="896"/>
	<outline>
		<contour>
			<point x="63" y="0" type="line"/>
			<point x="786" y="0" type="line"/>
			<point x="861" y="335" type="line"/>
			<point x="837" y="335" type="line"/>
			<point x="689" y="22" type="line"/>
			<point x="716" y="28" type="line"/>
			<point x="105" y="28" type="line"/>
			<point x="142" y="6" type="line"/>
			<point x="817" y="1015" type="line"/>
			<point x="817" y="1024" type="line"/>
			<point x="175" y="1024" type="line"/>
			<point x="115" y="1076" type="line"/>
			<point x="106" y="1076" type="line"/>
			<point x="58" y="743" type="line"/>
			<point x="78" y="743" type="line"/>
			<point x="192" y="1010" type="line"/>
			<point x="131" y="996" type="line"/>
			<point x="768" y="996" type="line"/>
			<point x="737" y="1020" type="line"/>
			<point x="63" y="10" type="line"/>
		</contour>
	</outline>
	<anchor name="top" x="467" y="1024"/>
	<anchor name="bottom" x="459" y="0"/>
</glyph>
<glyph name="braceleft" format="2">
	<unicode hex="007B"/>
	<advance width="551"/>
	<outline>
		<contour>
			<point x="39" y="615" type="line"/>
			<point x="138" y="612" type="line" smooth="yes"/>
			<point x="232" y="609"/>
			<point x="270" y="534"/>
			<point x="270" y="448" type="curve" smooth="yes"/>
			<point x="270" y="281"/>
			<point x="207" y="180"/>
			<point x="207" y="60" type="curve" smooth="yes"/>
			<point x="207" y="-77"/>
			<point x="273" y="-200"/>
			<point x="435" y="-220" type="curve" smooth="yes"/>
			<point x="503" y="-228" type="line"/>
			<point x="507" y="-206" type="line"/>
			<point x="445" y="-198" type="line" smooth="yes"/>
			<point x="330" y="-183"/>
			<point x="280" y="-106"/>
			<point x="280" y="14" type="curve" smooth="yes"/>
			<point x="280" y="129"/>
			<point x="328" y="253"/>
			<point x="328" y="400" type="curve" smooth="yes"/>
			<point x="328" y="515"/>
			<point x="276" y="623"/>
			<point x="141" y="638" type="curve"/>
			<point x="141" y="618" type="line"/>
			<point x="276" y="633"/>
			<point x="328" y="741"/>
			<point x="328" y="856" type="curve" smooth="yes"/>
			<point x="328" y="1003"/>
			<point x="280" y="1127"/>
			<point x="280" y="1242" type="curve" smooth="yes"/>
			<point x="280" y="1362"/>
			<point x="330" y="1439"/>
			<point x="445" y="1454" type="curve" smooth="yes"/>
			<point x="507" y="1462" type="line"/>
			<point x="503" y="1484" type="line"/>
			<point x="435" y="1476" type="line" smooth="yes"/>
			<point x="273" y="1456"/>
			<point x="207" y="1333"/>
			<point x="207" y="1196" type="curve" smooth="yes"/>
			<point x="207" y="1076"/>
			<point x="270" y="975"/>
			<point x="270" y="808" type="curve" smooth="yes"/>
			<point x="270" y="722"/>
			<point x="232" y="647"/>
			<point x="138" y="644" type="curve" smooth="yes"/>
			<point x="39" y="641" type="line"/>
		</contour>
	</outline>
</glyph>
<glyph name="bar" format="2">
  <advance width="452"/>
  <unicode hex="007C"/>
  <outline>
    <contour>
      <point x="196.0" y="-465.0" type="line"/>
      <point x="256.0" y="-465.0" type="line"/>
      <point x="256.0" y="1535.0" type="line"/>
      <point x="196.0" y="1535.0" type="line"/>
    </contour>
  </outline>
</glyph>
<glyph name="braceright" format="2">
  <advance width="551.0"/>
  <unicode hex="007D"/>
  <guideline x="61.0" y="569" angle="0" identifier="31pk41viqJ"/>
  <guideline x="675.0" y="-228" angle="0" identifier="wGMXZgNoCj"/>
  <outline>
    <contour>
      <point x="512.0" y="641.0" type="line"/>
      <point x="413.0" y="644.0" type="line" smooth="yes"/>
      <point x="319.0" y="647.0"/>
      <point x="281.0" y="722.0"/>
      <point x="281.0" y="808.0" type="curve" smooth="yes"/>
      <point x="281.0" y="975.0"/>
      <point x="344.0" y="1076.0"/>
      <point x="344.0" y="1196.0" type="curve" smooth="yes"/>
      <point x="344.0" y="1333.0"/>
      <point x="278.0" y="1456.0"/>
      <point x="116.0" y="1476.0" type="curve" smooth="yes"/>
      <point x="48.0" y="1484.0" type="line"/>
      <point x="44.0" y="1462.0" type="line"/>
      <point x="106.0" y="1454.0" type="line" smooth="yes"/>
      <point x="221.0" y="1439.0"/>
      <point x="271.0" y="1362.0"/>
      <point x="271.0" y="1242.0" type="curve" smooth="yes"/>
      <point x="271.0" y="1127.0"/>
      <point x="223.0" y="1003.0"/>
      <point x="223.0" y="856.0" type="curve" smooth="yes"/>
      <point x="223.0" y="741.0"/>
      <point x="275.0" y="633.0"/>
      <point x="410.0" y="618.0" type="curve"/>
      <point x="410.0" y="638.0" type="line"/>
      <point x="275.0" y="623.0"/>
      <point x="223.0" y="515.0"/>
      <point x="223.0" y="400.0" type="curve" smooth="yes"/>
      <point x="223.0" y="253.0"/>
      <point x="271.0" y="129.0"/>
      <point x="271.0" y="14.0" type="curve" smooth="yes"/>
      <point x="271.0" y="-106.0"/>
      <point x="221.0" y="-183.0"/>
      <point x="106.0" y="-198.0" type="curve" smooth="yes"/>
      <point x="44.0" y="-206.0" type="line"/>
      <point x="48.0" y="-228.0" type="line"/>
      <point x="116.0" y="-220.0" type="line" smooth="yes"/>
      <point x="278.0" y="-200.0"/>
      <point x="344.0" y="-77.0"/>
      <point x="344.0" y="60.0" type="curve" smooth="yes"/>
      <point x="344.0" y="180.0"/>
      <point x="281.0" y="281.0"/>
      <point x="281.0" y="448.0" type="curve" smooth="yes"/>
      <point x="281.0" y="534.0"/>
      <point x="319.0" y="609.0"/>
      <point x="413.0" y="612.0" type="curve" smooth="yes"/>
      <point x="512.0" y="615.0" type="line"/>
    </contour>
  </outline>
</glyph>
<glyph name="asciitilde" format="2">
	<unicode hex="007E"/>
	<advance width="1150"/>
	<outline>
		<contour>
			<point x="162" y="396" type="curve"/>
			<point x="206" y="396" type="line"/>
			<point x="224" y="526"/>
			<point x="268" y="588"/>
			<point x="383" y="588" type="curve" smooth="yes"/>
			<point x="541" y="588"/>
			<point x="584" y="388"/>
			<point x="761" y="388" type="curve" smooth="yes"/>
			<point x="870" y="388"/>
			<point x="976" y="440"/>
			<point x="988" y="628" type="curve"/>
			<point x="944" y="628" type="line"/>
			<point x="926" y="498"/>
			<point x="882" y="436"/>
			<point x="767" y="436" type="curve" smooth="yes"/>
			<point x="609" y="436"/>
			<point x="566" y="636"/>
			<point x="389" y="636" type="curve" smooth="yes"/>
			<point x="280" y="636"/>
			<point x="174" y="584"/>
		</contour>
	</outline>
</glyph>
<glyph name="exclamdown" format="2">
	<unicode hex="00A1"/>
	<advance width="418"/>
	<outline>
		<contour>
			<point x="159" y="-387" type="line" smooth="yes"/>
			<point x="159" y="-410"/>
			<point x="184" y="-422"/>
			<point x="208" y="-422" type="curve" smooth="yes"/>
			<point x="233" y="-422"/>
			<point x="258" y="-410"/>
			<point x="258" y="-387" type="curve" smooth="yes"/>
			<point x="258" y="-357" type="line" smooth="yes"/>
			<point x="258" y="-326"/>
			<point x="225" y="307"/>
			<point x="222" y="628" type="curve"/>
			<point x="198" y="628" type="line"/>
			<point x="195" y="307"/>
			<point x="159" y="-329"/>
			<point x="159" y="-357" type="curve" smooth="yes"/>
		</contour>
		<contour>
			<point x="208" y="869" type="curve" smooth="yes"/>
			<point x="256" y="869"/>
			<point x="293" y="907"/>
			<point x="293" y="954" type="curve" smooth="yes"/>
			<point x="293" y="1001"/>
			<point x="256" y="1038"/>
			<point x="208" y="1038" type="curve" smooth="yes"/>
			<point x="160" y="1038"/>
			<point x="123" y="1001"/>
			<point x="123" y="954" type="curve" smooth="yes"/>
			<point x="123" y="907"/>
			<point x="160" y="869"/>
		</contour>
	</outline>
</glyph>
<glyph name="currency" format="2">
	<unicode hex="00A4"/>
	<advance width="936"/>
	<outline>
		<contour>
			<point x="158" y="853" type="line"/>
			<point x="127" y="822" type="line"/>
			<point x="261" y="688" type="line"/>
			<point x="292" y="719" type="line"/>
		</contour>
		<contour>
			<point x="127" y="202" type="line"/>
			<point x="158" y="171" type="line"/>
			<point x="295" y="308" type="line"/>
			<point x="264" y="339" type="line"/>
		</contour>
		<contour>
			<point x="468" y="800" type="curve" smooth="yes"/>
			<point x="300" y="800"/>
			<point x="180" y="680"/>
			<point x="180" y="512" type="curve" smooth="yes"/>
			<point x="180" y="344"/>
			<point x="300" y="224"/>
			<point x="468" y="224" type="curve" smooth="yes"/>
			<point x="636" y="224"/>
			<point x="756" y="344"/>
			<point x="756" y="512" type="curve" smooth="yes"/>
			<point x="756" y="680"/>
			<point x="636" y="800"/>
		</contour>
		<contour>
			<point x="468" y="268" type="curve" smooth="yes"/>
			<point x="329" y="268"/>
			<point x="227" y="366"/>
			<point x="227" y="512" type="curve" smooth="yes"/>
			<point x="227" y="658"/>
			<point x="329" y="756"/>
			<point x="468" y="756" type="curve" smooth="yes"/>
			<point x="607" y="756"/>
			<point x="709" y="658"/>
			<point x="709" y="512" type="curve" smooth="yes"/>
			<point x="709" y="366"/>
			<point x="607" y="268"/>
		</contour>
		<contour>
			<point x="809" y="822" type="line"/>
			<point x="778" y="853" type="line"/>
			<point x="644" y="719" type="line"/>
			<point x="675" y="688" type="line"/>
		</contour>
		<contour>
			<point x="809" y="202" type="line"/>
			<point x="672" y="339" type="line"/>
			<point x="641" y="308" type="line"/>
			<point x="778" y="171" type="line"/>
		</contour>
	</outline>
</glyph>
<glyph name="brokenbar" format="2">
	<unicode hex="00A6"/>
	<advance width="452"/>
	<outline>
		<contour>
			<point x="256" y="725" type="line"/>
			<point x="256" y="1535" type="line"/>
			<point x="196" y="1535" type="line"/>
			<point x="196" y="725" type="line"/>
		</contour>
		<contour>
			<point x="196" y="-465" type="line"/>
			<point x="256" y="-465" type="line"/>
			<point x="256" y="345" type="line"/>
			<point x="196" y="345" type="line"/>
		</contour>
	</outline>
</glyph>
<glyph name="section" format="2">
	<unicode hex="00A7"/>
	<advance width="1011"/>
	<outline>
		<contour>
			<point x="426" y="-218" type="curve" smooth="yes"/>
			<point x="651" y="-218"/>
			<point x="814" y="-86"/>
			<point x="814" y="94" type="curve" smooth="yes"/>
			<point x="814" y="501"/>
			<point x="147" y="341"/>
			<point x="147" y="695" type="curve" smooth="yes"/>
			<point x="147" y="808"/>
			<point x="220.5050388851" y="907.3544506206"/>
			<point x="366" y="945" type="curve"/>
			<point x="346" y="957" type="line"/>
			<point x="166" y="902"/>
			<point x="89" y="800"/>
			<point x="89" y="672" type="curve" smooth="yes"/>
			<point x="89" y="270"/>
			<point x="759" y="413"/>
			<point x="759" y="65" type="curve" smooth="yes"/>
			<point x="759" y="-99"/>
			<point x="625.9595015576" y="-197"/>
			<point x="433" y="-197" type="curve" smooth="yes"/>
			<point x="238" y="-197"/>
			<point x="202" y="-53"/>
			<point x="173" y="-53" type="curve" smooth="yes"/>
			<point x="144" y="-53"/>
			<point x="127" y="-74"/>
			<point x="127" y="-99" type="curve" smooth="yes"/>
			<point x="127" y="-155"/>
			<point x="223" y="-218"/>
		</contour>
		<contour>
			<point x="868" y="600" type="curve" smooth="yes"/>
			<point x="868" y="483"/>
			<point x="780.098933105" y="372.4958292968"/>
			<point x="627" y="348" type="curve"/>
			<point x="646" y="332" type="line"/>
			<point x="820" y="365"/>
			<point x="923" y="496"/>
			<point x="923" y="629" type="curve" smooth="yes"/>
			<point x="923" y="1029"/>
			<point x="261" y="882"/>
			<point x="261" y="1207" type="curve" smooth="yes"/>
			<point x="261" y="1336"/>
			<point x="364.5" y="1430"/>
			<point x="537" y="1430" type="curve" smooth="yes"/>
			<point x="744" y="1430"/>
			<point x="774" y="1265"/>
			<point x="806" y="1265" type="curve" smooth="yes"/>
			<point x="834" y="1265"/>
			<point x="851" y="1286"/>
			<point x="851" y="1311" type="curve" smooth="yes"/>
			<point x="851" y="1359"/>
			<point x="760" y="1450"/>
			<point x="555" y="1450" type="curve" smooth="yes"/>
			<point x="343" y="1450"/>
			<point x="204" y="1341"/>
			<point x="204" y="1173" type="curve" smooth="yes"/>
			<point x="204" y="797"/>
			<point x="868" y="954"/>
		</contour>
	</outline>
</glyph>
<glyph name="copyright" format="2">
  <advance width="1716"/>
  <unicode hex="00A9"/>
  <outline>
    <contour>
      <point x="857.0" y="1450.0" type="curve" smooth="yes"/>
      <point x="425.0" y="1450.0"/>
      <point x="116.0" y="1145.0"/>
      <point x="116.0" y="714.0" type="curve" smooth="yes"/>
      <point x="116.0" y="284.0"/>
      <point x="425.0" y="-20.0"/>
      <point x="857.0" y="-20.0" type="curve" smooth="yes"/>
      <point x="1290.0" y="-20.0"/>
      <point x="1600.0" y="284.0"/>
      <point x="1600.0" y="714.0" type="curve" smooth="yes"/>
      <point x="1600.0" y="1145.0"/>
      <point x="1290.0" y="1450.0"/>
    </contour>
    <contour>
      <point x="857.0" y="1413.0" type="curve" smooth="yes"/>
      <point x="1256.0" y="1413.0"/>
      <point x="1552.0" y="1124.0"/>
      <point x="1552.0" y="714.0" type="curve" smooth="yes"/>
      <point x="1552.0" y="304.0"/>
      <point x="1256.0" y="16.0"/>
      <point x="857.0" y="16.0" type="curve" smooth="yes"/>
      <point x="458.0" y="16.0"/>
      <point x="164.0" y="304.0"/>
      <point x="164.0" y="714.0" type="curve" smooth="yes"/>
      <point x="164.0" y="1124.0"/>
      <point x="458.0" y="1413.0"/>
    </contour>
    <contour>
      <point x="933.0" y="294.0" type="curve" smooth="yes"/>
      <point x="709.0" y="294.0"/>
      <point x="536.0" y="448.0"/>
      <point x="536.0" y="751.0" type="curve" smooth="yes"/>
      <point x="536.0" y="1004.0"/>
      <point x="680.0" y="1136.0"/>
      <point x="878.0" y="1136.0" type="curve" smooth="yes"/>
      <point x="970.0" y="1136.0"/>
      <point x="1050.0" y="1110.0"/>
      <point x="1135.0" y="1053.0" type="curve"/>
      <point x="1079.0" y="1113.0" type="line"/>
      <point x="1191.0" y="864.0" type="line"/>
      <point x="1208.0" y="867.0" type="line"/>
      <point x="1145.0" y="1185.0" type="line"/>
      <point x="1136.0" y="1185.0" type="line"/>
      <point x="1100.0" y="1122.0" type="line"/>
      <point x="1148.0" y="1122.0" type="line"/>
      <point x="1076.0" y="1153.0"/>
      <point x="1000.0" y="1167.0"/>
      <point x="923.0" y="1167.0" type="curve" smooth="yes"/>
      <point x="650.0" y="1167.0"/>
      <point x="455.0" y="985.0"/>
      <point x="455.0" y="719.0" type="curve" smooth="yes"/>
      <point x="455.0" y="431.0"/>
      <point x="660.0" y="271.0"/>
      <point x="926.0" y="271.0" type="curve" smooth="yes"/>
      <point x="1014.0" y="271.0"/>
      <point x="1106.0" y="290.0"/>
      <point x="1169.0" y="317.0" type="curve"/>
      <point x="1220.0" y="514.0" type="line"/>
      <point x="1203.0" y="514.0" type="line"/>
      <point x="1091.0" y="309.0" type="line"/>
      <point x="1147.0" y="348.0" type="line"/>
      <point x="1086.0" y="313.0"/>
      <point x="1007.0" y="294.0"/>
    </contour>
  </outline>
</glyph>
<glyph name="ordfeminine" format="2">
	<unicode hex="00AA"/>
	<advance width="836"/>
	<outline>
		<contour>
			<point x="136" y="577" type="line"/>
			<point x="708" y="577" type="line"/>
			<point x="708" y="622" type="line"/>
			<point x="136" y="622" type="line"/>
		</contour>
		<contour>
			<point x="561" y="1196" type="curve"/>
			<point x="561" y="1217" type="line"/>
			<point x="193" y="1108"/>
			<point x="152" y="1056"/>
			<point x="152" y="955" type="curve" smooth="yes"/>
			<point x="152" y="848"/>
			<point x="221" y="790"/>
			<point x="335" y="790" type="curve" smooth="yes"/>
			<point x="433" y="790"/>
			<point x="525" y="844"/>
			<point x="548" y="966" type="curve"/>
			<point x="538" y="966" type="line"/>
			<point x="529" y="821"/>
			<point x="562" y="791"/>
			<point x="630" y="791" type="curve" smooth="yes"/>
			<point x="666" y="791"/>
			<point x="699" y="809"/>
			<point x="731" y="837" type="curve"/>
			<point x="731" y="853" type="line"/>
			<point x="696" y="833"/>
			<point x="682" y="830"/>
			<point x="653" y="830" type="curve" smooth="yes"/>
			<point x="624" y="830"/>
			<point x="598" y="846"/>
			<point x="598" y="906" type="curve" smooth="yes"/>
			<point x="598" y="1266" type="line" smooth="yes"/>
			<point x="598" y="1377"/>
			<point x="555.6216216216" y="1450"/>
			<point x="402" y="1450" type="curve" smooth="yes"/>
			<point x="313" y="1450"/>
			<point x="151" y="1384"/>
			<point x="151" y="1327" type="curve" smooth="yes"/>
			<point x="151" y="1313"/>
			<point x="162" y="1301"/>
			<point x="183" y="1301" type="curve" smooth="yes"/>
			<point x="199" y="1301"/>
			<point x="217" y="1306"/>
			<point x="226" y="1317" type="curve" smooth="yes"/>
			<point x="235" y="1328"/>
			<point x="242" y="1353"/>
			<point x="249" y="1400" type="curve"/>
			<point x="204" y="1378" type="line"/>
			<point x="270" y="1405"/>
			<point x="323" y="1415"/>
			<point x="380" y="1415" type="curve" smooth="yes"/>
			<point x="494" y="1415"/>
			<point x="538" y="1354"/>
			<point x="538" y="1252" type="curve" smooth="yes"/>
			<point x="538" y="990" type="line" smooth="yes"/>
			<point x="538" y="888"/>
			<point x="452" y="823"/>
			<point x="354" y="823" type="curve" smooth="yes"/>
			<point x="270" y="823"/>
			<point x="217" y="877"/>
			<point x="217" y="959" type="curve" smooth="yes"/>
			<point x="217" y="1042"/>
			<point x="246" y="1097"/>
		</contour>
	</outline>
</glyph>
<glyph name="guillemotleft" format="2">
	<unicode hex="00AB"/>
	<advance width="845"/>
	<outline>
		<contour>
			<point x="139" y="570" type="line"/>
			<point x="139" y="474" type="line"/>
			<point x="449" y="918" type="line"/>
			<point x="435" y="930" type="line"/>
			<point x="61" y="527" type="line"/>
			<point x="61" y="517" type="line"/>
			<point x="435" y="114" type="line"/>
			<point x="449" y="126" type="line"/>
		</contour>
		<contour>
			<point x="449" y="570" type="line"/>
			<point x="449" y="474" type="line"/>
			<point x="759" y="918" type="line"/>
			<point x="745" y="930" type="line"/>
			<point x="371" y="527" type="line"/>
			<point x="371" y="517" type="line"/>
			<point x="745" y="114" type="line"/>
			<point x="759" y="126" type="line"/>
		</contour>
	</outline>
</glyph>
<glyph name="logicalnot" format="2">
	<unicode hex="00AC"/>
	<advance width="1150"/>
	<outline>
		<contour>
			<point x="165" y="731" type="line"/>
			<point x="165" y="687" type="line"/>
			<point x="987" y="687" type="line"/>
			<point x="987" y="731" type="line"/>
		</contour>
		<contour>
			<point x="987" y="704" type="line"/>
			<point x="943" y="704" type="line"/>
			<point x="943" y="268" type="line"/>
			<point x="987" y="268" type="line"/>
		</contour>
	</outline>
</glyph>
<glyph name="registered" format="2">
	<unicode hex="00AE"/>
	<advance width="1091"/>
	<outline>
		<contour>
			<point x="543" y="1450" type="curve" smooth="yes"/>
			<point x="293" y="1450"/>
			<point x="114" y="1273"/>
			<point x="114" y="1024" type="curve" smooth="yes"/>
			<point x="114" y="776"/>
			<point x="293" y="596"/>
			<point x="543" y="596" type="curve" smooth="yes"/>
			<point x="795" y="596"/>
			<point x="977" y="776"/>
			<point x="977" y="1024" type="curve" smooth="yes"/>
			<point x="977" y="1273"/>
			<point x="795" y="1450"/>
		</contour>
		<contour>
			<point x="543" y="1417" type="curve" smooth="yes"/>
			<point x="772" y="1417"/>
			<point x="937" y="1256"/>
			<point x="937" y="1024" type="curve" smooth="yes"/>
			<point x="937" y="794"/>
			<point x="772" y="630"/>
			<point x="543" y="630" type="curve" smooth="yes"/>
			<point x="316" y="630"/>
			<point x="154" y="794"/>
			<point x="154" y="1024" type="curve" smooth="yes"/>
			<point x="154" y="1256"/>
			<point x="316" y="1417"/>
		</contour>
		<contour>
			<point x="447" y="1049" type="line"/>
			<point x="447" y="1026" type="line"/>
			<point x="556" y="1026" type="line" smooth="yes"/>
			<point x="587" y="1026"/>
			<point x="602" y="1020"/>
			<point x="624" y="971" type="curve" smooth="yes"/>
			<point x="666" y="879" type="line" smooth="yes"/>
			<point x="694" y="818"/>
			<point x="698" y="814"/>
			<point x="777" y="817" type="curve"/>
			<point x="777" y="830" type="line"/>
			<point x="743" y="829"/>
			<point x="735" y="833"/>
			<point x="716" y="874" type="curve" smooth="yes"/>
			<point x="672" y="970" type="line" smooth="yes"/>
			<point x="648" y="1023"/>
			<point x="630" y="1039"/>
			<point x="578" y="1039" type="curve"/>
			<point x="578" y="1038" type="line"/>
			<point x="651" y="1045"/>
			<point x="692" y="1086"/>
			<point x="692" y="1141" type="curve" smooth="yes"/>
			<point x="692" y="1199"/>
			<point x="653" y="1244"/>
			<point x="548" y="1244" type="curve" smooth="yes"/>
			<point x="447" y="1244" type="line"/>
			<point x="447" y="1221" type="line"/>
			<point x="497" y="1221" type="line" smooth="yes"/>
			<point x="605" y="1221"/>
			<point x="642" y="1193"/>
			<point x="642" y="1140" type="curve" smooth="yes"/>
			<point x="642" y="1078"/>
			<point x="599" y="1049"/>
			<point x="538" y="1049" type="curve" smooth="yes"/>
		</contour>
		<contour>
			<point x="425" y="1221" type="line"/>
			<point x="425" y="841" type="line"/>
			<point x="357" y="827" type="line"/>
			<point x="357" y="818" type="line"/>
			<point x="540" y="818" type="line"/>
			<point x="540" y="827" type="line"/>
			<point x="473" y="841" type="line"/>
			<point x="473" y="1244" type="line"/>
			<point x="357" y="1244" type="line"/>
			<point x="357" y="1235" type="line"/>
		</contour>
	</outline>
</glyph>
<glyph name="degree" format="2">
	<unicode hex="00B0"/>
	<advance width="748"/>
	<outline>
		<contour>
			<point x="374" y="1440" type="curve" smooth="yes"/>
			<point x="204" y="1440"/>
			<point x="82" y="1320"/>
			<point x="82" y="1150" type="curve" smooth="yes"/>
			<point x="82" y="980"/>
			<point x="204" y="860"/>
			<point x="374" y="860" type="curve" smooth="yes"/>
			<point x="544" y="860"/>
			<point x="666" y="980"/>
			<point x="666" y="1150" type="curve" smooth="yes"/>
			<point x="666" y="1320"/>
			<point x="544" y="1440"/>
		</contour>
		<contour>
			<point x="374" y="899" type="curve" smooth="yes"/>
			<point x="230" y="899"/>
			<point x="127" y="999"/>
			<point x="127" y="1150" type="curve" smooth="yes"/>
			<point x="127" y="1301"/>
			<point x="230" y="1401"/>
			<point x="374" y="1401" type="curve" smooth="yes"/>
			<point x="518" y="1401"/>
			<point x="621" y="1301"/>
			<point x="621" y="1150" type="curve" smooth="yes"/>
			<point x="621" y="999"/>
			<point x="518" y="899"/>
		</contour>
	</outline>
</glyph>
<glyph name="plusminus" format="2">
	<unicode hex="00B1"/>
	<advance width="1150"/>
	<outline>
		<contour>
			<point x="553" y="1024" type="line"/>
			<point x="553" y="202" type="line"/>
			<point x="597" y="202" type="line"/>
			<point x="597" y="1024" type="line"/>
		</contour>
		<contour>
			<point x="164" y="635" type="line"/>
			<point x="164" y="591" type="line"/>
			<point x="986" y="591" type="line"/>
			<point x="986" y="635" type="line"/>
		</contour>
		<contour>
			<point x="164" y="44" type="line"/>
			<point x="164" y="0" type="line"/>
			<point x="986" y="0" type="line"/>
			<point x="986" y="44" type="line"/>
		</contour>
	</outline>
</glyph>
<glyph name="uni00B2" format="2">
	<unicode hex="00B2"/>
	<advance width="628"/>
	<outline>
		<contour>
			<point x="466" y="687" type="line"/>
			<point x="513" y="724" type="line"/>
			<point x="122" y="724" type="line"/>
			<point x="105" y="686" type="line"/>
			<point x="326" y="935" type="line" smooth="yes"/>
			<point x="483" y="1112"/>
			<point x="508" y="1177"/>
			<point x="508" y="1246" type="curve" smooth="yes"/>
			<point x="508" y="1359"/>
			<point x="431" y="1440"/>
			<point x="300" y="1440" type="curve" smooth="yes"/>
			<point x="177" y="1440"/>
			<point x="83" y="1360"/>
			<point x="48" y="1202" type="curve"/>
			<point x="67" y="1198" type="line"/>
			<point x="104" y="1334"/>
			<point x="180" y="1379"/>
			<point x="272" y="1379" type="curve" smooth="yes"/>
			<point x="370" y="1379"/>
			<point x="432" y="1325"/>
			<point x="432" y="1231" type="curve" smooth="yes"/>
			<point x="432" y="1162"/>
			<point x="400" y="1082"/>
			<point x="283" y="938" type="curve" smooth="yes"/>
			<point x="68" y="671" type="line"/>
			<point x="68" y="662" type="line"/>
			<point x="479" y="662" type="line"/>
			<point x="516" y="639" type="line"/>
			<point x="521" y="639" type="line"/>
			<point x="581" y="852" type="line"/>
			<point x="571" y="852" type="line"/>
		</contour>
	</outline>
</glyph>
<glyph name="uni00B3" format="2">
  <advance width="575"/>
  <unicode hex="00B3"/>
  <outline>
    <contour>
      <point x="189.0" y="652.0" type="curve" smooth="yes"/>
      <point x="381.0" y="652.0"/>
      <point x="510.0" y="773.0"/>
      <point x="510.0" y="924.0" type="curve" smooth="yes"/>
      <point x="510.0" y="1054.0"/>
      <point x="416.0" y="1127.0"/>
      <point x="283.0" y="1105.0" type="curve"/>
      <point x="285.0" y="1091.0" type="line"/>
      <point x="394.0" y="1142.0"/>
      <point x="452.0" y="1201.0"/>
      <point x="452.0" y="1284.0" type="curve" smooth="yes"/>
      <point x="452.0" y="1375.0"/>
      <point x="398.0" y="1440.0"/>
      <point x="281.0" y="1440.0" type="curve" smooth="yes"/>
      <point x="173.0" y="1440.0"/>
      <point x="92.0" y="1369.0"/>
      <point x="65.0" y="1244.0" type="curve"/>
      <point x="83.0" y="1241.0" type="line"/>
      <point x="111.63158475076912" y="1343.6787866924135"/>
      <point x="179.0" y="1385.0"/>
      <point x="261.0" y="1385.0" type="curve" smooth="yes"/>
      <point x="348.0" y="1385.0"/>
      <point x="386.0" y="1338.0"/>
      <point x="386.0" y="1268.0" type="curve" smooth="yes"/>
      <point x="386.0" y="1186.0"/>
      <point x="331.0" y="1122.0"/>
      <point x="172.0" y="1058.0" type="curve"/>
      <point x="179.0" y="1038.0" type="line"/>
      <point x="221.0" y="1052.0" type="line" smooth="yes"/>
      <point x="362.0" y="1099.0"/>
      <point x="444.0" y="1018.0"/>
      <point x="444.0" y="905.0" type="curve" smooth="yes"/>
      <point x="444.0" y="787.82"/>
      <point x="360.0" y="682.0"/>
      <point x="238.0" y="682.0" type="curve" smooth="yes"/>
      <point x="154.0" y="682.0"/>
      <point x="114.0" y="756.0"/>
      <point x="93.0" y="756.0" type="curve" smooth="yes"/>
      <point x="73.0" y="756.0"/>
      <point x="56.0" y="740.0"/>
      <point x="56.0" y="715.0" type="curve" smooth="yes"/>
      <point x="56.0" y="683.0"/>
      <point x="89.0" y="652.0"/>
    </contour>
  </outline>
</glyph>
<glyph name="uni00B5" format="2">
	<unicode hex="00B5"/>
	<advance width="1181"/>
	<outline>
		<contour>
			<point x="208" y="1024" type="line"/>
			<point x="208" y="-453" type="line"/>
			<point x="218" y="-453" type="line"/>
			<point x="305" y="-445" type="line"/>
			<point x="232" y="157" type="line"/>
			<point x="225" y="157" type="line"/>
			<point x="253" y="24"/>
			<point x="355" y="-20"/>
			<point x="485" y="-20" type="curve" smooth="yes"/>
			<point x="597" y="-20"/>
			<point x="688" y="7"/>
			<point x="873" y="127" type="curve"/>
			<point x="873" y="144" type="line"/>
			<point x="782" y="84"/>
			<point x="644" y="42"/>
			<point x="523" y="42" type="curve" smooth="yes"/>
			<point x="347" y="42"/>
			<point x="285" y="105"/>
			<point x="285" y="331" type="curve" smooth="yes"/>
			<point x="285" y="1024" type="line"/>
		</contour>
		<contour>
			<point x="935" y="160" type="curve" smooth="yes"/>
			<point x="935" y="1024" type="line"/>
			<point x="858" y="1024" type="line"/>
			<point x="858" y="163" type="line" smooth="yes"/>
			<point x="858" y="24"/>
			<point x="908" y="-18"/>
			<point x="1001" y="-18" type="curve" smooth="yes"/>
			<point x="1063" y="-18"/>
			<point x="1110" y="15"/>
			<point x="1161" y="60" type="curve"/>
			<point x="1161" y="74" type="line"/>
			<point x="1106" y="43"/>
			<point x="1083" y="38"/>
			<point x="1038" y="38" type="curve" smooth="yes"/>
			<point x="984" y="38"/>
			<point x="935" y="64"/>
		</contour>
	</outline>
</glyph>
<glyph name="paragraph" format="2">
	<unicode hex="00B6"/>
	<advance width="1170"/>
	<outline>
		<contour>
			<point x="686" y="1430" type="line"/>
			<point x="444" y="1430" type="line" smooth="yes"/>
			<point x="162" y="1430"/>
			<point x="57" y="1281"/>
			<point x="57" y="1091" type="curve" smooth="yes"/>
			<point x="57" y="900"/>
			<point x="161" y="751"/>
			<point x="443" y="751" type="curve" smooth="yes"/>
			<point x="686" y="751" type="line"/>
		</contour>
		<contour>
			<point x="697" y="-218" type="line"/>
			<point x="697" y="1388" type="line"/>
			<point x="880" y="1388" type="line"/>
			<point x="880" y="1430" type="line"/>
			<point x="646" y="1430" type="line"/>
			<point x="646" y="-218" type="line"/>
		</contour>
		<contour>
			<point x="917" y="-218" type="line"/>
			<point x="917" y="1390" type="line"/>
			<point x="1100" y="1418" type="line"/>
			<point x="1100" y="1430" type="line"/>
			<point x="866" y="1430" type="line"/>
			<point x="866" y="-218" type="line"/>
		</contour>
	</outline>
</glyph>
<glyph name="uni00B9" format="2">
	<unicode hex="00B9"/>
	<advance width="497"/>
	<outline>
		<contour>
			<point x="259" y="701" type="line"/>
			<point x="95" y="674" type="line"/>
			<point x="95" y="662" type="line"/>
			<point x="475" y="662" type="line"/>
			<point x="475" y="674" type="line"/>
			<point x="325" y="701" type="line"/>
			<point x="325" y="1439" type="line"/>
			<point x="310" y="1439" type="line"/>
			<point x="32" y="1291" type="line"/>
			<point x="37" y="1280" type="line"/>
			<point x="278" y="1352" type="line"/>
			<point x="259" y="1359" type="line"/>
		</contour>
	</outline>
</glyph>
<glyph name="ordmasculine" format="2">
	<unicode hex="00BA"/>
	<advance width="888"/>
	<outline>
		<contour>
			<point x="158" y="577" type="line"/>
			<point x="730" y="577" type="line"/>
			<point x="730" y="622" type="line"/>
			<point x="158" y="622" type="line"/>
		</contour>
		<contour>
			<point x="444" y="814" type="curve" smooth="yes"/>
			<point x="291" y="814"/>
			<point x="190" y="937"/>
			<point x="190" y="1114" type="curve" smooth="yes"/>
			<point x="190" y="1298"/>
			<point x="290" y="1426"/>
			<point x="444" y="1426" type="curve" smooth="yes"/>
			<point x="596" y="1426"/>
			<point x="697" y="1303"/>
			<point x="697" y="1126" type="curve" smooth="yes"/>
			<point x="697" y="942"/>
			<point x="597" y="814"/>
		</contour>
		<contour>
			<point x="442" y="790" type="curve" smooth="yes"/>
			<point x="622" y="790"/>
			<point x="762" y="918"/>
			<point x="762" y="1126" type="curve" smooth="yes"/>
			<point x="762" y="1327"/>
			<point x="615" y="1450"/>
			<point x="445" y="1450" type="curve" smooth="yes"/>
			<point x="265" y="1450"/>
			<point x="125" y="1322"/>
			<point x="125" y="1114" type="curve" smooth="yes"/>
			<point x="125" y="913"/>
			<point x="272" y="790"/>
		</contour>
	</outline>
</glyph>
<glyph name="guillemotright" format="2">
	<unicode hex="00BB"/>
	<advance width="913"/>
	<outline>
		<contour>
			<point x="413" y="474" type="line"/>
			<point x="413" y="570" type="line"/>
			<point x="103" y="126" type="line"/>
			<point x="117" y="114" type="line"/>
			<point x="491" y="517" type="line"/>
			<point x="491" y="527" type="line"/>
			<point x="117" y="930" type="line"/>
			<point x="103" y="918" type="line"/>
		</contour>
		<contour>
			<point x="743" y="474" type="line"/>
			<point x="743" y="570" type="line"/>
			<point x="433" y="126" type="line"/>
			<point x="447" y="114" type="line"/>
			<point x="821" y="517" type="line"/>
			<point x="821" y="527" type="line"/>
			<point x="447" y="930" type="line"/>
			<point x="433" y="918" type="line"/>
		</contour>
	</outline>
</glyph>
<glyph name="questiondown" format="2">
	<unicode hex="00BF"/>
	<advance width="876"/>
	<outline>
		<contour>
			<point x="571" y="-426" type="curve" smooth="yes"/>
			<point x="747" y="-426"/>
			<point x="825" y="-373"/>
			<point x="825" y="-323" type="curve" smooth="yes"/>
			<point x="825" y="-292"/>
			<point x="801" y="-273"/>
			<point x="772" y="-273" type="curve" smooth="yes"/>
			<point x="762" y="-273"/>
			<point x="694" y="-363"/>
			<point x="515" y="-363" type="curve" smooth="yes"/>
			<point x="288" y="-363"/>
			<point x="136" y="-252"/>
			<point x="136" y="-25" type="curve" smooth="yes"/>
			<point x="136" y="161"/>
			<point x="249" y="283"/>
			<point x="566" y="261" type="curve"/>
			<point x="524" y="628" type="line"/>
			<point x="504" y="628" type="line"/>
			<point x="504" y="274" type="line"/>
			<point x="531" y="335" type="line"/>
			<point x="185" y="347"/>
			<point x="76" y="203"/>
			<point x="76" y="10" type="curve" smooth="yes"/>
			<point x="76" y="-267"/>
			<point x="354" y="-426"/>
		</contour>
		<contour>
			<point x="508" y="869" type="curve" smooth="yes"/>
			<point x="556" y="869"/>
			<point x="593" y="907"/>
			<point x="593" y="954" type="curve" smooth="yes"/>
			<point x="593" y="1001"/>
			<point x="556" y="1038"/>
			<point x="508" y="1038" type="curve" smooth="yes"/>
			<point x="460" y="1038"/>
			<point x="423" y="1001"/>
			<point x="423" y="954" type="curve" smooth="yes"/>
			<point x="423" y="907"/>
			<point x="460" y="869"/>
		</contour>
	</outline>
</glyph>
<glyph name="AE" format="2">
	<unicode hex="00C6"/>
	<advance width="2001"/>
	<outline>
		<contour>
			<point x="505" y="590" type="line"/>
			<point x="1047" y="590" type="line"/>
			<point x="1047" y="620" type="line"/>
			<point x="505" y="620" type="line"/>
		</contour>
		<contour>
			<point x="984" y="1430" type="line"/>
			<point x="147" y="40" type="line"/>
			<point x="-37" y="12" type="line"/>
			<point x="-37" y="0" type="line"/>
			<point x="369" y="0" type="line"/>
			<point x="369" y="12" type="line"/>
			<point x="186" y="40" type="line"/>
			<point x="999" y="1393" type="line"/>
			<point x="999" y="1430" type="line"/>
		</contour>
		<contour>
			<point x="803" y="1418" type="line"/>
			<point x="987" y="1390" type="line"/>
			<point x="987" y="1430" type="line"/>
			<point x="803" y="1430" type="line"/>
		</contour>
		<contour>
			<point x="1629" y="1034" type="line"/>
			<point x="1619" y="1034" type="line"/>
			<point x="1536" y="773" type="line"/>
			<point x="1055" y="761" type="line"/>
			<point x="1055" y="736" type="line"/>
			<point x="1536" y="726" type="line"/>
			<point x="1619" y="463" type="line"/>
			<point x="1629" y="463" type="line"/>
			<point x="1594" y="748" type="line"/>
		</contour>
		<contour>
			<point x="1887" y="1077" type="line"/>
			<point x="1806" y="1473" type="line"/>
			<point x="1802" y="1473" type="line"/>
			<point x="1744" y="1430" type="line"/>
			<point x="999" y="1430" type="line"/>
			<point x="999" y="1400" type="line"/>
			<point x="1783" y="1400" type="line"/>
			<point x="1731" y="1415" type="line"/>
			<point x="1873" y="1072" type="line"/>
		</contour>
		<contour>
			<point x="1771" y="17" type="line"/>
			<point x="1814" y="30" type="line"/>
			<point x="999" y="30" type="line"/>
			<point x="999" y="0" type="line"/>
			<point x="1775" y="0" type="line"/>
			<point x="1844" y="-49" type="line"/>
			<point x="1850" y="-49" type="line"/>
			<point x="1954" y="371" type="line"/>
			<point x="1942" y="375" type="line"/>
		</contour>
		<contour>
			<point x="813" y="0" type="line"/>
			<point x="1078" y="0" type="line"/>
			<point x="1078" y="1430" type="line"/>
			<point x="997" y="1430" type="line"/>
			<point x="997" y="40" type="line"/>
			<point x="813" y="12" type="line"/>
		</contour>
	</outline>
	<anchor name="UCtop" x="1038" y="1430"/>
	<anchor name="bottom" x="1038" y="0"/>
</glyph>
<glyph name="Ccedilla" format="2">
	<unicode hex="00C7"/>
	<advance width="1407"/>
	<outline>
		<contour>
			<point x="868" y="5" type="curve" smooth="yes"/>
			<point x="495" y="5"/>
			<point x="186" y="265"/>
			<point x="186" y="741" type="curve" smooth="yes"/>
			<point x="186" y="1181"/>
			<point x="442" y="1418"/>
			<point x="814" y="1418" type="curve" smooth="yes"/>
			<point x="957" y="1418"/>
			<point x="1094" y="1380"/>
			<point x="1242" y="1283" type="curve"/>
			<point x="1155" y="1363" type="line"/>
			<point x="1300" y="1019" type="line"/>
			<point x="1318" y="1023" type="line"/>
			<point x="1230" y="1479" type="line"/>
			<point x="1225" y="1479" type="line"/>
			<point x="1175" y="1377" type="line"/>
			<point x="1234" y="1374" type="line"/>
			<point x="1115" y="1426"/>
			<point x="992" y="1450"/>
			<point x="866" y="1450" type="curve" smooth="yes"/>
			<point x="398" y="1450"/>
			<point x="98" y="1163"/>
			<point x="98" y="715" type="curve" smooth="yes"/>
			<point x="98" y="243"/>
			<point x="434" y="-20"/>
			<point x="871" y="-20" type="curve" smooth="yes"/>
			<point x="1015" y="-20"/>
			<point x="1167" y="11"/>
			<point x="1270" y="55" type="curve"/>
			<point x="1337" y="346" type="line"/>
			<point x="1320" y="346" type="line"/>
			<point x="1177" y="44" type="line"/>
			<point x="1223" y="97" type="line"/>
			<point x="1122" y="37"/>
			<point x="990" y="5"/>
		</contour>
		<contour>
			<point x="706" y="-465" type="curve" smooth="yes"/>
			<point x="826" y="-465"/>
			<point x="922" y="-398"/>
			<point x="922" y="-294" type="curve" smooth="yes"/>
			<point x="922" y="-237"/>
			<point x="884" y="-179"/>
			<point x="731" y="-129" type="curve"/>
			<point x="732" y="-151" type="line"/>
			<point x="825" y="0" type="line"/>
			<point x="797" y="0" type="line"/>
			<point x="680" y="-177" type="line"/>
			<point x="680" y="-181" type="line"/>
			<point x="828" y="-225"/>
			<point x="868" y="-275"/>
			<point x="868" y="-332" type="curve" smooth="yes"/>
			<point x="868" y="-390"/>
			<point x="813" y="-434"/>
			<point x="759" y="-434" type="curve" smooth="yes"/>
			<point x="683" y="-434"/>
			<point x="653" y="-373"/>
			<point x="638" y="-373" type="curve" smooth="yes"/>
			<point x="615" y="-373"/>
			<point x="603" y="-392"/>
			<point x="603" y="-411" type="curve" smooth="yes"/>
			<point x="603" y="-442"/>
			<point x="629" y="-465"/>
		</contour>
	</outline>
</glyph>
<glyph name="multiply" format="2">
	<unicode hex="00D7"/>
	<advance width="1150"/>
	<outline>
		<contour>
			<point x="234" y="202" type="line"/>
			<point x="265" y="171" type="line"/>
			<point x="916" y="822" type="line"/>
			<point x="885" y="853" type="line"/>
		</contour>
		<contour>
			<point x="234" y="822" type="line"/>
			<point x="885" y="171" type="line"/>
			<point x="916" y="202" type="line"/>
			<point x="265" y="853" type="line"/>
		</contour>
	</outline>
</glyph>
<glyph name="Oslash" format="2">
	<unicode hex="00D8"/>
	<advance width="1596"/>
	<outline>
		<contour>
			<point x="328" y="235" type="line"/>
			<point x="310" y="215" type="line"/>
			<point x="115" y="0" type="line"/>
			<point x="185" y="0" type="line"/>
			<point x="343" y="174" type="line"/>
			<point x="365" y="198" type="line"/>
			<point x="1270" y="1195" type="line"/>
			<point x="1288" y="1215" type="line"/>
			<point x="1483" y="1430" type="line"/>
			<point x="1413" y="1430" type="line"/>
			<point x="1255" y="1256" type="line"/>
			<point x="1233" y="1232" type="line"/>
		</contour>
		<contour>
			<point x="787" y="1450" type="curve" smooth="yes"/>
			<point x="399" y="1450"/>
			<point x="115" y="1140"/>
			<point x="115" y="714" type="curve" smooth="yes"/>
			<point x="115" y="290"/>
			<point x="414" y="-20"/>
			<point x="811" y="-20" type="curve" smooth="yes"/>
			<point x="1199" y="-20"/>
			<point x="1483" y="290"/>
			<point x="1483" y="716" type="curve" smooth="yes"/>
			<point x="1483" y="1140"/>
			<point x="1184" y="1450"/>
		</contour>
		<contour>
			<point x="807" y="10" type="curve" smooth="yes"/>
			<point x="455" y="10"/>
			<point x="202" y="282"/>
			<point x="202" y="727" type="curve" smooth="yes"/>
			<point x="202" y="1130"/>
			<point x="419" y="1420"/>
			<point x="791" y="1420" type="curve" smooth="yes"/>
			<point x="1143" y="1420"/>
			<point x="1396" y="1148"/>
			<point x="1396" y="703" type="curve" smooth="yes"/>
			<point x="1396" y="300"/>
			<point x="1179" y="10"/>
		</contour>
	</outline>
	<anchor name="UCtop" x="799" y="1430"/>
	<anchor name="bottom" x="799" y="0"/>
</glyph>
<glyph name="Thorn" format="2">
	<unicode hex="00DE"/>
	<advance width="1190"/>
	<outline>
		<contour>
			<point x="1028" y="731" type="curve" smooth="yes"/>
			<point x="1028" y="512"/>
			<point x="901" y="378"/>
			<point x="531" y="378" type="curve" smooth="yes"/>
			<point x="274" y="378" type="line"/>
			<point x="274" y="348" type="line"/>
			<point x="604" y="348" type="line" smooth="yes"/>
			<point x="974" y="348"/>
			<point x="1110" y="516"/>
			<point x="1110" y="731" type="curve" smooth="yes"/>
			<point x="1110" y="946"/>
			<point x="973" y="1114"/>
			<point x="603" y="1114" type="curve" smooth="yes"/>
			<point x="285" y="1114" type="line"/>
			<point x="274" y="1084" type="line"/>
			<point x="531" y="1084" type="line" smooth="yes"/>
			<point x="901" y="1084"/>
			<point x="1028" y="950"/>
		</contour>
		<contour>
			<point x="508" y="12" type="line"/>
			<point x="325" y="40" type="line"/>
			<point x="325" y="1390" type="line"/>
			<point x="508" y="1418" type="line"/>
			<point x="508" y="1430" type="line"/>
			<point x="60" y="1430" type="line"/>
			<point x="60" y="1418" type="line"/>
			<point x="244" y="1390" type="line"/>
			<point x="244" y="40" type="line"/>
			<point x="60" y="12" type="line"/>
			<point x="60" y="0" type="line"/>
			<point x="508" y="0" type="line"/>
		</contour>
	</outline>
</glyph>
<glyph name="germandbls" format="2">
	<unicode hex="00DF"/>
	<advance width="1200"/>
	<outline>
		<contour>
			<point x="232" y="1022" type="curve" smooth="yes"/>
			<point x="232" y="28" type="line"/>
			<point x="83" y="10" type="line"/>
			<point x="83" y="0" type="line"/>
			<point x="458" y="0" type="line"/>
			<point x="458" y="10" type="line"/>
			<point x="309" y="28" type="line"/>
			<point x="309" y="1093" type="line" smooth="yes"/>
			<point x="309" y="1305"/>
			<point x="429" y="1450"/>
			<point x="652" y="1450" type="curve" smooth="yes"/>
			<point x="839" y="1450"/>
			<point x="924" y="1348"/>
			<point x="924" y="1256" type="curve" smooth="yes"/>
			<point x="924" y="1006"/>
			<point x="618" y="967"/>
			<point x="618" y="768" type="curve" smooth="yes"/>
			<point x="618" y="468"/>
			<point x="1095" y="573"/>
			<point x="1095" y="256" type="curve" smooth="yes"/>
			<point x="1095" y="122"/>
			<point x="1006" y="7"/>
			<point x="860" y="7" type="curve" smooth="yes"/>
			<point x="753" y="7"/>
			<point x="669" y="47"/>
			<point x="635" y="95" type="curve"/>
			<point x="686" y="18" type="line"/>
			<point x="556" y="306" type="line"/>
			<point x="543" y="306" type="line"/>
			<point x="604" y="29" type="line"/>
			<point x="671" y="-5"/>
			<point x="749" y="-20"/>
			<point x="837" y="-20" type="curve" smooth="yes"/>
			<point x="1030" y="-20"/>
			<point x="1158" y="111"/>
			<point x="1158" y="281" type="curve" smooth="yes"/>
			<point x="1158" y="633"/>
			<point x="682" y="553"/>
			<point x="682" y="785" type="curve" smooth="yes"/>
			<point x="682" y="1010"/>
			<point x="997" y="1028"/>
			<point x="997" y="1261" type="curve" smooth="yes"/>
			<point x="997" y="1375"/>
			<point x="888" y="1484"/>
			<point x="671" y="1484" type="curve" smooth="yes"/>
			<point x="441" y="1484"/>
			<point x="232" y="1326"/>
		</contour>
		<contour>
			<point x="257" y="1028" type="line"/>
			<point x="12" y="998" type="line"/>
			<point x="12" y="984" type="line"/>
			<point x="246" y="964" type="line"/>
		</contour>
	</outline>
</glyph>
<glyph name="ae" format="2">
	<unicode hex="00E6"/>
	<advance width="1582"/>
	<outline>
		<contour>
			<point x="448" y="998" type="curve" smooth="yes"/>
			<point x="626" y="998"/>
			<point x="695" y="899"/>
			<point x="695" y="735" type="curve" smooth="yes"/>
			<point x="695" y="346" type="line" smooth="yes"/>
			<point x="695" y="138"/>
			<point x="553" y="33"/>
			<point x="394" y="33" type="curve" smooth="yes"/>
			<point x="258" y="33"/>
			<point x="173" y="120"/>
			<point x="173" y="251" type="curve" smooth="yes"/>
			<point x="173" y="385"/>
			<point x="220" y="478"/>
			<point x="730" y="637" type="curve"/>
			<point x="730" y="661" type="line"/>
			<point x="155" y="487"/>
			<point x="91" y="408"/>
			<point x="91" y="245" type="curve" smooth="yes"/>
			<point x="91" y="73"/>
			<point x="198" y="-20"/>
			<point x="386" y="-20" type="curve" smooth="yes"/>
			<point x="547" y="-20"/>
			<point x="703" y="88"/>
			<point x="710" y="335" type="curve"/>
			<point x="704" y="335" type="line"/>
			<point x="744" y="98"/>
			<point x="906" y="-20"/>
			<point x="1144" y="-20" type="curve" smooth="yes"/>
			<point x="1294" y="-20"/>
			<point x="1391" y="40"/>
			<point x="1534" y="222" type="curve"/>
			<point x="1523" y="231" type="line"/>
			<point x="1392" y="90"/>
			<point x="1303" y="50"/>
			<point x="1165" y="50" type="curve" smooth="yes"/>
			<point x="914" y="50"/>
			<point x="772" y="228"/>
			<point x="772" y="565" type="curve" smooth="yes"/>
			<point x="772" y="826"/>
			<point x="891" y="1011"/>
			<point x="1132" y="1011" type="curve" smooth="yes"/>
			<point x="1298" y="1011"/>
			<point x="1394" y="881"/>
			<point x="1416" y="645" type="curve"/>
			<point x="1445" y="663" type="line"/>
			<point x="750" y="663" type="line"/>
			<point x="752" y="639" type="line"/>
			<point x="1500" y="639" type="line"/>
			<point x="1491.0878843277" y="866.7540671812"/>
			<point x="1373" y="1044"/>
			<point x="1142" y="1044" type="curve" smooth="yes"/>
			<point x="951" y="1044"/>
			<point x="803.9171241228" y="932.8123782224"/>
			<point x="732" y="770" type="curve"/>
			<point x="772" y="770" type="line"/>
			<point x="766" y="935"/>
			<point x="699" y="1041"/>
			<point x="481" y="1041" type="curve" smooth="yes"/>
			<point x="343" y="1041"/>
			<point x="89" y="935"/>
			<point x="89" y="844" type="curve" smooth="yes"/>
			<point x="89" y="820"/>
			<point x="106" y="806"/>
			<point x="138" y="806" type="curve" smooth="yes"/>
			<point x="161" y="806"/>
			<point x="187" y="815"/>
			<point x="200" y="830" type="curve" smooth="yes"/>
			<point x="213" y="845"/>
			<point x="227" y="899"/>
			<point x="237" y="969" type="curve"/>
			<point x="172" y="933" type="line"/>
			<point x="275" y="977"/>
			<point x="358" y="998"/>
		</contour>
	</outline>
	<anchor name="top" x="734" y="1024"/>
	<anchor name="bottom" x="734" y="0"/>
</glyph>
<glyph name="ccedilla" format="2">
	<unicode hex="00E7"/>
	<advance width="934"/>
	<outline>
		<contour>
			<point x="583" y="1044" type="curve" smooth="yes"/>
			<point x="266" y="1044"/>
			<point x="80" y="811"/>
			<point x="80" y="478" type="curve" smooth="yes"/>
			<point x="80" y="153"/>
			<point x="252" y="-20"/>
			<point x="517" y="-20" type="curve" smooth="yes"/>
			<point x="661" y="-20"/>
			<point x="747" y="37"/>
			<point x="900" y="222" type="curve"/>
			<point x="890" y="231" type="line"/>
			<point x="754" y="88"/>
			<point x="663" y="48"/>
			<point x="536" y="48" type="curve" smooth="yes"/>
			<point x="292" y="48"/>
			<point x="152" y="230"/>
			<point x="152" y="529" type="curve" smooth="yes"/>
			<point x="152" y="830"/>
			<point x="289" y="1007"/>
			<point x="526" y="1007" type="curve" smooth="yes"/>
			<point x="684" y="1007"/>
			<point x="775" y="857"/>
			<point x="802" y="857" type="curve" smooth="yes"/>
			<point x="831" y="857"/>
			<point x="854" y="884"/>
			<point x="854" y="913" type="curve" smooth="yes"/>
			<point x="854" y="978"/>
			<point x="762" y="1044"/>
		</contour>
		<contour>
			<point x="439" y="-465" type="curve" smooth="yes"/>
			<point x="559" y="-465"/>
			<point x="655" y="-398"/>
			<point x="655" y="-294" type="curve" smooth="yes"/>
			<point x="655" y="-237"/>
			<point x="617" y="-179"/>
			<point x="464" y="-129" type="curve"/>
			<point x="465" y="-151" type="line"/>
			<point x="558" y="0" type="line"/>
			<point x="530" y="0" type="line"/>
			<point x="413" y="-177" type="line"/>
			<point x="413" y="-181" type="line"/>
			<point x="561" y="-225"/>
			<point x="601" y="-275"/>
			<point x="601" y="-332" type="curve" smooth="yes"/>
			<point x="601" y="-390"/>
			<point x="546" y="-434"/>
			<point x="492" y="-434" type="curve" smooth="yes"/>
			<point x="416" y="-434"/>
			<point x="386" y="-373"/>
			<point x="371" y="-373" type="curve" smooth="yes"/>
			<point x="348" y="-373"/>
			<point x="336" y="-392"/>
			<point x="336" y="-411" type="curve" smooth="yes"/>
			<point x="336" y="-442"/>
			<point x="362" y="-465"/>
		</contour>
	</outline>
</glyph>
<glyph name="eth" format="2">
	<unicode hex="00F0"/>
	<advance width="1131"/>
	<outline>
		<contour>
			<point x="554" y="-20" type="curve" smooth="yes"/>
			<point x="825" y="-20"/>
			<point x="1034" y="180"/>
			<point x="1034" y="573" type="curve" smooth="yes"/>
			<point x="1034" y="963"/>
			<point x="883" y="1348"/>
			<point x="256" y="1477" type="curve"/>
			<point x="242" y="1459" type="line"/>
			<point x="740" y="1333"/>
			<point x="879" y="1100"/>
			<point x="935" y="742" type="curve"/>
			<point x="938" y="743" type="line"/>
			<point x="863" y="931"/>
			<point x="701.888" y="1012"/>
			<point x="558" y="1012" type="curve" smooth="yes"/>
			<point x="287" y="1012"/>
			<point x="78" y="812"/>
			<point x="78" y="487" type="curve" smooth="yes"/>
			<point x="78" y="172"/>
			<point x="299" y="-20"/>
		</contour>
		<contour>
			<point x="556" y="4" type="curve" smooth="yes"/>
			<point x="323" y="4"/>
			<point x="162" y="201"/>
			<point x="162" y="487" type="curve" smooth="yes"/>
			<point x="162" y="783"/>
			<point x="322" y="988"/>
			<point x="556" y="988" type="curve" smooth="yes"/>
			<point x="789" y="988"/>
			<point x="950" y="791"/>
			<point x="950" y="505" type="curve" smooth="yes"/>
			<point x="950" y="209"/>
			<point x="790" y="4"/>
		</contour>
		<contour>
			<point x="455" y="1107" type="line"/>
			<point x="853" y="1452" type="line"/>
			<point x="825" y="1484" type="line"/>
			<point x="427" y="1139" type="line"/>
		</contour>
	</outline>
</glyph>
<glyph name="divide" format="2">
	<unicode hex="00F7"/>
	<advance width="1150"/>
	<outline>
		<contour>
			<point x="575" y="239" type="curve" smooth="yes"/>
			<point x="527" y="239"/>
			<point x="490" y="201"/>
			<point x="490" y="154" type="curve" smooth="yes"/>
			<point x="490" y="107"/>
			<point x="527" y="70"/>
			<point x="575" y="70" type="curve" smooth="yes"/>
			<point x="623" y="70"/>
			<point x="660" y="107"/>
			<point x="660" y="154" type="curve" smooth="yes"/>
			<point x="660" y="201"/>
			<point x="623" y="239"/>
		</contour>
		<contour>
			<point x="575" y="955" type="curve" smooth="yes"/>
			<point x="527" y="955"/>
			<point x="490" y="917"/>
			<point x="490" y="870" type="curve" smooth="yes"/>
			<point x="490" y="823"/>
			<point x="527" y="786"/>
			<point x="575" y="786" type="curve" smooth="yes"/>
			<point x="623" y="786"/>
			<point x="660" y="823"/>
			<point x="660" y="870" type="curve" smooth="yes"/>
			<point x="660" y="917"/>
			<point x="623" y="955"/>
		</contour>
		<contour>
			<point x="164" y="534" type="line"/>
			<point x="164" y="490" type="line"/>
			<point x="986" y="490" type="line"/>
			<point x="986" y="534" type="line"/>
		</contour>
	</outline>
</glyph>
<glyph name="oslash" format="2">
	<unicode hex="00F8"/>
	<advance width="1142"/>
	<outline>
		<contour>
			<point x="93" y="0" type="line"/>
			<point x="166" y="0" type="line"/>
			<point x="265" y="114" type="line"/>
			<point x="276" y="127" type="line"/>
			<point x="900" y="851" type="line"/>
			<point x="914" y="867" type="line"/>
			<point x="1049" y="1024" type="line"/>
			<point x="976" y="1024" type="line"/>
			<point x="878" y="910" type="line"/>
			<point x="866" y="896" type="line"/>
			<point x="241" y="172" type="line"/>
			<point x="230" y="159" type="line"/>
		</contour>
		<contour>
			<point x="571" y="4" type="curve" smooth="yes"/>
			<point x="338" y="4"/>
			<point x="177" y="207"/>
			<point x="177" y="503" type="curve" smooth="yes"/>
			<point x="177" y="809"/>
			<point x="337" y="1020"/>
			<point x="571" y="1020" type="curve" smooth="yes"/>
			<point x="804" y="1020"/>
			<point x="965" y="817"/>
			<point x="965" y="521" type="curve" smooth="yes"/>
			<point x="965" y="215"/>
			<point x="805" y="4"/>
		</contour>
		<contour>
			<point x="569" y="-20" type="curve" smooth="yes"/>
			<point x="840" y="-20"/>
			<point x="1049" y="186"/>
			<point x="1049" y="521" type="curve" smooth="yes"/>
			<point x="1049" y="846"/>
			<point x="828" y="1044"/>
			<point x="573" y="1044" type="curve" smooth="yes"/>
			<point x="302" y="1044"/>
			<point x="93" y="838"/>
			<point x="93" y="503" type="curve" smooth="yes"/>
			<point x="93" y="178"/>
			<point x="314" y="-20"/>
		</contour>
	</outline>
	<anchor name="top" x="571" y="1024"/>
	<anchor name="bottom" x="571" y="0"/>
</glyph>
<glyph name="thorn" format="2">
	<unicode hex="00FE"/>
	<advance width="1093"/>
	<outline>
		<contour>
			<point x="148" y="1377" type="curve"/>
			<point x="148" y="-417" type="line"/>
			<point x="-1" y="-435" type="line"/>
			<point x="-1" y="-445" type="line"/>
			<point x="370" y="-445" type="line"/>
			<point x="370" y="-435" type="line"/>
			<point x="225" y="-417" type="line"/>
			<point x="225" y="132" type="line"/>
			<point x="161" y="132" type="line"/>
			<point x="239" y="26"/>
			<point x="361" y="-20"/>
			<point x="504" y="-20" type="curve" smooth="yes"/>
			<point x="775" y="-20"/>
			<point x="1014" y="195"/>
			<point x="1014" y="565" type="curve" smooth="yes"/>
			<point x="1014" y="864"/>
			<point x="856" y="1044"/>
			<point x="596" y="1044" type="curve" smooth="yes"/>
			<point x="504" y="1044"/>
			<point x="396" y="1005"/>
			<point x="157" y="843" type="curve"/>
			<point x="169" y="841" type="line"/>
			<point x="373" y="952"/>
			<point x="456" y="976"/>
			<point x="560" y="976" type="curve" smooth="yes"/>
			<point x="783" y="976"/>
			<point x="933" y="806"/>
			<point x="933" y="520" type="curve" smooth="yes"/>
			<point x="933" y="224"/>
			<point x="770" y="5"/>
			<point x="507" y="5" type="curve" smooth="yes"/>
			<point x="310" y="5"/>
			<point x="225" y="133"/>
			<point x="225" y="249" type="curve"/>
			<point x="225" y="1377" type="line"/>
			<point x="225" y="1484" type="line"/>
			<point x="217" y="1484" type="line"/>
			<point x="-46" y="1436" type="line"/>
			<point x="-46" y="1421" type="line"/>
			<point x="32" y="1403.3092783505"/>
			<point x="122" y="1382.8969072165"/>
		</contour>
	</outline>
</glyph>
<glyph name="Aogonek" format="2">
  <advance width="1421.0"/>
  <unicode hex="0104"/>
  <outline>
    <contour>
      <point x="394.0" y="590.0" type="line"/>
      <point x="1003.0" y="590.0" type="line"/>
      <point x="1003.0" y="620.0" type="line"/>
      <point x="394.0" y="620.0" type="line"/>
    </contour>
    <contour>
      <point x="1262.0" y="40.0" type="line"/>
      <point x="709.0" y="1450.0" type="line"/>
      <point x="686.0" y="1450.0" type="line"/>
      <point x="168.0" y="40.0" type="line"/>
      <point x="-16.0" y="12.0" type="line"/>
      <point x="-16.0" y="0.0" type="line"/>
      <point x="385.0" y="0.0" type="line"/>
      <point x="385.0" y="12.0" type="line"/>
      <point x="202.0" y="40.0" type="line"/>
      <point x="681.0" y="1349.0" type="line"/>
      <point x="668.0" y="1349.0" type="line"/>
      <point x="1181.0" y="40.0" type="line"/>
      <point x="997.0" y="12.0" type="line"/>
      <point x="997.0" y="0.0" type="line"/>
      <point x="1445.0" y="0.0" type="line"/>
      <point x="1445.0" y="12.0" type="line"/>
    </contour>
    <contour>
      <point x="1191.0" y="-111.0" type="curve" smooth="yes"/>
      <point x="1233.0" y="0.0" type="line"/>
      <point x="1211.0" y="0.0" type="line"/>
      <point x="1148.0" y="-129.0" type="line" smooth="yes"/>
      <point x="1081.0" y="-266.0"/>
      <point x="1073.0" y="-306.0"/>
      <point x="1073.0" y="-344.0" type="curve" smooth="yes"/>
      <point x="1073.0" y="-419.0"/>
      <point x="1116.0" y="-465.0"/>
      <point x="1189.0" y="-465.0" type="curve" smooth="yes"/>
      <point x="1243.0" y="-465.0"/>
      <point x="1274.0" y="-455.0"/>
      <point x="1361.0" y="-360.0" type="curve"/>
      <point x="1352.0" y="-351.0" type="line"/>
      <point x="1306.0" y="-395.0"/>
      <point x="1268.0" y="-409.0"/>
      <point x="1228.0" y="-409.0" type="curve" smooth="yes"/>
      <point x="1168.0" y="-409.0"/>
      <point x="1139.0" y="-379.0"/>
      <point x="1139.0" y="-304.0" type="curve" smooth="yes"/>
      <point x="1139.0" y="-257.0"/>
      <point x="1147.0" y="-227.0"/>
    </contour>
  </outline>
</glyph>
<glyph name="Dcroat" format="2">
	<unicode hex="0110"/>
	<advance width="1495"/>
	<outline>
		<contour>
			<point x="67" y="721" type="line"/>
			<point x="723" y="721" type="line"/>
			<point x="723" y="773" type="line"/>
			<point x="67" y="773" type="line"/>
		</contour>
		<contour>
			<point x="1308" y="732" type="curve" smooth="yes"/>
			<point x="1308" y="234"/>
			<point x="1013" y="30"/>
			<point x="548" y="30" type="curve" smooth="yes"/>
			<point x="254" y="30" type="line"/>
			<point x="274" y="0" type="line"/>
			<point x="580" y="0" type="line" smooth="yes"/>
			<point x="1044" y="0"/>
			<point x="1395" y="248"/>
			<point x="1395" y="734" type="curve" smooth="yes"/>
			<point x="1395" y="1179"/>
			<point x="1110" y="1430"/>
			<point x="571" y="1430" type="curve" smooth="yes"/>
			<point x="274" y="1430" type="line"/>
			<point x="254" y="1400" type="line"/>
			<point x="516" y="1400" type="line" smooth="yes"/>
			<point x="1018" y="1400"/>
			<point x="1308" y="1176"/>
		</contour>
		<contour>
			<point x="67" y="0" type="line"/>
			<point x="332" y="0" type="line"/>
			<point x="332" y="1430" type="line"/>
			<point x="67" y="1430" type="line"/>
			<point x="67" y="1418" type="line"/>
			<point x="251" y="1390" type="line"/>
			<point x="251" y="40" type="line"/>
			<point x="67" y="12" type="line"/>
		</contour>
	</outline>
</glyph>
<glyph name="Eogonek" format="2">
	<unicode hex="0118"/>
	<advance width="1248"/>
	<outline>
		<contour>
			<point x="876" y="1034" type="line"/>
			<point x="866" y="1034" type="line"/>
			<point x="783" y="773" type="line"/>
			<point x="302" y="761" type="line"/>
			<point x="302" y="736" type="line"/>
			<point x="783" y="726" type="line"/>
			<point x="866" y="463" type="line"/>
			<point x="876" y="463" type="line"/>
			<point x="841" y="748" type="line"/>
		</contour>
		<contour>
			<point x="1134" y="1077" type="line"/>
			<point x="1053" y="1473" type="line"/>
			<point x="1049" y="1473" type="line"/>
			<point x="991" y="1430" type="line"/>
			<point x="246" y="1430" type="line"/>
			<point x="246" y="1400" type="line"/>
			<point x="1030" y="1400" type="line"/>
			<point x="978" y="1415" type="line"/>
			<point x="1120" y="1072" type="line"/>
		</contour>
		<contour>
			<point x="1018" y="17" type="line"/>
			<point x="1061" y="30" type="line"/>
			<point x="246" y="30" type="line"/>
			<point x="246" y="0" type="line"/>
			<point x="1022" y="0" type="line"/>
			<point x="1091" y="-49" type="line"/>
			<point x="1097" y="-49" type="line"/>
			<point x="1201" y="371" type="line"/>
			<point x="1189" y="375" type="line"/>
		</contour>
		<contour>
			<point x="60" y="0" type="line"/>
			<point x="325" y="0" type="line"/>
			<point x="325" y="1430" type="line"/>
			<point x="60" y="1430" type="line"/>
			<point x="60" y="1418" type="line"/>
			<point x="244" y="1390" type="line"/>
			<point x="244" y="40" type="line"/>
			<point x="60" y="12" type="line"/>
		</contour>
		<contour>
			<point x="970" y="-92" type="curve" smooth="yes"/>
			<point x="1032" y="0" type="line"/>
			<point x="1010" y="0" type="line"/>
			<point x="908" y="-134" type="line" smooth="yes"/>
			<point x="823" y="-247"/>
			<point x="811" y="-295"/>
			<point x="811" y="-344" type="curve" smooth="yes"/>
			<point x="811" y="-419"/>
			<point x="854" y="-465"/>
			<point x="927" y="-465" type="curve" smooth="yes"/>
			<point x="981" y="-465"/>
			<point x="1012" y="-455"/>
			<point x="1099" y="-360" type="curve"/>
			<point x="1090" y="-351" type="line"/>
			<point x="1044" y="-399"/>
			<point x="1005" y="-414"/>
			<point x="965" y="-414" type="curve" smooth="yes"/>
			<point x="904" y="-414"/>
			<point x="874" y="-380"/>
			<point x="874" y="-322" type="curve" smooth="yes"/>
			<point x="874" y="-268"/>
			<point x="883" y="-221"/>
		</contour>
	</outline>
</glyph>
<glyph name="eogonek" format="2">
  <advance width="967.0"/>
  <unicode hex="0119"/>
  <outline>
    <contour>
      <point x="919.0" y="222.0" type="line"/>
      <point x="908.0" y="231.0" type="line"/>
      <point x="777.0" y="88.0"/>
      <point x="687.0" y="48.0"/>
      <point x="548.0" y="48.0" type="curve" smooth="yes"/>
      <point x="295.0" y="48.0"/>
      <point x="152.0" y="226.0"/>
      <point x="152.0" y="564.0" type="curve" smooth="yes"/>
      <point x="152.0" y="833.0"/>
      <point x="259.0" y="1011.0"/>
      <point x="522.0" y="1011.0" type="curve" smooth="yes"/>
      <point x="686.0" y="1011.0"/>
      <point x="783.0" y="903.0"/>
      <point x="805.0" y="700.0" type="curve"/>
      <point x="822.0" y="715.0" type="line"/>
      <point x="140.0" y="715.0" type="line"/>
      <point x="140.0" y="691.0" type="line"/>
      <point x="885.0" y="691.0" type="line"/>
      <point x="876.0" y="890.0"/>
      <point x="758.0" y="1044.0"/>
      <point x="542.0" y="1044.0" type="curve" smooth="yes"/>
      <point x="248.0" y="1044.0"/>
      <point x="80.0" y="794.0"/>
      <point x="80.0" y="503.0" type="curve" smooth="yes"/>
      <point x="80.0" y="153.0"/>
      <point x="254.0" y="-20.0"/>
      <point x="529.0" y="-20.0" type="curve" smooth="yes"/>
      <point x="667.0" y="-20.0"/>
      <point x="760.0" y="31.0"/>
      <point x="884.0" y="179.0" type="curve"/>
      <point x="881.0" y="183.0" type="line"/>
      <point x="734.0" y="-52.0" type="line" smooth="yes"/>
      <point x="645.0" y="-195.0"/>
      <point x="622.0" y="-263.0"/>
      <point x="622.0" y="-331.0" type="curve" smooth="yes"/>
      <point x="622.0" y="-412.0"/>
      <point x="670.0" y="-465.0"/>
      <point x="755.0" y="-465.0" type="curve" smooth="yes"/>
      <point x="812.0" y="-465.0"/>
      <point x="848.0" y="-458.0"/>
      <point x="937.0" y="-360.0" type="curve"/>
      <point x="928.0" y="-351.0" type="line"/>
      <point x="880.0" y="-401.0"/>
      <point x="836.0" y="-414.0"/>
      <point x="793.0" y="-414.0" type="curve" smooth="yes"/>
      <point x="718.0" y="-414.0"/>
      <point x="685.0" y="-373.0"/>
      <point x="685.0" y="-293.0" type="curve" smooth="yes"/>
      <point x="685.0" y="-228.0"/>
      <point x="693.0" y="-182.0"/>
      <point x="795.0" y="0.0" type="curve" smooth="yes"/>
    </contour>
  </outline>
</glyph>
<glyph name="Hbar" format="2">
	<unicode hex="0126"/>
	<advance width="1537"/>
	<outline>
		<contour>
			<point x="329" y="40" type="line"/>
			<point x="329" y="1390" type="line"/>
			<point x="512" y="1418" type="line"/>
			<point x="512" y="1430" type="line"/>
			<point x="64" y="1430" type="line"/>
			<point x="64" y="1418" type="line"/>
			<point x="248" y="1390" type="line"/>
			<point x="248" y="40" type="line"/>
			<point x="64" y="12" type="line"/>
			<point x="64" y="0" type="line"/>
			<point x="512" y="0" type="line"/>
			<point x="512" y="12" type="line"/>
		</contour>
		<contour>
			<point x="1290" y="40" type="line"/>
			<point x="1290" y="1390" type="line"/>
			<point x="1473" y="1418" type="line"/>
			<point x="1473" y="1430" type="line"/>
			<point x="1025" y="1430" type="line"/>
			<point x="1025" y="1418" type="line"/>
			<point x="1209" y="1390" type="line"/>
			<point x="1209" y="40" type="line"/>
			<point x="1025" y="12" type="line"/>
			<point x="1025" y="0" type="line"/>
			<point x="1473" y="0" type="line"/>
			<point x="1473" y="12" type="line"/>
		</contour>
		<contour>
			<point x="64" y="1061" type="line"/>
			<point x="1473" y="1061" type="line"/>
			<point x="1473" y="1113" type="line"/>
			<point x="64" y="1113" type="line"/>
		</contour>
		<contour>
			<point x="265" y="728" type="line"/>
			<point x="1272" y="728" type="line"/>
			<point x="1272" y="758" type="line"/>
			<point x="265" y="758" type="line"/>
		</contour>
	</outline>
</glyph>
<glyph name="hbar" format="2">
	<unicode hex="0127"/>
	<advance width="1109"/>
	<outline>
		<contour>
			<point x="711" y="10" type="line"/>
			<point x="711" y="0" type="line"/>
			<point x="1080" y="0" type="line"/>
			<point x="1080" y="10" type="line"/>
			<point x="934" y="28" type="line"/>
			<point x="934" y="715" type="line" smooth="yes"/>
			<point x="934" y="955"/>
			<point x="856" y="1044"/>
			<point x="645" y="1044" type="curve" smooth="yes"/>
			<point x="527" y="1044"/>
			<point x="432" y="1016"/>
			<point x="239" y="890" type="curve"/>
			<point x="239" y="875" type="line"/>
			<point x="334" y="938"/>
			<point x="479" y="982"/>
			<point x="607" y="982" type="curve" smooth="yes"/>
			<point x="792" y="982"/>
			<point x="857" y="916"/>
			<point x="857" y="679" type="curve" smooth="yes"/>
			<point x="857" y="28" type="line"/>
		</contour>
		<contour>
			<point x="399" y="0" type="line"/>
			<point x="399" y="10" type="line"/>
			<point x="254" y="28" type="line"/>
			<point x="254" y="1377" type="line"/>
			<point x="254" y="1484" type="line"/>
			<point x="246" y="1484" type="line"/>
			<point x="-17" y="1436" type="line"/>
			<point x="-17" y="1421" type="line"/>
			<point x="61" y="1403.3092783505"/>
			<point x="151" y="1382.8969072165"/>
			<point x="177" y="1377" type="curve"/>
			<point x="177" y="28" type="line"/>
			<point x="28" y="10" type="line"/>
			<point x="28" y="0" type="line"/>
		</contour>
		<contour>
			<point x="-16" y="1185" type="line"/>
			<point x="620" y="1185" type="line"/>
			<point x="620" y="1237" type="line"/>
			<point x="-16" y="1237" type="line"/>
		</contour>
	</outline>
</glyph>
<glyph name="Iogonek" format="2">
	<unicode hex="012E"/>
	<advance width="568"/>
	<outline>
		<contour>
			<point x="508" y="12" type="line"/>
			<point x="325" y="40" type="line"/>
			<point x="325" y="1390" type="line"/>
			<point x="509" y="1418" type="line"/>
			<point x="509" y="1430" type="line"/>
			<point x="61" y="1430" type="line"/>
			<point x="61" y="1418" type="line"/>
			<point x="244" y="1390" type="line"/>
			<point x="244" y="40" type="line"/>
			<point x="60" y="12" type="line"/>
			<point x="60" y="0" type="line"/>
			<point x="508" y="0" type="line"/>
		</contour>
		<contour>
			<point x="248" y="-112" type="curve" smooth="yes"/>
			<point x="296" y="0" type="line"/>
			<point x="274" y="0" type="line"/>
			<point x="205" y="-130" type="line" smooth="yes"/>
			<point x="133" y="-267"/>
			<point x="126" y="-306"/>
			<point x="126" y="-344" type="curve" smooth="yes"/>
			<point x="126" y="-419"/>
			<point x="169" y="-465"/>
			<point x="242" y="-465" type="curve" smooth="yes"/>
			<point x="296" y="-465"/>
			<point x="327" y="-455"/>
			<point x="414" y="-360" type="curve"/>
			<point x="405" y="-351" type="line"/>
			<point x="359" y="-395"/>
			<point x="321" y="-409"/>
			<point x="281" y="-409" type="curve" smooth="yes"/>
			<point x="221" y="-409"/>
			<point x="192" y="-379"/>
			<point x="192" y="-304" type="curve" smooth="yes"/>
			<point x="192" y="-257"/>
			<point x="199" y="-220"/>
		</contour>
	</outline>
</glyph>
<glyph name="iogonek" format="2">
	<unicode hex="012F"/>
	<advance width="454"/>
	<outline>
		<contour>
			<point x="228" y="1334" type="curve" smooth="yes"/>
			<point x="275" y="1334"/>
			<point x="303" y="1370"/>
			<point x="303" y="1409" type="curve" smooth="yes"/>
			<point x="303" y="1448"/>
			<point x="275" y="1484"/>
			<point x="228" y="1484" type="curve" smooth="yes"/>
			<point x="181" y="1484"/>
			<point x="153" y="1448"/>
			<point x="153" y="1409" type="curve" smooth="yes"/>
			<point x="153" y="1370"/>
			<point x="181" y="1334"/>
		</contour>
		<contour>
			<point x="275" y="1055" type="line"/>
			<point x="267" y="1055" type="line"/>
			<point x="34" y="1027" type="line"/>
			<point x="34" y="1012" type="line"/>
			<point x="95" y="999.3536585366"/>
			<point x="176" y="982.5609756098"/>
			<point x="198" y="978" type="curve"/>
			<point x="198" y="28" type="line"/>
			<point x="49" y="10" type="line"/>
			<point x="49" y="0" type="line"/>
			<point x="420" y="0" type="line"/>
			<point x="420" y="10" type="line"/>
			<point x="275" y="28" type="line"/>
			<point x="275" y="984" type="line"/>
		</contour>
		<contour>
			<point x="219" y="-71" type="curve" smooth="yes"/>
			<point x="249" y="10" type="line"/>
			<point x="225" y="9" type="line"/>
			<point x="160" y="-121" type="line" smooth="yes"/>
			<point x="101" y="-239"/>
			<point x="80" y="-297"/>
			<point x="80" y="-346" type="curve" smooth="yes"/>
			<point x="80" y="-410"/>
			<point x="122" y="-465"/>
			<point x="209" y="-465" type="curve" smooth="yes"/>
			<point x="272" y="-465"/>
			<point x="307" y="-442"/>
			<point x="384" y="-359" type="curve"/>
			<point x="375" y="-350" type="line"/>
			<point x="331" y="-389"/>
			<point x="298" y="-399"/>
			<point x="262" y="-399" type="curve" smooth="yes"/>
			<point x="200" y="-399"/>
			<point x="168" y="-362"/>
			<point x="168" y="-305" type="curve" smooth="yes"/>
			<point x="168" y="-254"/>
			<point x="175" y="-190"/>
		</contour>
	</outline>
</glyph>
<glyph name="dotlessi" format="2">
	<unicode hex="0131"/>
	<advance width="454"/>
	<outline>
		<contour>
			<point x="275" y="1055" type="line"/>
			<point x="267" y="1055" type="line"/>
			<point x="34" y="1027" type="line"/>
			<point x="34" y="1012" type="line"/>
			<point x="95" y="999.3536585366"/>
			<point x="176" y="982.5609756098"/>
			<point x="198" y="978" type="curve"/>
			<point x="198" y="28" type="line"/>
			<point x="49" y="10" type="line"/>
			<point x="49" y="0" type="line"/>
			<point x="420" y="0" type="line"/>
			<point x="420" y="10" type="line"/>
			<point x="275" y="28" type="line"/>
			<point x="275" y="984" type="line"/>
		</contour>
	</outline>
	<anchor name="top" x="217" y="1024"/>
	<anchor name="right" x="237" y="0"/>
	<anchor name="bottom" x="237" y="0"/>
</glyph>
<glyph name="kgreenlandic" format="2">
	<unicode hex="0138"/>
	<advance width="1078"/>
	<outline>
		<contour>
			<point x="285" y="518" type="line"/>
			<point x="866" y="26" type="line"/>
			<point x="733" y="10" type="line"/>
			<point x="733" y="0" type="line"/>
			<point x="1097" y="0" type="line"/>
			<point x="1097" y="10" type="line"/>
			<point x="975" y="26" type="line"/>
			<point x="336" y="573" type="line"/>
			<point x="327" y="548" type="line"/>
			<point x="890" y="996" type="line"/>
			<point x="1033" y="1014" type="line"/>
			<point x="1033" y="1024" type="line"/>
			<point x="696" y="1024" type="line"/>
			<point x="696" y="1014" type="line"/>
			<point x="847" y="996" type="line"/>
			<point x="284" y="547" type="line"/>
			<point x="231" y="547" type="line"/>
			<point x="231" y="518" type="line"/>
		</contour>
		<contour>
			<point x="271" y="1055" type="line"/>
			<point x="263" y="1055" type="line"/>
			<point x="30" y="1027" type="line"/>
			<point x="30" y="1012" type="line"/>
			<point x="91" y="999.3536585366"/>
			<point x="172" y="982.5609756098"/>
			<point x="194" y="978" type="curve"/>
			<point x="194" y="28" type="line"/>
			<point x="45" y="10" type="line"/>
			<point x="45" y="0" type="line"/>
			<point x="416" y="0" type="line"/>
			<point x="416" y="10" type="line"/>
			<point x="271" y="28" type="line"/>
			<point x="271" y="984" type="line"/>
		</contour>
	</outline>
</glyph>
<glyph name="Lslash" format="2">
	<unicode hex="0141"/>
	<advance width="1195"/>
	<outline>
		<contour>
			<point x="301" y="652" type="line"/>
			<point x="332" y="660" type="line"/>
			<point x="709" y="858" type="line"/>
			<point x="709" y="912" type="line"/>
			<point x="332" y="714" type="line"/>
			<point x="301" y="706" type="line"/>
			<point x="91" y="597" type="line"/>
			<point x="91" y="543" type="line"/>
		</contour>
		<contour>
			<point x="1067" y="-49" type="line"/>
			<point x="1171" y="371" type="line"/>
			<point x="1159" y="375" type="line"/>
			<point x="988" y="17" type="line"/>
			<point x="1031" y="30" type="line"/>
			<point x="277" y="30" type="line"/>
			<point x="277" y="0" type="line"/>
			<point x="992" y="0" type="line"/>
			<point x="1061" y="-49" type="line"/>
		</contour>
		<contour>
			<point x="356" y="1390" type="line"/>
			<point x="540" y="1418" type="line"/>
			<point x="540" y="1430" type="line"/>
			<point x="91" y="1430" type="line"/>
			<point x="91" y="1418" type="line"/>
			<point x="275" y="1390" type="line"/>
			<point x="275" y="40" type="line"/>
			<point x="91" y="12" type="line"/>
			<point x="91" y="0" type="line"/>
			<point x="356" y="0" type="line"/>
		</contour>
	</outline>
</glyph>
<glyph name="lslash" format="2">
	<unicode hex="0142"/>
	<advance width="502"/>
	<outline>
		<contour>
			<point x="234" y="643" type="line"/>
			<point x="278" y="664" type="line"/>
			<point x="458" y="792" type="line"/>
			<point x="458" y="854" type="line"/>
			<point x="278" y="726" type="line"/>
			<point x="234" y="705" type="line"/>
			<point x="47" y="573" type="line"/>
			<point x="47" y="511" type="line"/>
		</contour>
		<contour>
			<point x="293" y="28" type="line"/>
			<point x="293" y="1377" type="line"/>
			<point x="293" y="1484" type="line"/>
			<point x="285" y="1484" type="line"/>
			<point x="22" y="1436" type="line"/>
			<point x="22" y="1421" type="line"/>
			<point x="100" y="1403.3092783505"/>
			<point x="190" y="1382.8969072165"/>
			<point x="216" y="1377" type="curve"/>
			<point x="216" y="28" type="line"/>
			<point x="67" y="10" type="line"/>
			<point x="67" y="0" type="line"/>
			<point x="438" y="0" type="line"/>
			<point x="438" y="10" type="line"/>
		</contour>
	</outline>
</glyph>
<glyph name="Eng" format="2">
	<unicode hex="014A"/>
	<advance width="1536"/>
	<outline>
		<contour>
			<point x="1285" y="107" type="line"/>
			<point x="330" y="1430" type="line"/>
			<point x="51" y="1430" type="line"/>
			<point x="51" y="1418" type="line"/>
			<point x="247" y="1390" type="line"/>
			<point x="247" y="40" type="line"/>
			<point x="63" y="12" type="line"/>
			<point x="63" y="0" type="line"/>
			<point x="460" y="0" type="line"/>
			<point x="460" y="12" type="line"/>
			<point x="277" y="40" type="line"/>
			<point x="277" y="1387" type="line"/>
			<point x="263" y="1389" type="line"/>
			<point x="1282" y="-20" type="line"/>
		</contour>
		<contour>
			<point x="1300" y="-18" type="curve" smooth="yes"/>
			<point x="1300" y="1390" type="line"/>
			<point x="1484" y="1418" type="line"/>
			<point x="1484" y="1430" type="line"/>
			<point x="1087" y="1430" type="line"/>
			<point x="1087" y="1418" type="line"/>
			<point x="1270" y="1390" type="line"/>
			<point x="1270" y="1" type="line" smooth="yes"/>
			<point x="1270" y="-328"/>
			<point x="1141" y="-412"/>
			<point x="1003" y="-412" type="curve" smooth="yes"/>
			<point x="934" y="-412"/>
			<point x="879" y="-380"/>
			<point x="860" y="-380" type="curve" smooth="yes"/>
			<point x="844" y="-380"/>
			<point x="826" y="-387"/>
			<point x="826" y="-413" type="curve" smooth="yes"/>
			<point x="826" y="-445"/>
			<point x="855" y="-465"/>
			<point x="906" y="-465" type="curve" smooth="yes"/>
			<point x="1130" y="-465"/>
			<point x="1300" y="-359"/>
		</contour>
	</outline>
</glyph>
<glyph name="eng" format="2">
	<unicode hex="014B"/>
	<advance width="1086"/>
	<outline>
		<contour>
			<point x="271" y="887" type="line"/>
			<point x="271" y="1055" type="line"/>
			<point x="263" y="1055" type="line"/>
			<point x="30" y="1027" type="line"/>
			<point x="30" y="1012" type="line"/>
			<point x="121" y="993.1341463415"/>
			<point x="172" y="982.5609756098"/>
			<point x="194" y="978" type="curve"/>
			<point x="194" y="28" type="line"/>
			<point x="45" y="10" type="line"/>
			<point x="45" y="0" type="line"/>
			<point x="416" y="0" type="line"/>
			<point x="416" y="10" type="line"/>
			<point x="271" y="28" type="line"/>
		</contour>
		<contour>
			<point x="874" y="-109" type="line" smooth="yes"/>
			<point x="874" y="-232"/>
			<point x="862" y="-261"/>
			<point x="697" y="-454" type="curve"/>
			<point x="709" y="-465" type="line"/>
			<point x="945" y="-229"/>
			<point x="951" y="-193"/>
			<point x="951" y="-85" type="curve" smooth="yes"/>
			<point x="951" y="715" type="line" smooth="yes"/>
			<point x="951" y="955"/>
			<point x="873" y="1044"/>
			<point x="662" y="1044" type="curve" smooth="yes"/>
			<point x="544" y="1044"/>
			<point x="449" y="1016"/>
			<point x="256" y="890" type="curve"/>
			<point x="256" y="875" type="line"/>
			<point x="351" y="938"/>
			<point x="496" y="982"/>
			<point x="624" y="982" type="curve" smooth="yes"/>
			<point x="809" y="982"/>
			<point x="874" y="916"/>
			<point x="874" y="679" type="curve" smooth="yes"/>
		</contour>
	</outline>
</glyph>
<glyph name="OE" format="2">
	<unicode hex="0152"/>
	<advance width="2141"/>
	<outline>
		<contour>
			<point x="1769" y="1034" type="line"/>
			<point x="1759" y="1034" type="line"/>
			<point x="1676" y="773" type="line"/>
			<point x="1195" y="761" type="line"/>
			<point x="1195" y="736" type="line"/>
			<point x="1676" y="726" type="line"/>
			<point x="1759" y="463" type="line"/>
			<point x="1769" y="463" type="line"/>
			<point x="1734" y="748" type="line"/>
		</contour>
		<contour>
			<point x="1137" y="1430" type="line"/>
			<point x="1137" y="0" type="line"/>
			<point x="1218" y="0" type="line"/>
			<point x="1218" y="1430" type="line"/>
		</contour>
		<contour>
			<point x="924" y="0" type="curve" smooth="yes"/>
			<point x="1915" y="0" type="line"/>
			<point x="1984" y="-49" type="line"/>
			<point x="1990" y="-49" type="line"/>
			<point x="2094" y="371" type="line"/>
			<point x="2082" y="375" type="line"/>
			<point x="1911" y="17" type="line"/>
			<point x="1954" y="30" type="line"/>
			<point x="979" y="30" type="line" smooth="yes"/>
			<point x="477" y="30"/>
			<point x="187" y="254"/>
			<point x="187" y="698" type="curve" smooth="yes"/>
			<point x="187" y="1196"/>
			<point x="482" y="1400"/>
			<point x="947" y="1400" type="curve" smooth="yes"/>
			<point x="1923" y="1400" type="line"/>
			<point x="1871" y="1415" type="line"/>
			<point x="2013" y="1072" type="line"/>
			<point x="2027" y="1077" type="line"/>
			<point x="1946" y="1473" type="line"/>
			<point x="1942" y="1473" type="line"/>
			<point x="1884" y="1430" type="line"/>
			<point x="915" y="1430" type="line" smooth="yes"/>
			<point x="451" y="1430"/>
			<point x="100" y="1182"/>
			<point x="100" y="696" type="curve" smooth="yes"/>
			<point x="100" y="251"/>
			<point x="385" y="0"/>
		</contour>
	</outline>
</glyph>
<glyph name="oe" format="2">
	<unicode hex="0153"/>
	<advance width="1844"/>
	<outline>
		<contour>
			<point x="556" y="4" type="curve" smooth="yes"/>
			<point x="323" y="4"/>
			<point x="162" y="207"/>
			<point x="162" y="503" type="curve" smooth="yes"/>
			<point x="162" y="809"/>
			<point x="322" y="1020"/>
			<point x="556" y="1020" type="curve" smooth="yes"/>
			<point x="789" y="1020"/>
			<point x="950" y="817"/>
			<point x="950" y="521" type="curve" smooth="yes"/>
			<point x="950" y="215"/>
			<point x="790" y="4"/>
		</contour>
		<contour>
			<point x="1007" y="312" type="curve"/>
			<point x="987" y="312" type="line"/>
			<point x="1048" y="84"/>
			<point x="1200" y="-20"/>
			<point x="1406" y="-20" type="curve" smooth="yes"/>
			<point x="1556" y="-20"/>
			<point x="1653" y="40"/>
			<point x="1796" y="222" type="curve"/>
			<point x="1785" y="231" type="line"/>
			<point x="1654" y="90"/>
			<point x="1565" y="50"/>
			<point x="1427" y="50" type="curve" smooth="yes"/>
			<point x="1188" y="50"/>
			<point x="1034" y="237"/>
			<point x="1034" y="565" type="curve" smooth="yes"/>
			<point x="1034" y="833"/>
			<point x="1140" y="1011"/>
			<point x="1401" y="1011" type="curve" smooth="yes"/>
			<point x="1560" y="1011"/>
			<point x="1656" y="903"/>
			<point x="1678" y="700" type="curve"/>
			<point x="1707" y="715" type="line"/>
			<point x="1012" y="715" type="line"/>
			<point x="1014" y="691" type="line"/>
			<point x="1762" y="691" type="line"/>
			<point x="1753" y="890"/>
			<point x="1635" y="1044"/>
			<point x="1419" y="1044" type="curve" smooth="yes"/>
			<point x="1197" y="1044"/>
			<point x="1047" y="907"/>
			<point x="979" y="695" type="curve"/>
			<point x="1003" y="695" type="line"/>
			<point x="932" y="908"/>
			<point x="775" y="1044"/>
			<point x="558" y="1044" type="curve" smooth="yes"/>
			<point x="287" y="1044"/>
			<point x="78" y="838"/>
			<point x="78" y="503" type="curve" smooth="yes"/>
			<point x="78" y="178"/>
			<point x="299" y="-20"/>
			<point x="554" y="-20" type="curve" smooth="yes"/>
			<point x="750" y="-20"/>
			<point x="922" y="97"/>
		</contour>
	</outline>
	<anchor name="top" x="992" y="1024"/>
	<anchor name="bottom" x="992" y="0"/>
</glyph>
<glyph name="Scedilla" format="2">
  <advance width="1038"/>
  <unicode hex="015E"/>
  <outline>
    <contour>
      <point x="790.0" y="1382.0" type="line"/>
      <point x="692.0" y="1432.0"/>
      <point x="613.0" y="1450.0"/>
      <point x="515.0" y="1450.0" type="curve" smooth="yes"/>
      <point x="282.0" y="1450.0"/>
      <point x="139.0" y="1317.0"/>
      <point x="139.0" y="1126.0" type="curve" smooth="yes"/>
      <point x="139.0" y="954.0"/>
      <point x="213.0" y="833.0"/>
      <point x="510.0" y="723.0" type="curve" smooth="yes"/>
      <point x="807.0" y="613.0"/>
      <point x="883.0" y="511.0"/>
      <point x="883.0" y="353.0" type="curve" smooth="yes"/>
      <point x="883.0" y="132.0"/>
      <point x="702.0" y="6.0"/>
      <point x="474.0" y="6.0" type="curve" smooth="yes"/>
      <point x="356.0" y="6.0"/>
      <point x="254.0" y="33.0"/>
      <point x="181.0" y="80.0" type="curve"/>
      <point x="256.0" y="9.0" type="line"/>
      <point x="102.0" y="382.0" type="line"/>
      <point x="83.0" y="382.0" type="line"/>
      <point x="158.0" y="39.0" type="line"/>
      <point x="257.0" y="-1.0"/>
      <point x="350.0" y="-20.0"/>
      <point x="473.0" y="-20.0" type="curve" smooth="yes"/>
      <point x="746.0" y="-20.0"/>
      <point x="943.0" y="141.0"/>
      <point x="943.0" y="388.0" type="curve" smooth="yes"/>
      <point x="943.0" y="563.0"/>
      <point x="865.0" y="690.0"/>
      <point x="572.0" y="795.0" type="curve" smooth="yes"/>
      <point x="279.0" y="900.0"/>
      <point x="198.0" y="998.0"/>
      <point x="198.0" y="1154.0" type="curve" smooth="yes"/>
      <point x="198.0" y="1316.0"/>
      <point x="307.0" y="1425.0"/>
      <point x="495.0" y="1425.0" type="curve" smooth="yes"/>
      <point x="612.0" y="1425.0"/>
      <point x="710.0" y="1384.0"/>
      <point x="832.0" y="1251.0" type="curve"/>
      <point x="754.0" y="1351.0" type="line"/>
      <point x="879.0" y="1030.0" type="line"/>
      <point x="895.0" y="1032.0" type="line"/>
      <point x="825.0" y="1479.0" type="line"/>
      <point x="820.0" y="1479.0" type="line"/>
      <point x="774.0" y="1382.0" type="line"/>
    </contour>
    <contour>
      <point x="440.0" y="-465.0" type="curve" smooth="yes"/>
      <point x="560.0" y="-465.0"/>
      <point x="656.0" y="-398.0"/>
      <point x="656.0" y="-294.0" type="curve" smooth="yes"/>
      <point x="656.0" y="-237.0"/>
      <point x="618.0" y="-179.0"/>
      <point x="465.0" y="-129.0" type="curve"/>
      <point x="466.0" y="-151.0" type="line"/>
      <point x="559.0" y="0.0" type="line"/>
      <point x="531.0" y="0.0" type="line"/>
      <point x="414.0" y="-177.0" type="line"/>
      <point x="414.0" y="-181.0" type="line"/>
      <point x="562.0" y="-225.0"/>
      <point x="602.0" y="-275.0"/>
      <point x="602.0" y="-332.0" type="curve" smooth="yes"/>
      <point x="602.0" y="-390.0"/>
      <point x="547.0" y="-434.0"/>
      <point x="493.0" y="-434.0" type="curve" smooth="yes"/>
      <point x="417.0" y="-434.0"/>
      <point x="387.0" y="-373.0"/>
      <point x="372.0" y="-373.0" type="curve" smooth="yes"/>
      <point x="349.0" y="-373.0"/>
      <point x="337.0" y="-392.0"/>
      <point x="337.0" y="-411.0" type="curve" smooth="yes"/>
      <point x="337.0" y="-442.0"/>
      <point x="363.0" y="-465.0"/>
    </contour>
  </outline>
</glyph>
<glyph name="scedilla" format="2">
	<unicode hex="015F"/>
	<advance width="786"/>
	<outline>
		<contour>
			<point x="427" y="1044" type="curve" smooth="yes"/>
			<point x="253" y="1044"/>
			<point x="113" y="942"/>
			<point x="113" y="783" type="curve" smooth="yes"/>
			<point x="113" y="601"/>
			<point x="247" y="549"/>
			<point x="378" y="501" type="curve" smooth="yes"/>
			<point x="509" y="453"/>
			<point x="640" y="408"/>
			<point x="640" y="245" type="curve" smooth="yes"/>
			<point x="640" y="112"/>
			<point x="548" y="8"/>
			<point x="390" y="8" type="curve" smooth="yes"/>
			<point x="283" y="8"/>
			<point x="199" y="47"/>
			<point x="165" y="95" type="curve"/>
			<point x="211" y="18" type="line"/>
			<point x="81" y="306" type="line"/>
			<point x="68" y="306" type="line"/>
			<point x="129" y="29" type="line"/>
			<point x="196" y="-5"/>
			<point x="274" y="-20"/>
			<point x="362" y="-20" type="curve" smooth="yes"/>
			<point x="567" y="-20"/>
			<point x="703" y="112"/>
			<point x="703" y="274" type="curve" smooth="yes"/>
			<point x="703" y="467"/>
			<point x="557" y="524"/>
			<point x="424" y="574" type="curve" smooth="yes"/>
			<point x="291" y="624"/>
			<point x="172" y="668"/>
			<point x="172" y="811" type="curve" smooth="yes"/>
			<point x="172" y="931"/>
			<point x="256" y="1019"/>
			<point x="419" y="1019" type="curve" smooth="yes"/>
			<point x="482" y="1019"/>
			<point x="540" y="991"/>
			<point x="590" y="937" type="curve"/>
			<point x="561" y="973" type="line"/>
			<point x="659" y="732" type="line"/>
			<point x="673" y="732" type="line"/>
			<point x="641" y="977" type="line"/>
			<point x="570" y="1023"/>
			<point x="504" y="1044"/>
		</contour>
		<contour>
			<point x="314" y="-465" type="curve" smooth="yes"/>
			<point x="434" y="-465"/>
			<point x="530" y="-398"/>
			<point x="530" y="-294" type="curve" smooth="yes"/>
			<point x="530" y="-237"/>
			<point x="492" y="-179"/>
			<point x="339" y="-129" type="curve"/>
			<point x="340" y="-151" type="line"/>
			<point x="433" y="0" type="line"/>
			<point x="405" y="0" type="line"/>
			<point x="288" y="-177" type="line"/>
			<point x="288" y="-181" type="line"/>
			<point x="436" y="-225"/>
			<point x="476" y="-275"/>
			<point x="476" y="-332" type="curve" smooth="yes"/>
			<point x="476" y="-390"/>
			<point x="421" y="-434"/>
			<point x="367" y="-434" type="curve" smooth="yes"/>
			<point x="291" y="-434"/>
			<point x="261" y="-373"/>
			<point x="246" y="-373" type="curve" smooth="yes"/>
			<point x="223" y="-373"/>
			<point x="211" y="-392"/>
			<point x="211" y="-411" type="curve" smooth="yes"/>
			<point x="211" y="-442"/>
			<point x="237" y="-465"/>
		</contour>
	</outline>
</glyph>
<glyph name="uni0162" format="2">
	<unicode hex="0162"/>
	<advance width="1318"/>
	<outline>
		<contour>
			<point x="618" y="1416" type="line"/>
			<point x="618" y="40" type="line"/>
			<point x="434" y="12" type="line"/>
			<point x="434" y="0" type="line"/>
			<point x="882" y="0" type="line"/>
			<point x="882" y="12" type="line"/>
			<point x="699" y="40" type="line"/>
			<point x="699" y="1416" type="line"/>
		</contour>
		<contour>
			<point x="1190" y="1400" type="line"/>
			<point x="1147" y="1419" type="line"/>
			<point x="1258" y="1048" type="line"/>
			<point x="1276" y="1051" type="line"/>
			<point x="1226" y="1498" type="line"/>
			<point x="1220" y="1498" type="line"/>
			<point x="1146" y="1422" type="line"/>
			<point x="1164" y="1430" type="line"/>
			<point x="154" y="1430" type="line"/>
			<point x="172" y="1422" type="line"/>
			<point x="98" y="1498" type="line"/>
			<point x="92" y="1498" type="line"/>
			<point x="42" y="1051" type="line"/>
			<point x="60" y="1048" type="line"/>
			<point x="171" y="1419" type="line"/>
			<point x="128" y="1400" type="line"/>
		</contour>
		<contour>
			<point x="568" y="-465" type="curve" smooth="yes"/>
			<point x="688" y="-465"/>
			<point x="784" y="-398"/>
			<point x="784" y="-294" type="curve" smooth="yes"/>
			<point x="784" y="-237"/>
			<point x="746" y="-179"/>
			<point x="593" y="-129" type="curve"/>
			<point x="594" y="-151" type="line"/>
			<point x="687" y="0" type="line"/>
			<point x="659" y="0" type="line"/>
			<point x="542" y="-177" type="line"/>
			<point x="542" y="-181" type="line"/>
			<point x="690" y="-225"/>
			<point x="730" y="-275"/>
			<point x="730" y="-332" type="curve" smooth="yes"/>
			<point x="730" y="-390"/>
			<point x="675" y="-434"/>
			<point x="621" y="-434" type="curve" smooth="yes"/>
			<point x="545" y="-434"/>
			<point x="515" y="-373"/>
			<point x="500" y="-373" type="curve" smooth="yes"/>
			<point x="477" y="-373"/>
			<point x="465" y="-392"/>
			<point x="465" y="-411" type="curve" smooth="yes"/>
			<point x="465" y="-442"/>
			<point x="491" y="-465"/>
		</contour>
	</outline>
</glyph>
<glyph name="uni0163" format="2">
	<unicode hex="0163"/>
	<advance width="632"/>
	<outline>
		<contour>
			<point x="251" y="220" type="curve" smooth="yes"/>
			<point x="251" y="987" type="line"/>
			<point x="251" y="1119" type="line"/>
			<point x="247" y="1119" type="line"/>
			<point x="115" y="1057"/>
			<point x="164" y="1080"/>
			<point x="38" y="1022" type="curve"/>
			<point x="38" y="1011" type="line"/>
			<point x="174" y="953" type="line"/>
			<point x="174" y="201" type="line" smooth="yes"/>
			<point x="174" y="62"/>
			<point x="261" y="-12"/>
			<point x="365" y="-12" type="curve" smooth="yes"/>
			<point x="445" y="-12"/>
			<point x="482" y="-3"/>
			<point x="647" y="69" type="curve"/>
			<point x="647" y="79" type="line"/>
			<point x="553" y="56"/>
			<point x="501" y="47"/>
			<point x="428" y="47" type="curve" smooth="yes"/>
			<point x="305" y="47"/>
			<point x="251" y="108"/>
		</contour>
		<contour>
			<point x="230" y="968" type="line"/>
			<point x="609" y="968" type="line"/>
			<point x="619" y="1024" type="line"/>
			<point x="230" y="1024" type="line"/>
		</contour>
		<contour>
			<point x="281" y="-465" type="curve" smooth="yes"/>
			<point x="401" y="-465"/>
			<point x="497" y="-398"/>
			<point x="497" y="-294" type="curve" smooth="yes"/>
			<point x="497" y="-237"/>
			<point x="459" y="-179"/>
			<point x="306" y="-129" type="curve"/>
			<point x="307" y="-151" type="line"/>
			<point x="400" y="0" type="line"/>
			<point x="372" y="0" type="line"/>
			<point x="255" y="-177" type="line"/>
			<point x="255" y="-181" type="line"/>
			<point x="403" y="-225"/>
			<point x="443" y="-275"/>
			<point x="443" y="-332" type="curve" smooth="yes"/>
			<point x="443" y="-390"/>
			<point x="388" y="-434"/>
			<point x="334" y="-434" type="curve" smooth="yes"/>
			<point x="258" y="-434"/>
			<point x="228" y="-373"/>
			<point x="213" y="-373" type="curve" smooth="yes"/>
			<point x="190" y="-373"/>
			<point x="178" y="-392"/>
			<point x="178" y="-411" type="curve" smooth="yes"/>
			<point x="178" y="-442"/>
			<point x="204" y="-465"/>
		</contour>
	</outline>
</glyph>
<glyph name="Tbar" format="2">
	<unicode hex="0166"/>
	<advance width="1322"/>
	<outline>
		<contour>
			<point x="307" y="711" type="line"/>
			<point x="1014" y="711" type="line"/>
			<point x="1014" y="763" type="line"/>
			<point x="307" y="763" type="line"/>
		</contour>
		<contour>
			<point x="620" y="1416" type="line"/>
			<point x="620" y="40" type="line"/>
			<point x="436" y="12" type="line"/>
			<point x="436" y="0" type="line"/>
			<point x="884" y="0" type="line"/>
			<point x="884" y="12" type="line"/>
			<point x="701" y="40" type="line"/>
			<point x="701" y="1416" type="line"/>
		</contour>
		<contour>
			<point x="1192" y="1400" type="line"/>
			<point x="1149" y="1419" type="line"/>
			<point x="1260" y="1048" type="line"/>
			<point x="1278" y="1051" type="line"/>
			<point x="1228" y="1498" type="line"/>
			<point x="1222" y="1498" type="line"/>
			<point x="1148" y="1422" type="line"/>
			<point x="1166" y="1430" type="line"/>
			<point x="156" y="1430" type="line"/>
			<point x="174" y="1422" type="line"/>
			<point x="100" y="1498" type="line"/>
			<point x="94" y="1498" type="line"/>
			<point x="44" y="1051" type="line"/>
			<point x="62" y="1048" type="line"/>
			<point x="173" y="1419" type="line"/>
			<point x="130" y="1400" type="line"/>
		</contour>
	</outline>
</glyph>
<glyph name="tbar" format="2">
	<unicode hex="0167"/>
	<advance width="638"/>
	<outline>
		<contour>
			<point x="43" y="534" type="line"/>
			<point x="569" y="534" type="line"/>
			<point x="569" y="586" type="line"/>
			<point x="43" y="586" type="line"/>
		</contour>
		<contour>
			<point x="254" y="220" type="curve" smooth="yes"/>
			<point x="254" y="987" type="line"/>
			<point x="254" y="1119" type="line"/>
			<point x="250" y="1119" type="line"/>
			<point x="118" y="1057"/>
			<point x="167" y="1080"/>
			<point x="41" y="1022" type="curve"/>
			<point x="41" y="1011" type="line"/>
			<point x="177" y="953" type="line"/>
			<point x="177" y="201" type="line" smooth="yes"/>
			<point x="177" y="62"/>
			<point x="264" y="-12"/>
			<point x="368" y="-12" type="curve" smooth="yes"/>
			<point x="448" y="-12"/>
			<point x="485" y="-3"/>
			<point x="650" y="69" type="curve"/>
			<point x="650" y="79" type="line"/>
			<point x="556" y="56"/>
			<point x="504" y="47"/>
			<point x="431" y="47" type="curve" smooth="yes"/>
			<point x="308" y="47"/>
			<point x="254" y="108"/>
		</contour>
		<contour>
			<point x="233" y="968" type="line"/>
			<point x="612" y="968" type="line"/>
			<point x="622" y="1024" type="line"/>
			<point x="233" y="1024" type="line"/>
		</contour>
	</outline>
</glyph>
<glyph name="Uogonek" format="2">
	<unicode hex="0172"/>
	<advance width="1507"/>
	<outline>
		<contour>
			<point x="1258" y="549" type="line" smooth="yes"/>
			<point x="1258" y="197"/>
			<point x="1094" y="27"/>
			<point x="774" y="27" type="curve" smooth="yes"/>
			<point x="458" y="27"/>
			<point x="298" y="229"/>
			<point x="298" y="583" type="curve" smooth="yes"/>
			<point x="298" y="1390" type="line"/>
			<point x="481" y="1418" type="line"/>
			<point x="481" y="1430" type="line"/>
			<point x="33" y="1430" type="line"/>
			<point x="33" y="1418" type="line"/>
			<point x="217" y="1390" type="line"/>
			<point x="217" y="578" type="line" smooth="yes"/>
			<point x="217" y="172"/>
			<point x="411" y="-20"/>
			<point x="757" y="-20" type="curve" smooth="yes"/>
			<point x="1087" y="-20"/>
			<point x="1288" y="156"/>
			<point x="1288" y="549" type="curve" smooth="yes"/>
			<point x="1288" y="1390" type="line"/>
			<point x="1471" y="1418" type="line"/>
			<point x="1471" y="1430" type="line"/>
			<point x="1072" y="1430" type="line"/>
			<point x="1072" y="1418" type="line"/>
			<point x="1258" y="1390" type="line"/>
		</contour>
		<contour>
			<point x="789" y="-112" type="curve" smooth="yes"/>
			<point x="837" y="0" type="line"/>
			<point x="815" y="0" type="line"/>
			<point x="746" y="-130" type="line" smooth="yes"/>
			<point x="674" y="-267"/>
			<point x="667" y="-306"/>
			<point x="667" y="-344" type="curve" smooth="yes"/>
			<point x="667" y="-419"/>
			<point x="710" y="-465"/>
			<point x="783" y="-465" type="curve" smooth="yes"/>
			<point x="837" y="-465"/>
			<point x="868" y="-455"/>
			<point x="955" y="-360" type="curve"/>
			<point x="946" y="-351" type="line"/>
			<point x="900" y="-395"/>
			<point x="862" y="-409"/>
			<point x="822" y="-409" type="curve" smooth="yes"/>
			<point x="762" y="-409"/>
			<point x="733" y="-379"/>
			<point x="733" y="-304" type="curve" smooth="yes"/>
			<point x="733" y="-257"/>
			<point x="740" y="-220"/>
		</contour>
	</outline>
</glyph>
<glyph name="uogonek" format="2">
	<unicode hex="0173"/>
	<advance width="1099"/>
	<outline>
		<contour>
			<point x="265" y="331" type="curve" smooth="yes"/>
			<point x="265" y="976" type="line"/>
			<point x="273" y="1044" type="line"/>
			<point x="-18" y="1024" type="line"/>
			<point x="-18" y="1008" type="line"/>
			<point x="188" y="970" type="line"/>
			<point x="188" y="295" type="line" smooth="yes"/>
			<point x="188" y="65"/>
			<point x="263" y="-20"/>
			<point x="465" y="-20" type="curve" smooth="yes"/>
			<point x="577" y="-20"/>
			<point x="668" y="7"/>
			<point x="853" y="127" type="curve"/>
			<point x="853" y="144" type="line"/>
			<point x="762" y="84"/>
			<point x="624" y="42"/>
			<point x="503" y="42" type="curve" smooth="yes"/>
			<point x="327" y="42"/>
			<point x="265" y="105"/>
		</contour>
		<contour>
			<point x="838" y="-31" type="line"/>
			<point x="847" y="-31" type="line"/>
			<point x="1110" y="23" type="line"/>
			<point x="1110" y="34" type="line"/>
			<point x="1068" y="38.9538461538"/>
			<point x="939" y="54.1692307692"/>
			<point x="915" y="57" type="curve"/>
			<point x="915" y="976" type="line"/>
			<point x="926" y="1044" type="line"/>
			<point x="633" y="1024" type="line"/>
			<point x="633" y="1008" type="line"/>
			<point x="838" y="970" type="line"/>
			<point x="838" y="126" type="line"/>
		</contour>
		<contour>
			<point x="811" y="-92" type="curve" smooth="yes"/>
			<point x="872" y="0" type="line"/>
			<point x="850" y="0" type="line"/>
			<point x="750" y="-134" type="line" smooth="yes"/>
			<point x="666" y="-247"/>
			<point x="654" y="-295"/>
			<point x="654" y="-344" type="curve" smooth="yes"/>
			<point x="654" y="-419"/>
			<point x="697" y="-465"/>
			<point x="770" y="-465" type="curve" smooth="yes"/>
			<point x="824" y="-465"/>
			<point x="855" y="-455"/>
			<point x="942" y="-360" type="curve"/>
			<point x="933" y="-351" type="line"/>
			<point x="887" y="-399"/>
			<point x="848" y="-414"/>
			<point x="808" y="-414" type="curve" smooth="yes"/>
			<point x="747" y="-414"/>
			<point x="717" y="-380"/>
			<point x="717" y="-322" type="curve" smooth="yes"/>
			<point x="717" y="-268"/>
			<point x="725" y="-221"/>
		</contour>
	</outline>
</glyph>
<glyph name="uni018F" format="2">
	<unicode hex="018F"/>
	<advance width="1457"/>
	<outline>
		<contour>
			<point x="182" y="503" type="line"/>
			<point x="1271" y="503" type="line"/>
			<point x="1269" y="533" type="line"/>
			<point x="111" y="533" type="line"/>
			<point x="127" y="219"/>
			<point x="307" y="-20"/>
			<point x="668" y="-20" type="curve" smooth="yes"/>
			<point x="1095" y="-20"/>
			<point x="1356" y="327"/>
			<point x="1356" y="725" type="curve" smooth="yes"/>
			<point x="1356" y="1212"/>
			<point x="1109" y="1450"/>
			<point x="681" y="1450" type="curve" smooth="yes"/>
			<point x="449" y="1450"/>
			<point x="279" y="1375"/>
			<point x="65" y="1126" type="curve"/>
			<point x="79" y="1113" type="line"/>
			<point x="271" y="1317"/>
			<point x="430" y="1392"/>
			<point x="664" y="1392" type="curve" smooth="yes"/>
			<point x="1051" y="1392"/>
			<point x="1277" y="1134"/>
			<point x="1277" y="692" type="curve" smooth="yes"/>
			<point x="1277" y="282"/>
			<point x="1056" y="10"/>
			<point x="677" y="10" type="curve" smooth="yes"/>
			<point x="406" y="10"/>
			<point x="223" y="200"/>
			<point x="197" y="523" type="curve"/>
		</contour>
	</outline>
</glyph>
<glyph name="Ohorn" format="2">
	<unicode hex="01A0"/>
	<advance width="1561"/>
	<outline>
		<contour>
			<point x="790" y="10" type="curve" smooth="yes"/>
			<point x="438" y="10"/>
			<point x="185" y="282"/>
			<point x="185" y="727" type="curve" smooth="yes"/>
			<point x="185" y="1130"/>
			<point x="402" y="1420"/>
			<point x="774" y="1420" type="curve" smooth="yes"/>
			<point x="1126" y="1420"/>
			<point x="1379" y="1148"/>
			<point x="1379" y="703" type="curve" smooth="yes"/>
			<point x="1379" y="300"/>
			<point x="1162" y="10"/>
		</contour>
		<contour>
			<point x="770" y="1450" type="curve" smooth="yes"/>
			<point x="382" y="1450"/>
			<point x="98" y="1140"/>
			<point x="98" y="714" type="curve" smooth="yes"/>
			<point x="98" y="290"/>
			<point x="397" y="-20"/>
			<point x="794" y="-20" type="curve" smooth="yes"/>
			<point x="1182" y="-20"/>
			<point x="1466" y="290"/>
			<point x="1466" y="716" type="curve" smooth="yes"/>
			<point x="1466" y="1029"/>
			<point x="1303" y="1292"/>
			<point x="1033" y="1400" type="curve"/>
			<point x="1033" y="1393" type="line"/>
			<point x="1263" y="1362"/>
			<point x="1385" y="1453"/>
			<point x="1385" y="1618" type="curve" smooth="yes"/>
			<point x="1385" y="1686"/>
			<point x="1351" y="1712"/>
			<point x="1311" y="1712" type="curve" smooth="yes"/>
			<point x="1272" y="1712"/>
			<point x="1246" y="1686"/>
			<point x="1246" y="1660" type="curve" smooth="yes"/>
			<point x="1246" y="1652"/>
			<point x="1289" y="1615"/>
			<point x="1289" y="1559" type="curve" smooth="yes"/>
			<point x="1289" y="1468"/>
			<point x="1238" y="1416"/>
			<point x="1111" y="1416" type="curve" smooth="yes"/>
			<point x="988" y="1416"/>
			<point x="901" y="1450"/>
		</contour>
	</outline>
	<anchor name="UCtop" x="782" y="1430"/>
	<anchor name="bottom" x="782" y="0"/>
</glyph>
<glyph name="ohorn" format="2">
	<unicode hex="01A1"/>
	<advance width="1113"/>
	<outline>
		<contour>
			<point x="556" y="4" type="curve" smooth="yes"/>
			<point x="323" y="4"/>
			<point x="162" y="207"/>
			<point x="162" y="503" type="curve" smooth="yes"/>
			<point x="162" y="809"/>
			<point x="322" y="1020"/>
			<point x="556" y="1020" type="curve" smooth="yes"/>
			<point x="789" y="1020"/>
			<point x="950" y="817"/>
			<point x="950" y="521" type="curve" smooth="yes"/>
			<point x="950" y="215"/>
			<point x="790" y="4"/>
		</contour>
		<contour>
			<point x="1032" y="1212" type="curve" smooth="yes"/>
			<point x="1032" y="1280"/>
			<point x="998" y="1306"/>
			<point x="958" y="1306" type="curve" smooth="yes"/>
			<point x="919" y="1306"/>
			<point x="893" y="1280"/>
			<point x="893" y="1254" type="curve" smooth="yes"/>
			<point x="893" y="1246"/>
			<point x="936" y="1209"/>
			<point x="936" y="1153" type="curve" smooth="yes"/>
			<point x="936" y="1064"/>
			<point x="886" y="1021"/>
			<point x="781" y="1021" type="curve" smooth="yes"/>
			<point x="704" y="1021"/>
			<point x="650" y="1044"/>
			<point x="558" y="1044" type="curve" smooth="yes"/>
			<point x="287" y="1044"/>
			<point x="78" y="838"/>
			<point x="78" y="503" type="curve" smooth="yes"/>
			<point x="78" y="178"/>
			<point x="299" y="-20"/>
			<point x="554" y="-20" type="curve" smooth="yes"/>
			<point x="825" y="-20"/>
			<point x="1034" y="186"/>
			<point x="1034" y="521" type="curve" smooth="yes"/>
			<point x="1034" y="751"/>
			<point x="928" y="914"/>
			<point x="746" y="1005" type="curve"/>
			<point x="746" y="1002" type="line"/>
			<point x="916" y="977"/>
			<point x="1032" y="1061"/>
		</contour>
	</outline>
	<anchor name="top" x="556" y="1024"/>
	<anchor name="bottom" x="556" y="0"/>
</glyph>
<glyph name="Uhorn" format="2">
	<unicode hex="01AF"/>
	<advance width="1482"/>
	<outline>
		<contour>
			<point x="1517" y="1559" type="curve" smooth="yes"/>
			<point x="1517" y="1476"/>
			<point x="1465" y="1430"/>
			<point x="1323" y="1430" type="curve" smooth="yes"/>
			<point x="1072" y="1430" type="line"/>
			<point x="1072" y="1418" type="line"/>
			<point x="1258" y="1390" type="line"/>
			<point x="1258" y="549" type="line" smooth="yes"/>
			<point x="1258" y="197"/>
			<point x="1094" y="27"/>
			<point x="774" y="27" type="curve" smooth="yes"/>
			<point x="458" y="27"/>
			<point x="298" y="229"/>
			<point x="298" y="583" type="curve" smooth="yes"/>
			<point x="298" y="1390" type="line"/>
			<point x="481" y="1418" type="line"/>
			<point x="481" y="1430" type="line"/>
			<point x="33" y="1430" type="line"/>
			<point x="33" y="1418" type="line"/>
			<point x="217" y="1390" type="line"/>
			<point x="217" y="578" type="line" smooth="yes"/>
			<point x="217" y="172"/>
			<point x="411" y="-21"/>
			<point x="757" y="-21" type="curve" smooth="yes"/>
			<point x="1087" y="-21"/>
			<point x="1288" y="156"/>
			<point x="1288" y="549" type="curve" smooth="yes"/>
			<point x="1288" y="1390" type="line"/>
			<point x="1525" y="1397"/>
			<point x="1613" y="1488"/>
			<point x="1613" y="1618" type="curve" smooth="yes"/>
			<point x="1613" y="1686"/>
			<point x="1579" y="1712"/>
			<point x="1539" y="1712" type="curve" smooth="yes"/>
			<point x="1500" y="1712"/>
			<point x="1474" y="1686"/>
			<point x="1474" y="1660" type="curve" smooth="yes"/>
			<point x="1474" y="1652"/>
			<point x="1517" y="1615"/>
		</contour>
	</outline>
	<anchor name="UCtop" x="790" y="1430"/>
	<anchor name="bottom" x="790" y="0"/>
</glyph>
